<?xml version="1.0" encoding="utf-8" standalone="no"?>
<!DOCTYPE svg PUBLIC "-//W3C//DTD SVG 1.1//EN"
  "http://www.w3.org/Graphics/SVG/1.1/DTD/svg11.dtd">
<!-- Created with matplotlib (https://matplotlib.org/) -->
<svg height="559.355313pt" version="1.1" viewBox="0 0 1723.604687 559.355313" width="1723.604687pt" xmlns="http://www.w3.org/2000/svg" xmlns:xlink="http://www.w3.org/1999/xlink">
 <defs>
  <style type="text/css">
*{stroke-linecap:butt;stroke-linejoin:round;}
  </style>
 </defs>
 <g id="figure_1">
  <g id="patch_1">
   <path d="M -0 559.355313 
L 1723.604687 559.355313 
L 1723.604687 0 
L -0 0 
z
" style="fill:#ffffff;"/>
  </g>
  <g id="axes_1">
   <g id="patch_2">
    <path d="M 70.892188 516.96 
L 568.89905 516.96 
L 568.89905 10.7 
L 70.892188 10.7 
z
" style="fill:#ffffff;"/>
   </g>
   <g id="PathCollection_1">
    <defs>
     <path d="M 0 3 
C 0.795609 3 1.55874 2.683901 2.12132 2.12132 
C 2.683901 1.55874 3 0.795609 3 0 
C 3 -0.795609 2.683901 -1.55874 2.12132 -2.12132 
C 1.55874 -2.683901 0.795609 -3 0 -3 
C -0.795609 -3 -1.55874 -2.683901 -2.12132 -2.12132 
C -2.683901 -1.55874 -3 -0.795609 -3 0 
C -3 0.795609 -2.683901 1.55874 -2.12132 2.12132 
C -1.55874 2.683901 -0.795609 3 0 3 
z
" id="mc93a6e2923" style="stroke:#ff0000;"/>
    </defs>
    <g clip-path="url(#p38039e0390)">
     <use style="fill:#ff0000;stroke:#ff0000;" x="455.06891" xlink:href="#mc93a6e2923" y="435.087633"/>
     <use style="fill:#ff0000;stroke:#ff0000;" x="469.297678" xlink:href="#mc93a6e2923" y="471.723981"/>
     <use style="fill:#ff0000;stroke:#ff0000;" x="191.836711" xlink:href="#mc93a6e2923" y="480.52953"/>
     <use style="fill:#ff0000;stroke:#ff0000;" x="149.150409" xlink:href="#mc93a6e2923" y="461.939663"/>
     <use style="fill:#ff0000;stroke:#ff0000;" x="255.866165" xlink:href="#mc93a6e2923" y="432.110824"/>
     <use style="fill:#ff0000;stroke:#ff0000;" x="127.807258" xlink:href="#mc93a6e2923" y="390.773007"/>
     <use style="fill:#ff0000;stroke:#ff0000;" x="106.464106" xlink:href="#mc93a6e2923" y="370.988367"/>
     <use style="fill:#ff0000;stroke:#ff0000;" x="120.692874" xlink:href="#mc93a6e2923" y="337.946464"/>
     <use style="fill:#ff0000;stroke:#ff0000;" x="99.349723" xlink:href="#mc93a6e2923" y="396.740125"/>
     <use style="fill:#ff0000;stroke:#ff0000;" x="106.464106" xlink:href="#mc93a6e2923" y="406.092435"/>
     <use style="fill:#ff0000;stroke:#ff0000;" x="92.235339" xlink:href="#mc93a6e2923" y="329.90368"/>
     <use style="fill:#ff0000;stroke:#ff0000;" x="99.349723" xlink:href="#mc93a6e2923" y="417.503535"/>
     <use style="fill:#ff0000;stroke:#ff0000;" x="92.235339" xlink:href="#mc93a6e2923" y="383.07448"/>
     <use style="fill:#ff0000;stroke:#ff0000;" x="120.692874" xlink:href="#mc93a6e2923" y="420.102337"/>
     <use style="fill:#ff0000;stroke:#ff0000;" x="92.235339" xlink:href="#mc93a6e2923" y="413.659335"/>
     <use style="fill:#ff0000;stroke:#ff0000;" x="134.921641" xlink:href="#mc93a6e2923" y="398.134028"/>
     <use style="fill:#ff0000;stroke:#ff0000;" x="85.120955" xlink:href="#mc93a6e2923" y="395.633103"/>
     <use style="fill:#ff0000;stroke:#ff0000;" x="99.349723" xlink:href="#mc93a6e2923" y="396.486995"/>
     <use style="fill:#ff0000;stroke:#ff0000;" x="99.349723" xlink:href="#mc93a6e2923" y="399.551556"/>
     <use style="fill:#ff0000;stroke:#ff0000;" x="99.349723" xlink:href="#mc93a6e2923" y="398.954169"/>
     <use style="fill:#ff0000;stroke:#ff0000;" x="419.496991" xlink:href="#mc93a6e2923" y="406.747198"/>
     <use style="fill:#ff0000;stroke:#ff0000;" x="262.980549" xlink:href="#mc93a6e2923" y="364.784994"/>
     <use style="fill:#ff0000;stroke:#ff0000;" x="440.840143" xlink:href="#mc93a6e2923" y="410.081764"/>
     <use style="fill:#ff0000;stroke:#ff0000;" x="70.892188" xlink:href="#mc93a6e2923" y="176.881533"/>
     <use style="fill:#ff0000;stroke:#ff0000;" x="70.892188" xlink:href="#mc93a6e2923" y="383.908122"/>
     <use style="fill:#ff0000;stroke:#ff0000;" x="305.666851" xlink:href="#mc93a6e2923" y="217.945969"/>
     <use style="fill:#ff0000;stroke:#ff0000;" x="70.892188" xlink:href="#mc93a6e2923" y="405.977683"/>
     <use style="fill:#ff0000;stroke:#ff0000;" x="220.294246" xlink:href="#mc93a6e2923" y="467.063014"/>
     <use style="fill:#ff0000;stroke:#ff0000;" x="163.379176" xlink:href="#mc93a6e2923" y="458.193339"/>
     <use style="fill:#ff0000;stroke:#ff0000;" x="213.179863" xlink:href="#mc93a6e2923" y="356.2022"/>
     <use style="fill:#ff0000;stroke:#ff0000;" x="170.49356" xlink:href="#mc93a6e2923" y="435.182135"/>
     <use style="fill:#ff0000;stroke:#ff0000;" x="99.349723" xlink:href="#mc93a6e2923" y="301.148112"/>
     <use style="fill:#ff0000;stroke:#ff0000;" x="70.892188" xlink:href="#mc93a6e2923" y="22.593735"/>
     <use style="fill:#ff0000;stroke:#ff0000;" x="177.607944" xlink:href="#mc93a6e2923" y="204.587455"/>
     <use style="fill:#ff0000;stroke:#ff0000;" x="383.925073" xlink:href="#mc93a6e2923" y="177.634172"/>
     <use style="fill:#ff0000;stroke:#ff0000;" x="134.921641" xlink:href="#mc93a6e2923" y="42.618005"/>
     <use style="fill:#ff0000;stroke:#ff0000;" x="70.892188" xlink:href="#mc93a6e2923" y="70.624309"/>
     <use style="fill:#ff0000;stroke:#ff0000;" x="82.548025" xlink:href="#mc93a6e2923" y="-1"/>
     <use style="fill:#ff0000;stroke:#ff0000;" x="329.367567" xlink:href="#mc93a6e2923" y="-1"/>
     <use style="fill:#ff0000;stroke:#ff0000;" x="369.696305" xlink:href="#mc93a6e2923" y="351.092349"/>
     <use style="fill:#ff0000;stroke:#ff0000;" x="120.692874" xlink:href="#mc93a6e2923" y="452.833733"/>
     <use style="fill:#ff0000;stroke:#ff0000;" x="70.892188" xlink:href="#mc93a6e2923" y="415.805877"/>
     <use style="fill:#ff0000;stroke:#ff0000;" x="70.892188" xlink:href="#mc93a6e2923" y="470.724962"/>
     <use style="fill:#ff0000;stroke:#ff0000;" x="70.892188" xlink:href="#mc93a6e2923" y="446.964492"/>
     <use style="fill:#ff0000;stroke:#ff0000;" x="206.065479" xlink:href="#mc93a6e2923" y="468.082285"/>
     <use style="fill:#ff0000;stroke:#ff0000;" x="241.637398" xlink:href="#mc93a6e2923" y="460.616637"/>
     <use style="fill:#ff0000;stroke:#ff0000;" x="134.921641" xlink:href="#mc93a6e2923" y="471.815108"/>
     <use style="fill:#ff0000;stroke:#ff0000;" x="156.264793" xlink:href="#mc93a6e2923" y="418.779311"/>
     <use style="fill:#ff0000;stroke:#ff0000;" x="213.179863" xlink:href="#mc93a6e2923" y="486.675527"/>
     <use style="fill:#ff0000;stroke:#ff0000;" x="113.57849" xlink:href="#mc93a6e2923" y="452.580603"/>
     <use style="fill:#ff0000;stroke:#ff0000;" x="270.094933" xlink:href="#mc93a6e2923" y="486.422397"/>
     <use style="fill:#ff0000;stroke:#ff0000;" x="213.179863" xlink:href="#mc93a6e2923" y="483.847221"/>
     <use style="fill:#ff0000;stroke:#ff0000;" x="213.179863" xlink:href="#mc93a6e2923" y="442.904287"/>
     <use style="fill:#ff0000;stroke:#ff0000;" x="255.866165" xlink:href="#mc93a6e2923" y="448.257143"/>
     <use style="fill:#ff0000;stroke:#ff0000;" x="227.40863" xlink:href="#mc93a6e2923" y="490.202471"/>
     <use style="fill:#ff0000;stroke:#ff0000;" x="127.807258" xlink:href="#mc93a6e2923" y="429.292643"/>
     <use style="fill:#ff0000;stroke:#ff0000;" x="220.294246" xlink:href="#mc93a6e2923" y="469.63819"/>
     <use style="fill:#ff0000;stroke:#ff0000;" x="85.120955" xlink:href="#mc93a6e2923" y="490.86736"/>
     <use style="fill:#ff0000;stroke:#ff0000;" x="106.464106" xlink:href="#mc93a6e2923" y="469.442436"/>
     <use style="fill:#ff0000;stroke:#ff0000;" x="120.692874" xlink:href="#mc93a6e2923" y="452.833733"/>
     <use style="fill:#ff0000;stroke:#ff0000;" x="113.57849" xlink:href="#mc93a6e2923" y="483.499589"/>
     <use style="fill:#ff0000;stroke:#ff0000;" x="99.349723" xlink:href="#mc93a6e2923" y="483.324086"/>
     <use style="fill:#ff0000;stroke:#ff0000;" x="198.951095" xlink:href="#mc93a6e2923" y="467.694152"/>
     <use style="fill:#ff0000;stroke:#ff0000;" x="184.722328" xlink:href="#mc93a6e2923" y="489.945966"/>
     <use style="fill:#ff0000;stroke:#ff0000;" x="92.235339" xlink:href="#mc93a6e2923" y="504.317"/>
     <use style="fill:#ff0000;stroke:#ff0000;" x="198.951095" xlink:href="#mc93a6e2923" y="487.819674"/>
     <use style="fill:#ff0000;stroke:#ff0000;" x="206.065479" xlink:href="#mc93a6e2923" y="473.195511"/>
     <use style="fill:#ff0000;stroke:#ff0000;" x="213.179863" xlink:href="#mc93a6e2923" y="294.890739"/>
     <use style="fill:#ff0000;stroke:#ff0000;" x="191.836711" xlink:href="#mc93a6e2923" y="499.271276"/>
     <use style="fill:#ff0000;stroke:#ff0000;" x="191.836711" xlink:href="#mc93a6e2923" y="489.60171"/>
     <use style="fill:#ff0000;stroke:#ff0000;" x="85.120955" xlink:href="#mc93a6e2923" y="467.771778"/>
     <use style="fill:#ff0000;stroke:#ff0000;" x="113.57849" xlink:href="#mc93a6e2923" y="485.666382"/>
     <use style="fill:#ff0000;stroke:#ff0000;" x="234.523014" xlink:href="#mc93a6e2923" y="490.590604"/>
     <use style="fill:#ff0000;stroke:#ff0000;" x="177.607944" xlink:href="#mc93a6e2923" y="416.153509"/>
     <use style="fill:#ff0000;stroke:#ff0000;" x="184.722328" xlink:href="#mc93a6e2923" y="500.908183"/>
     <use style="fill:#ff0000;stroke:#ff0000;" x="142.036025" xlink:href="#mc93a6e2923" y="477.370468"/>
     <use style="fill:#ff0000;stroke:#ff0000;" x="163.379176" xlink:href="#mc93a6e2923" y="496.888479"/>
     <use style="fill:#ff0000;stroke:#ff0000;" x="177.607944" xlink:href="#mc93a6e2923" y="471.035468"/>
     <use style="fill:#ff0000;stroke:#ff0000;" x="177.607944" xlink:href="#mc93a6e2923" y="471.936611"/>
     <use style="fill:#ff0000;stroke:#ff0000;" x="177.607944" xlink:href="#mc93a6e2923" y="490.853859"/>
     <use style="fill:#ff0000;stroke:#ff0000;" x="191.836711" xlink:href="#mc93a6e2923" y="501.039811"/>
     <use style="fill:#ff0000;stroke:#ff0000;" x="170.49356" xlink:href="#mc93a6e2923" y="495.484451"/>
     <use style="fill:#ff0000;stroke:#ff0000;" x="149.150409" xlink:href="#mc93a6e2923" y="484.184728"/>
     <use style="fill:#ff0000;stroke:#ff0000;" x="191.836711" xlink:href="#mc93a6e2923" y="500.857557"/>
     <use style="fill:#ff0000;stroke:#ff0000;" x="220.294246" xlink:href="#mc93a6e2923" y="495.207695"/>
     <use style="fill:#ff0000;stroke:#ff0000;" x="92.235339" xlink:href="#mc93a6e2923" y="455.881419"/>
     <use style="fill:#ff0000;stroke:#ff0000;" x="234.523014" xlink:href="#mc93a6e2923" y="376.108343"/>
     <use style="fill:#ff0000;stroke:#ff0000;" x="163.379176" xlink:href="#mc93a6e2923" y="364.292234"/>
     <use style="fill:#ff0000;stroke:#ff0000;" x="85.120955" xlink:href="#mc93a6e2923" y="450.326059"/>
     <use style="fill:#ff0000;stroke:#ff0000;" x="213.179863" xlink:href="#mc93a6e2923" y="416.848773"/>
     <use style="fill:#ff0000;stroke:#ff0000;" x="92.235339" xlink:href="#mc93a6e2923" y="462.476299"/>
     <use style="fill:#ff0000;stroke:#ff0000;" x="334.124386" xlink:href="#mc93a6e2923" y="342.111296"/>
     <use style="fill:#ff0000;stroke:#ff0000;" x="383.925073" xlink:href="#mc93a6e2923" y="452.840483"/>
     <use style="fill:#ff0000;stroke:#ff0000;" x="426.611375" xlink:href="#mc93a6e2923" y="471.693606"/>
     <use style="fill:#ff0000;stroke:#ff0000;" x="419.496991" xlink:href="#mc93a6e2923" y="452.975486"/>
     <use style="fill:#ff0000;stroke:#ff0000;" x="270.094933" xlink:href="#mc93a6e2923" y="443.788555"/>
     <use style="fill:#ff0000;stroke:#ff0000;" x="412.382608" xlink:href="#mc93a6e2923" y="436.775166"/>
     <use style="fill:#ff0000;stroke:#ff0000;" x="99.349723" xlink:href="#mc93a6e2923" y="469.476187"/>
     <use style="fill:#ff0000;stroke:#ff0000;" x="234.523014" xlink:href="#mc93a6e2923" y="476.742706"/>
     <use style="fill:#ff0000;stroke:#ff0000;" x="277.209316" xlink:href="#mc93a6e2923" y="389.264353"/>
     <use style="fill:#ff0000;stroke:#ff0000;" x="206.065479" xlink:href="#mc93a6e2923" y="492.365889"/>
    </g>
   </g>
   <g id="matplotlib.axis_1">
    <g id="xtick_1">
     <g id="line2d_1">
      <defs>
       <path d="M 0 0 
L 0 3.5 
" id="ma0fb760b51" style="stroke:#000000;stroke-width:0.8;"/>
      </defs>
      <g>
       <use style="stroke:#000000;stroke-width:0.8;" x="70.892188" xlink:href="#ma0fb760b51" y="516.96"/>
      </g>
     </g>
     <g id="text_1">
      <!-- 0 -->
      <defs>
       <path d="M 31.78125 66.40625 
Q 24.171875 66.40625 20.328125 58.90625 
Q 16.5 51.421875 16.5 36.375 
Q 16.5 21.390625 20.328125 13.890625 
Q 24.171875 6.390625 31.78125 6.390625 
Q 39.453125 6.390625 43.28125 13.890625 
Q 47.125 21.390625 47.125 36.375 
Q 47.125 51.421875 43.28125 58.90625 
Q 39.453125 66.40625 31.78125 66.40625 
z
M 31.78125 74.21875 
Q 44.046875 74.21875 50.515625 64.515625 
Q 56.984375 54.828125 56.984375 36.375 
Q 56.984375 17.96875 50.515625 8.265625 
Q 44.046875 -1.421875 31.78125 -1.421875 
Q 19.53125 -1.421875 13.0625 8.265625 
Q 6.59375 17.96875 6.59375 36.375 
Q 6.59375 54.828125 13.0625 64.515625 
Q 19.53125 74.21875 31.78125 74.21875 
z
" id="DejaVuSans-48"/>
      </defs>
      <g transform="translate(67.710938 531.558438)scale(0.1 -0.1)">
       <use xlink:href="#DejaVuSans-48"/>
      </g>
     </g>
    </g>
    <g id="xtick_2">
     <g id="line2d_2">
      <g>
       <use style="stroke:#000000;stroke-width:0.8;" x="142.036025" xlink:href="#ma0fb760b51" y="516.96"/>
      </g>
     </g>
     <g id="text_2">
      <!-- 10 -->
      <defs>
       <path d="M 12.40625 8.296875 
L 28.515625 8.296875 
L 28.515625 63.921875 
L 10.984375 60.40625 
L 10.984375 69.390625 
L 28.421875 72.90625 
L 38.28125 72.90625 
L 38.28125 8.296875 
L 54.390625 8.296875 
L 54.390625 0 
L 12.40625 0 
z
" id="DejaVuSans-49"/>
      </defs>
      <g transform="translate(135.673525 531.558438)scale(0.1 -0.1)">
       <use xlink:href="#DejaVuSans-49"/>
       <use x="63.623047" xlink:href="#DejaVuSans-48"/>
      </g>
     </g>
    </g>
    <g id="xtick_3">
     <g id="line2d_3">
      <g>
       <use style="stroke:#000000;stroke-width:0.8;" x="213.179863" xlink:href="#ma0fb760b51" y="516.96"/>
      </g>
     </g>
     <g id="text_3">
      <!-- 20 -->
      <defs>
       <path d="M 19.1875 8.296875 
L 53.609375 8.296875 
L 53.609375 0 
L 7.328125 0 
L 7.328125 8.296875 
Q 12.9375 14.109375 22.625 23.890625 
Q 32.328125 33.6875 34.8125 36.53125 
Q 39.546875 41.84375 41.421875 45.53125 
Q 43.3125 49.21875 43.3125 52.78125 
Q 43.3125 58.59375 39.234375 62.25 
Q 35.15625 65.921875 28.609375 65.921875 
Q 23.96875 65.921875 18.8125 64.3125 
Q 13.671875 62.703125 7.8125 59.421875 
L 7.8125 69.390625 
Q 13.765625 71.78125 18.9375 73 
Q 24.125 74.21875 28.421875 74.21875 
Q 39.75 74.21875 46.484375 68.546875 
Q 53.21875 62.890625 53.21875 53.421875 
Q 53.21875 48.921875 51.53125 44.890625 
Q 49.859375 40.875 45.40625 35.40625 
Q 44.1875 33.984375 37.640625 27.21875 
Q 31.109375 20.453125 19.1875 8.296875 
z
" id="DejaVuSans-50"/>
      </defs>
      <g transform="translate(206.817363 531.558438)scale(0.1 -0.1)">
       <use xlink:href="#DejaVuSans-50"/>
       <use x="63.623047" xlink:href="#DejaVuSans-48"/>
      </g>
     </g>
    </g>
    <g id="xtick_4">
     <g id="line2d_4">
      <g>
       <use style="stroke:#000000;stroke-width:0.8;" x="284.3237" xlink:href="#ma0fb760b51" y="516.96"/>
      </g>
     </g>
     <g id="text_4">
      <!-- 30 -->
      <defs>
       <path d="M 40.578125 39.3125 
Q 47.65625 37.796875 51.625 33 
Q 55.609375 28.21875 55.609375 21.1875 
Q 55.609375 10.40625 48.1875 4.484375 
Q 40.765625 -1.421875 27.09375 -1.421875 
Q 22.515625 -1.421875 17.65625 -0.515625 
Q 12.796875 0.390625 7.625 2.203125 
L 7.625 11.71875 
Q 11.71875 9.328125 16.59375 8.109375 
Q 21.484375 6.890625 26.8125 6.890625 
Q 36.078125 6.890625 40.9375 10.546875 
Q 45.796875 14.203125 45.796875 21.1875 
Q 45.796875 27.640625 41.28125 31.265625 
Q 36.765625 34.90625 28.71875 34.90625 
L 20.21875 34.90625 
L 20.21875 43.015625 
L 29.109375 43.015625 
Q 36.375 43.015625 40.234375 45.921875 
Q 44.09375 48.828125 44.09375 54.296875 
Q 44.09375 59.90625 40.109375 62.90625 
Q 36.140625 65.921875 28.71875 65.921875 
Q 24.65625 65.921875 20.015625 65.03125 
Q 15.375 64.15625 9.8125 62.3125 
L 9.8125 71.09375 
Q 15.4375 72.65625 20.34375 73.4375 
Q 25.25 74.21875 29.59375 74.21875 
Q 40.828125 74.21875 47.359375 69.109375 
Q 53.90625 64.015625 53.90625 55.328125 
Q 53.90625 49.265625 50.4375 45.09375 
Q 46.96875 40.921875 40.578125 39.3125 
z
" id="DejaVuSans-51"/>
      </defs>
      <g transform="translate(277.9612 531.558438)scale(0.1 -0.1)">
       <use xlink:href="#DejaVuSans-51"/>
       <use x="63.623047" xlink:href="#DejaVuSans-48"/>
      </g>
     </g>
    </g>
    <g id="xtick_5">
     <g id="line2d_5">
      <g>
       <use style="stroke:#000000;stroke-width:0.8;" x="355.467538" xlink:href="#ma0fb760b51" y="516.96"/>
      </g>
     </g>
     <g id="text_5">
      <!-- 40 -->
      <defs>
       <path d="M 37.796875 64.3125 
L 12.890625 25.390625 
L 37.796875 25.390625 
z
M 35.203125 72.90625 
L 47.609375 72.90625 
L 47.609375 25.390625 
L 58.015625 25.390625 
L 58.015625 17.1875 
L 47.609375 17.1875 
L 47.609375 0 
L 37.796875 0 
L 37.796875 17.1875 
L 4.890625 17.1875 
L 4.890625 26.703125 
z
" id="DejaVuSans-52"/>
      </defs>
      <g transform="translate(349.105038 531.558438)scale(0.1 -0.1)">
       <use xlink:href="#DejaVuSans-52"/>
       <use x="63.623047" xlink:href="#DejaVuSans-48"/>
      </g>
     </g>
    </g>
    <g id="xtick_6">
     <g id="line2d_6">
      <g>
       <use style="stroke:#000000;stroke-width:0.8;" x="426.611375" xlink:href="#ma0fb760b51" y="516.96"/>
      </g>
     </g>
     <g id="text_6">
      <!-- 50 -->
      <defs>
       <path d="M 10.796875 72.90625 
L 49.515625 72.90625 
L 49.515625 64.59375 
L 19.828125 64.59375 
L 19.828125 46.734375 
Q 21.96875 47.46875 24.109375 47.828125 
Q 26.265625 48.1875 28.421875 48.1875 
Q 40.625 48.1875 47.75 41.5 
Q 54.890625 34.8125 54.890625 23.390625 
Q 54.890625 11.625 47.5625 5.09375 
Q 40.234375 -1.421875 26.90625 -1.421875 
Q 22.3125 -1.421875 17.546875 -0.640625 
Q 12.796875 0.140625 7.71875 1.703125 
L 7.71875 11.625 
Q 12.109375 9.234375 16.796875 8.0625 
Q 21.484375 6.890625 26.703125 6.890625 
Q 35.15625 6.890625 40.078125 11.328125 
Q 45.015625 15.765625 45.015625 23.390625 
Q 45.015625 31 40.078125 35.4375 
Q 35.15625 39.890625 26.703125 39.890625 
Q 22.75 39.890625 18.8125 39.015625 
Q 14.890625 38.140625 10.796875 36.28125 
z
" id="DejaVuSans-53"/>
      </defs>
      <g transform="translate(420.248875 531.558438)scale(0.1 -0.1)">
       <use xlink:href="#DejaVuSans-53"/>
       <use x="63.623047" xlink:href="#DejaVuSans-48"/>
      </g>
     </g>
    </g>
    <g id="xtick_7">
     <g id="line2d_7">
      <g>
       <use style="stroke:#000000;stroke-width:0.8;" x="497.755213" xlink:href="#ma0fb760b51" y="516.96"/>
      </g>
     </g>
     <g id="text_7">
      <!-- 60 -->
      <defs>
       <path d="M 33.015625 40.375 
Q 26.375 40.375 22.484375 35.828125 
Q 18.609375 31.296875 18.609375 23.390625 
Q 18.609375 15.53125 22.484375 10.953125 
Q 26.375 6.390625 33.015625 6.390625 
Q 39.65625 6.390625 43.53125 10.953125 
Q 47.40625 15.53125 47.40625 23.390625 
Q 47.40625 31.296875 43.53125 35.828125 
Q 39.65625 40.375 33.015625 40.375 
z
M 52.59375 71.296875 
L 52.59375 62.3125 
Q 48.875 64.0625 45.09375 64.984375 
Q 41.3125 65.921875 37.59375 65.921875 
Q 27.828125 65.921875 22.671875 59.328125 
Q 17.53125 52.734375 16.796875 39.40625 
Q 19.671875 43.65625 24.015625 45.921875 
Q 28.375 48.1875 33.59375 48.1875 
Q 44.578125 48.1875 50.953125 41.515625 
Q 57.328125 34.859375 57.328125 23.390625 
Q 57.328125 12.15625 50.6875 5.359375 
Q 44.046875 -1.421875 33.015625 -1.421875 
Q 20.359375 -1.421875 13.671875 8.265625 
Q 6.984375 17.96875 6.984375 36.375 
Q 6.984375 53.65625 15.1875 63.9375 
Q 23.390625 74.21875 37.203125 74.21875 
Q 40.921875 74.21875 44.703125 73.484375 
Q 48.484375 72.75 52.59375 71.296875 
z
" id="DejaVuSans-54"/>
      </defs>
      <g transform="translate(491.392713 531.558438)scale(0.1 -0.1)">
       <use xlink:href="#DejaVuSans-54"/>
       <use x="63.623047" xlink:href="#DejaVuSans-48"/>
      </g>
     </g>
    </g>
    <g id="xtick_8">
     <g id="line2d_8">
      <g>
       <use style="stroke:#000000;stroke-width:0.8;" x="568.89905" xlink:href="#ma0fb760b51" y="516.96"/>
      </g>
     </g>
     <g id="text_8">
      <!-- 70 -->
      <defs>
       <path d="M 8.203125 72.90625 
L 55.078125 72.90625 
L 55.078125 68.703125 
L 28.609375 0 
L 18.3125 0 
L 43.21875 64.59375 
L 8.203125 64.59375 
z
" id="DejaVuSans-55"/>
      </defs>
      <g transform="translate(562.53655 531.558438)scale(0.1 -0.1)">
       <use xlink:href="#DejaVuSans-55"/>
       <use x="63.623047" xlink:href="#DejaVuSans-48"/>
      </g>
     </g>
    </g>
   </g>
   <g id="matplotlib.axis_2">
    <g id="ytick_1">
     <g id="line2d_9">
      <defs>
       <path d="M 0 0 
L -3.5 0 
" id="m941eced87b" style="stroke:#000000;stroke-width:0.8;"/>
      </defs>
      <g>
       <use style="stroke:#000000;stroke-width:0.8;" x="70.892188" xlink:href="#m941eced87b" y="516.96"/>
      </g>
     </g>
     <g id="text_9">
      <!-- 0 -->
      <g transform="translate(57.529688 520.759219)scale(0.1 -0.1)">
       <use xlink:href="#DejaVuSans-48"/>
      </g>
     </g>
    </g>
    <g id="ytick_2">
     <g id="line2d_10">
      <g>
       <use style="stroke:#000000;stroke-width:0.8;" x="70.892188" xlink:href="#m941eced87b" y="449.458667"/>
      </g>
     </g>
     <g id="text_10">
      <!-- 20000 -->
      <g transform="translate(32.079688 453.257885)scale(0.1 -0.1)">
       <use xlink:href="#DejaVuSans-50"/>
       <use x="63.623047" xlink:href="#DejaVuSans-48"/>
       <use x="127.246094" xlink:href="#DejaVuSans-48"/>
       <use x="190.869141" xlink:href="#DejaVuSans-48"/>
       <use x="254.492188" xlink:href="#DejaVuSans-48"/>
      </g>
     </g>
    </g>
    <g id="ytick_3">
     <g id="line2d_11">
      <g>
       <use style="stroke:#000000;stroke-width:0.8;" x="70.892188" xlink:href="#m941eced87b" y="381.957333"/>
      </g>
     </g>
     <g id="text_11">
      <!-- 40000 -->
      <g transform="translate(32.079688 385.756552)scale(0.1 -0.1)">
       <use xlink:href="#DejaVuSans-52"/>
       <use x="63.623047" xlink:href="#DejaVuSans-48"/>
       <use x="127.246094" xlink:href="#DejaVuSans-48"/>
       <use x="190.869141" xlink:href="#DejaVuSans-48"/>
       <use x="254.492188" xlink:href="#DejaVuSans-48"/>
      </g>
     </g>
    </g>
    <g id="ytick_4">
     <g id="line2d_12">
      <g>
       <use style="stroke:#000000;stroke-width:0.8;" x="70.892188" xlink:href="#m941eced87b" y="314.456"/>
      </g>
     </g>
     <g id="text_12">
      <!-- 60000 -->
      <g transform="translate(32.079688 318.255219)scale(0.1 -0.1)">
       <use xlink:href="#DejaVuSans-54"/>
       <use x="63.623047" xlink:href="#DejaVuSans-48"/>
       <use x="127.246094" xlink:href="#DejaVuSans-48"/>
       <use x="190.869141" xlink:href="#DejaVuSans-48"/>
       <use x="254.492188" xlink:href="#DejaVuSans-48"/>
      </g>
     </g>
    </g>
    <g id="ytick_5">
     <g id="line2d_13">
      <g>
       <use style="stroke:#000000;stroke-width:0.8;" x="70.892188" xlink:href="#m941eced87b" y="246.954667"/>
      </g>
     </g>
     <g id="text_13">
      <!-- 80000 -->
      <defs>
       <path d="M 31.78125 34.625 
Q 24.75 34.625 20.71875 30.859375 
Q 16.703125 27.09375 16.703125 20.515625 
Q 16.703125 13.921875 20.71875 10.15625 
Q 24.75 6.390625 31.78125 6.390625 
Q 38.8125 6.390625 42.859375 10.171875 
Q 46.921875 13.96875 46.921875 20.515625 
Q 46.921875 27.09375 42.890625 30.859375 
Q 38.875 34.625 31.78125 34.625 
z
M 21.921875 38.8125 
Q 15.578125 40.375 12.03125 44.71875 
Q 8.5 49.078125 8.5 55.328125 
Q 8.5 64.0625 14.71875 69.140625 
Q 20.953125 74.21875 31.78125 74.21875 
Q 42.671875 74.21875 48.875 69.140625 
Q 55.078125 64.0625 55.078125 55.328125 
Q 55.078125 49.078125 51.53125 44.71875 
Q 48 40.375 41.703125 38.8125 
Q 48.828125 37.15625 52.796875 32.3125 
Q 56.78125 27.484375 56.78125 20.515625 
Q 56.78125 9.90625 50.3125 4.234375 
Q 43.84375 -1.421875 31.78125 -1.421875 
Q 19.734375 -1.421875 13.25 4.234375 
Q 6.78125 9.90625 6.78125 20.515625 
Q 6.78125 27.484375 10.78125 32.3125 
Q 14.796875 37.15625 21.921875 38.8125 
z
M 18.3125 54.390625 
Q 18.3125 48.734375 21.84375 45.5625 
Q 25.390625 42.390625 31.78125 42.390625 
Q 38.140625 42.390625 41.71875 45.5625 
Q 45.3125 48.734375 45.3125 54.390625 
Q 45.3125 60.0625 41.71875 63.234375 
Q 38.140625 66.40625 31.78125 66.40625 
Q 25.390625 66.40625 21.84375 63.234375 
Q 18.3125 60.0625 18.3125 54.390625 
z
" id="DejaVuSans-56"/>
      </defs>
      <g transform="translate(32.079688 250.753885)scale(0.1 -0.1)">
       <use xlink:href="#DejaVuSans-56"/>
       <use x="63.623047" xlink:href="#DejaVuSans-48"/>
       <use x="127.246094" xlink:href="#DejaVuSans-48"/>
       <use x="190.869141" xlink:href="#DejaVuSans-48"/>
       <use x="254.492188" xlink:href="#DejaVuSans-48"/>
      </g>
     </g>
    </g>
    <g id="ytick_6">
     <g id="line2d_14">
      <g>
       <use style="stroke:#000000;stroke-width:0.8;" x="70.892188" xlink:href="#m941eced87b" y="179.453333"/>
      </g>
     </g>
     <g id="text_14">
      <!-- 100000 -->
      <g transform="translate(25.717188 183.252552)scale(0.1 -0.1)">
       <use xlink:href="#DejaVuSans-49"/>
       <use x="63.623047" xlink:href="#DejaVuSans-48"/>
       <use x="127.246094" xlink:href="#DejaVuSans-48"/>
       <use x="190.869141" xlink:href="#DejaVuSans-48"/>
       <use x="254.492188" xlink:href="#DejaVuSans-48"/>
       <use x="318.115234" xlink:href="#DejaVuSans-48"/>
      </g>
     </g>
    </g>
    <g id="ytick_7">
     <g id="line2d_15">
      <g>
       <use style="stroke:#000000;stroke-width:0.8;" x="70.892188" xlink:href="#m941eced87b" y="111.952"/>
      </g>
     </g>
     <g id="text_15">
      <!-- 120000 -->
      <g transform="translate(25.717188 115.751219)scale(0.1 -0.1)">
       <use xlink:href="#DejaVuSans-49"/>
       <use x="63.623047" xlink:href="#DejaVuSans-50"/>
       <use x="127.246094" xlink:href="#DejaVuSans-48"/>
       <use x="190.869141" xlink:href="#DejaVuSans-48"/>
       <use x="254.492188" xlink:href="#DejaVuSans-48"/>
       <use x="318.115234" xlink:href="#DejaVuSans-48"/>
      </g>
     </g>
    </g>
    <g id="ytick_8">
     <g id="line2d_16">
      <g>
       <use style="stroke:#000000;stroke-width:0.8;" x="70.892188" xlink:href="#m941eced87b" y="44.450667"/>
      </g>
     </g>
     <g id="text_16">
      <!-- 140000 -->
      <g transform="translate(25.717188 48.249885)scale(0.1 -0.1)">
       <use xlink:href="#DejaVuSans-49"/>
       <use x="63.623047" xlink:href="#DejaVuSans-52"/>
       <use x="127.246094" xlink:href="#DejaVuSans-48"/>
       <use x="190.869141" xlink:href="#DejaVuSans-48"/>
       <use x="254.492188" xlink:href="#DejaVuSans-48"/>
       <use x="318.115234" xlink:href="#DejaVuSans-48"/>
      </g>
     </g>
    </g>
    <g id="text_17">
     <!-- Retweet Rate -->
     <defs>
      <path d="M 44.390625 34.1875 
Q 47.5625 33.109375 50.5625 29.59375 
Q 53.5625 26.078125 56.59375 19.921875 
L 66.609375 0 
L 56 0 
L 46.6875 18.703125 
Q 43.0625 26.03125 39.671875 28.421875 
Q 36.28125 30.8125 30.421875 30.8125 
L 19.671875 30.8125 
L 19.671875 0 
L 9.8125 0 
L 9.8125 72.90625 
L 32.078125 72.90625 
Q 44.578125 72.90625 50.734375 67.671875 
Q 56.890625 62.453125 56.890625 51.90625 
Q 56.890625 45.015625 53.6875 40.46875 
Q 50.484375 35.9375 44.390625 34.1875 
z
M 19.671875 64.796875 
L 19.671875 38.921875 
L 32.078125 38.921875 
Q 39.203125 38.921875 42.84375 42.21875 
Q 46.484375 45.515625 46.484375 51.90625 
Q 46.484375 58.296875 42.84375 61.546875 
Q 39.203125 64.796875 32.078125 64.796875 
z
" id="DejaVuSans-82"/>
      <path d="M 56.203125 29.59375 
L 56.203125 25.203125 
L 14.890625 25.203125 
Q 15.484375 15.921875 20.484375 11.0625 
Q 25.484375 6.203125 34.421875 6.203125 
Q 39.59375 6.203125 44.453125 7.46875 
Q 49.3125 8.734375 54.109375 11.28125 
L 54.109375 2.78125 
Q 49.265625 0.734375 44.1875 -0.34375 
Q 39.109375 -1.421875 33.890625 -1.421875 
Q 20.796875 -1.421875 13.15625 6.1875 
Q 5.515625 13.8125 5.515625 26.8125 
Q 5.515625 40.234375 12.765625 48.109375 
Q 20.015625 56 32.328125 56 
Q 43.359375 56 49.78125 48.890625 
Q 56.203125 41.796875 56.203125 29.59375 
z
M 47.21875 32.234375 
Q 47.125 39.59375 43.09375 43.984375 
Q 39.0625 48.390625 32.421875 48.390625 
Q 24.90625 48.390625 20.390625 44.140625 
Q 15.875 39.890625 15.1875 32.171875 
z
" id="DejaVuSans-101"/>
      <path d="M 18.3125 70.21875 
L 18.3125 54.6875 
L 36.8125 54.6875 
L 36.8125 47.703125 
L 18.3125 47.703125 
L 18.3125 18.015625 
Q 18.3125 11.328125 20.140625 9.421875 
Q 21.96875 7.515625 27.59375 7.515625 
L 36.8125 7.515625 
L 36.8125 0 
L 27.59375 0 
Q 17.1875 0 13.234375 3.875 
Q 9.28125 7.765625 9.28125 18.015625 
L 9.28125 47.703125 
L 2.6875 47.703125 
L 2.6875 54.6875 
L 9.28125 54.6875 
L 9.28125 70.21875 
z
" id="DejaVuSans-116"/>
      <path d="M 4.203125 54.6875 
L 13.1875 54.6875 
L 24.421875 12.015625 
L 35.59375 54.6875 
L 46.1875 54.6875 
L 57.421875 12.015625 
L 68.609375 54.6875 
L 77.59375 54.6875 
L 63.28125 0 
L 52.6875 0 
L 40.921875 44.828125 
L 29.109375 0 
L 18.5 0 
z
" id="DejaVuSans-119"/>
      <path id="DejaVuSans-32"/>
      <path d="M 34.28125 27.484375 
Q 23.390625 27.484375 19.1875 25 
Q 14.984375 22.515625 14.984375 16.5 
Q 14.984375 11.71875 18.140625 8.90625 
Q 21.296875 6.109375 26.703125 6.109375 
Q 34.1875 6.109375 38.703125 11.40625 
Q 43.21875 16.703125 43.21875 25.484375 
L 43.21875 27.484375 
z
M 52.203125 31.203125 
L 52.203125 0 
L 43.21875 0 
L 43.21875 8.296875 
Q 40.140625 3.328125 35.546875 0.953125 
Q 30.953125 -1.421875 24.3125 -1.421875 
Q 15.921875 -1.421875 10.953125 3.296875 
Q 6 8.015625 6 15.921875 
Q 6 25.140625 12.171875 29.828125 
Q 18.359375 34.515625 30.609375 34.515625 
L 43.21875 34.515625 
L 43.21875 35.40625 
Q 43.21875 41.609375 39.140625 45 
Q 35.0625 48.390625 27.6875 48.390625 
Q 23 48.390625 18.546875 47.265625 
Q 14.109375 46.140625 10.015625 43.890625 
L 10.015625 52.203125 
Q 14.9375 54.109375 19.578125 55.046875 
Q 24.21875 56 28.609375 56 
Q 40.484375 56 46.34375 49.84375 
Q 52.203125 43.703125 52.203125 31.203125 
z
" id="DejaVuSans-97"/>
     </defs>
     <g transform="translate(18.597656 314.638984)rotate(-90)scale(0.15 -0.15)">
      <use xlink:href="#DejaVuSans-82"/>
      <use x="69.419922" xlink:href="#DejaVuSans-101"/>
      <use x="130.943359" xlink:href="#DejaVuSans-116"/>
      <use x="170.152344" xlink:href="#DejaVuSans-119"/>
      <use x="251.939453" xlink:href="#DejaVuSans-101"/>
      <use x="313.462891" xlink:href="#DejaVuSans-101"/>
      <use x="374.986328" xlink:href="#DejaVuSans-116"/>
      <use x="414.195312" xlink:href="#DejaVuSans-32"/>
      <use x="445.982422" xlink:href="#DejaVuSans-82"/>
      <use x="515.433594" xlink:href="#DejaVuSans-97"/>
      <use x="576.712891" xlink:href="#DejaVuSans-116"/>
      <use x="615.921875" xlink:href="#DejaVuSans-101"/>
     </g>
    </g>
   </g>
   <g id="line2d_17">
    <path clip-path="url(#p38039e0390)" d="M 70.892188 348.766578 
L 81.055593 371.072653 
L 91.218998 389.860781 
L 101.382404 405.339703 
L 111.545809 417.71816 
L 121.709214 427.204893 
L 131.87262 434.008644 
L 142.036025 438.338153 
L 152.19943 440.40216 
L 162.362836 440.409408 
L 172.526241 438.568637 
L 182.689646 435.088588 
L 192.853052 430.178003 
L 203.016457 424.045621 
L 213.179863 416.900185 
L 223.343268 408.950434 
L 233.506673 400.405111 
L 243.670079 391.472956 
L 253.833484 382.36271 
L 263.996889 373.283113 
L 274.160295 364.442908 
L 284.3237 356.050835 
L 294.487105 348.315636 
L 304.650511 341.44605 
L 314.813916 335.650819 
L 324.977322 331.138684 
L 335.140727 328.118386 
L 345.304132 326.798666 
L 355.467538 327.388266 
L 365.630943 330.095925 
L 375.794348 335.130385 
L 385.957754 342.700387 
L 396.121159 353.014673 
L 406.284564 366.281982 
L 416.44797 382.711056 
L 426.611375 402.510636 
L 436.774781 425.889463 
L 446.938186 453.056278 
L 457.101591 484.219822 
L 467.264997 519.588836 
L 477.428402 559.372061 
L 477.653442 560.355313 
" style="fill:none;stroke:#1f77b4;stroke-linecap:square;stroke-width:1.5;"/>
   </g>
   <g id="patch_3">
    <path d="M 70.892188 516.96 
L 70.892188 10.7 
" style="fill:none;stroke:#000000;stroke-linecap:square;stroke-linejoin:miter;stroke-width:0.8;"/>
   </g>
   <g id="patch_4">
    <path d="M 568.89905 516.96 
L 568.89905 10.7 
" style="fill:none;stroke:#000000;stroke-linecap:square;stroke-linejoin:miter;stroke-width:0.8;"/>
   </g>
   <g id="patch_5">
    <path d="M 70.892188 516.96 
L 568.89905 516.96 
" style="fill:none;stroke:#000000;stroke-linecap:square;stroke-linejoin:miter;stroke-width:0.8;"/>
   </g>
   <g id="patch_6">
    <path d="M 70.892188 10.7 
L 568.89905 10.7 
" style="fill:none;stroke:#000000;stroke-linecap:square;stroke-linejoin:miter;stroke-width:0.8;"/>
   </g>
   <g id="legend_1">
    <g id="patch_7">
     <path d="M 497.275613 33.378125 
L 561.89905 33.378125 
Q 563.89905 33.378125 563.89905 31.378125 
L 563.89905 17.7 
Q 563.89905 15.7 561.89905 15.7 
L 497.275613 15.7 
Q 495.275613 15.7 495.275613 17.7 
L 495.275613 31.378125 
Q 495.275613 33.378125 497.275613 33.378125 
z
" style="fill:#ffffff;opacity:0.8;stroke:#cccccc;stroke-linejoin:miter;"/>
    </g>
    <g id="PathCollection_2">
     <g>
      <use style="fill:#ff0000;stroke:#ff0000;" x="509.275613" xlink:href="#mc93a6e2923" y="24.673438"/>
     </g>
    </g>
    <g id="text_18">
     <!-- Trump -->
     <defs>
      <path d="M -0.296875 72.90625 
L 61.375 72.90625 
L 61.375 64.59375 
L 35.5 64.59375 
L 35.5 0 
L 25.59375 0 
L 25.59375 64.59375 
L -0.296875 64.59375 
z
" id="DejaVuSans-84"/>
      <path d="M 41.109375 46.296875 
Q 39.59375 47.171875 37.8125 47.578125 
Q 36.03125 48 33.890625 48 
Q 26.265625 48 22.1875 43.046875 
Q 18.109375 38.09375 18.109375 28.8125 
L 18.109375 0 
L 9.078125 0 
L 9.078125 54.6875 
L 18.109375 54.6875 
L 18.109375 46.1875 
Q 20.953125 51.171875 25.484375 53.578125 
Q 30.03125 56 36.53125 56 
Q 37.453125 56 38.578125 55.875 
Q 39.703125 55.765625 41.0625 55.515625 
z
" id="DejaVuSans-114"/>
      <path d="M 8.5 21.578125 
L 8.5 54.6875 
L 17.484375 54.6875 
L 17.484375 21.921875 
Q 17.484375 14.15625 20.5 10.265625 
Q 23.53125 6.390625 29.59375 6.390625 
Q 36.859375 6.390625 41.078125 11.03125 
Q 45.3125 15.671875 45.3125 23.6875 
L 45.3125 54.6875 
L 54.296875 54.6875 
L 54.296875 0 
L 45.3125 0 
L 45.3125 8.40625 
Q 42.046875 3.421875 37.71875 1 
Q 33.40625 -1.421875 27.6875 -1.421875 
Q 18.265625 -1.421875 13.375 4.4375 
Q 8.5 10.296875 8.5 21.578125 
z
M 31.109375 56 
z
" id="DejaVuSans-117"/>
      <path d="M 52 44.1875 
Q 55.375 50.25 60.0625 53.125 
Q 64.75 56 71.09375 56 
Q 79.640625 56 84.28125 50.015625 
Q 88.921875 44.046875 88.921875 33.015625 
L 88.921875 0 
L 79.890625 0 
L 79.890625 32.71875 
Q 79.890625 40.578125 77.09375 44.375 
Q 74.3125 48.1875 68.609375 48.1875 
Q 61.625 48.1875 57.5625 43.546875 
Q 53.515625 38.921875 53.515625 30.90625 
L 53.515625 0 
L 44.484375 0 
L 44.484375 32.71875 
Q 44.484375 40.625 41.703125 44.40625 
Q 38.921875 48.1875 33.109375 48.1875 
Q 26.21875 48.1875 22.15625 43.53125 
Q 18.109375 38.875 18.109375 30.90625 
L 18.109375 0 
L 9.078125 0 
L 9.078125 54.6875 
L 18.109375 54.6875 
L 18.109375 46.1875 
Q 21.1875 51.21875 25.484375 53.609375 
Q 29.78125 56 35.6875 56 
Q 41.65625 56 45.828125 52.96875 
Q 50 49.953125 52 44.1875 
z
" id="DejaVuSans-109"/>
      <path d="M 18.109375 8.203125 
L 18.109375 -20.796875 
L 9.078125 -20.796875 
L 9.078125 54.6875 
L 18.109375 54.6875 
L 18.109375 46.390625 
Q 20.953125 51.265625 25.265625 53.625 
Q 29.59375 56 35.59375 56 
Q 45.5625 56 51.78125 48.09375 
Q 58.015625 40.1875 58.015625 27.296875 
Q 58.015625 14.40625 51.78125 6.484375 
Q 45.5625 -1.421875 35.59375 -1.421875 
Q 29.59375 -1.421875 25.265625 0.953125 
Q 20.953125 3.328125 18.109375 8.203125 
z
M 48.6875 27.296875 
Q 48.6875 37.203125 44.609375 42.84375 
Q 40.53125 48.484375 33.40625 48.484375 
Q 26.265625 48.484375 22.1875 42.84375 
Q 18.109375 37.203125 18.109375 27.296875 
Q 18.109375 17.390625 22.1875 11.75 
Q 26.265625 6.109375 33.40625 6.109375 
Q 40.53125 6.109375 44.609375 11.75 
Q 48.6875 17.390625 48.6875 27.296875 
z
" id="DejaVuSans-112"/>
     </defs>
     <g transform="translate(527.275613 27.298438)scale(0.1 -0.1)">
      <use xlink:href="#DejaVuSans-84"/>
      <use x="60.865234" xlink:href="#DejaVuSans-114"/>
      <use x="101.978516" xlink:href="#DejaVuSans-117"/>
      <use x="165.357422" xlink:href="#DejaVuSans-109"/>
      <use x="262.769531" xlink:href="#DejaVuSans-112"/>
     </g>
    </g>
   </g>
  </g>
  <g id="axes_2">
   <g id="patch_8">
    <path d="M 641.463756 516.96 
L 1139.470619 516.96 
L 1139.470619 10.7 
L 641.463756 10.7 
z
" style="fill:#ffffff;"/>
   </g>
   <g id="PathCollection_3">
    <defs>
     <path d="M 0 3 
C 0.795609 3 1.55874 2.683901 2.12132 2.12132 
C 2.683901 1.55874 3 0.795609 3 0 
C 3 -0.795609 2.683901 -1.55874 2.12132 -2.12132 
C 1.55874 -2.683901 0.795609 -3 0 -3 
C -0.795609 -3 -1.55874 -2.683901 -2.12132 -2.12132 
C -2.683901 -1.55874 -3 -0.795609 -3 0 
C -3 0.795609 -2.683901 1.55874 -2.12132 2.12132 
C -1.55874 2.683901 -0.795609 3 0 3 
z
" id="me4e1091595" style="stroke:#0000ff;"/>
    </defs>
    <g clip-path="url(#p0570fcc51f)">
     <use style="fill:#0000ff;stroke:#0000ff;" x="641.463756" xlink:href="#me4e1091595" y="494.92419"/>
     <use style="fill:#0000ff;stroke:#0000ff;" x="797.980199" xlink:href="#me4e1091595" y="513.362179"/>
     <use style="fill:#0000ff;stroke:#0000ff;" x="776.637047" xlink:href="#me4e1091595" y="494.255927"/>
     <use style="fill:#0000ff;stroke:#0000ff;" x="890.467188" xlink:href="#me4e1091595" y="421.236359"/>
     <use style="fill:#0000ff;stroke:#0000ff;" x="812.208966" xlink:href="#me4e1091595" y="448.949032"/>
     <use style="fill:#0000ff;stroke:#0000ff;" x="904.695955" xlink:href="#me4e1091595" y="498.015751"/>
     <use style="fill:#0000ff;stroke:#0000ff;" x="847.780885" xlink:href="#me4e1091595" y="502.322336"/>
     <use style="fill:#0000ff;stroke:#0000ff;" x="762.40828" xlink:href="#me4e1091595" y="396.47012"/>
     <use style="fill:#0000ff;stroke:#0000ff;" x="911.810339" xlink:href="#me4e1091595" y="491.326369"/>
     <use style="fill:#0000ff;stroke:#0000ff;" x="655.692524" xlink:href="#me4e1091595" y="377.107363"/>
     <use style="fill:#0000ff;stroke:#0000ff;" x="869.124036" xlink:href="#me4e1091595" y="417.395533"/>
     <use style="fill:#0000ff;stroke:#0000ff;" x="869.124036" xlink:href="#me4e1091595" y="457.646578"/>
     <use style="fill:#0000ff;stroke:#0000ff;" x="904.695955" xlink:href="#me4e1091595" y="485.163497"/>
     <use style="fill:#0000ff;stroke:#0000ff;" x="961.611025" xlink:href="#me4e1091595" y="498.47476"/>
     <use style="fill:#0000ff;stroke:#0000ff;" x="705.49321" xlink:href="#me4e1091595" y="422.019375"/>
     <use style="fill:#0000ff;stroke:#0000ff;" x="1061.212398" xlink:href="#me4e1091595" y="437.733685"/>
     <use style="fill:#0000ff;stroke:#0000ff;" x="719.721977" xlink:href="#me4e1091595" y="123.58923"/>
     <use style="fill:#0000ff;stroke:#0000ff;" x="982.954176" xlink:href="#me4e1091595" y="349.573569"/>
     <use style="fill:#0000ff;stroke:#0000ff;" x="677.035675" xlink:href="#me4e1091595" y="477.194965"/>
     <use style="fill:#0000ff;stroke:#0000ff;" x="904.695955" xlink:href="#me4e1091595" y="485.960013"/>
     <use style="fill:#0000ff;stroke:#0000ff;" x="826.437734" xlink:href="#me4e1091595" y="264.552264"/>
     <use style="fill:#0000ff;stroke:#0000ff;" x="705.49321" xlink:href="#me4e1091595" y="430.345664"/>
     <use style="fill:#0000ff;stroke:#0000ff;" x="790.865815" xlink:href="#me4e1091595" y="374.731316"/>
     <use style="fill:#0000ff;stroke:#0000ff;" x="719.721977" xlink:href="#me4e1091595" y="503.685863"/>
     <use style="fill:#0000ff;stroke:#0000ff;" x="876.23842" xlink:href="#me4e1091595" y="497.323862"/>
     <use style="fill:#0000ff;stroke:#0000ff;" x="933.15349" xlink:href="#me4e1091595" y="57.714679"/>
     <use style="fill:#0000ff;stroke:#0000ff;" x="883.352804" xlink:href="#me4e1091595" y="286.874955"/>
     <use style="fill:#0000ff;stroke:#0000ff;" x="947.382258" xlink:href="#me4e1091595" y="436.184529"/>
     <use style="fill:#0000ff;stroke:#0000ff;" x="1082.555549" xlink:href="#me4e1091595" y="445.374836"/>
     <use style="fill:#0000ff;stroke:#0000ff;" x="975.839793" xlink:href="#me4e1091595" y="504.560005"/>
     <use style="fill:#0000ff;stroke:#0000ff;" x="961.611025" xlink:href="#me4e1091595" y="484.07335"/>
     <use style="fill:#0000ff;stroke:#0000ff;" x="975.839793" xlink:href="#me4e1091595" y="434.770377"/>
     <use style="fill:#0000ff;stroke:#0000ff;" x="918.924723" xlink:href="#me4e1091595" y="501.066811"/>
     <use style="fill:#0000ff;stroke:#0000ff;" x="819.32335" xlink:href="#me4e1091595" y="461.416528"/>
     <use style="fill:#0000ff;stroke:#0000ff;" x="883.352804" xlink:href="#me4e1091595" y="491.734752"/>
     <use style="fill:#0000ff;stroke:#0000ff;" x="883.352804" xlink:href="#me4e1091595" y="465.05485"/>
     <use style="fill:#0000ff;stroke:#0000ff;" x="769.522664" xlink:href="#me4e1091595" y="463.06356"/>
     <use style="fill:#0000ff;stroke:#0000ff;" x="726.836361" xlink:href="#me4e1091595" y="475.69306"/>
     <use style="fill:#0000ff;stroke:#0000ff;" x="1025.640479" xlink:href="#me4e1091595" y="501.913953"/>
     <use style="fill:#0000ff;stroke:#0000ff;" x="862.009652" xlink:href="#me4e1091595" y="495.460825"/>
     <use style="fill:#0000ff;stroke:#0000ff;" x="975.839793" xlink:href="#me4e1091595" y="510.435996"/>
     <use style="fill:#0000ff;stroke:#0000ff;" x="790.865815" xlink:href="#me4e1091595" y="509.889235"/>
     <use style="fill:#0000ff;stroke:#0000ff;" x="854.895269" xlink:href="#me4e1091595" y="387.303439"/>
     <use style="fill:#0000ff;stroke:#0000ff;" x="748.179512" xlink:href="#me4e1091595" y="506.790924"/>
     <use style="fill:#0000ff;stroke:#0000ff;" x="748.179512" xlink:href="#me4e1091595" y="513.136049"/>
     <use style="fill:#0000ff;stroke:#0000ff;" x="918.924723" xlink:href="#me4e1091595" y="507.870945"/>
     <use style="fill:#0000ff;stroke:#0000ff;" x="805.094582" xlink:href="#me4e1091595" y="304.101295"/>
     <use style="fill:#0000ff;stroke:#0000ff;" x="783.751431" xlink:href="#me4e1091595" y="509.855485"/>
     <use style="fill:#0000ff;stroke:#0000ff;" x="833.552117" xlink:href="#me4e1091595" y="495.551952"/>
     <use style="fill:#0000ff;stroke:#0000ff;" x="655.692524" xlink:href="#me4e1091595" y="476.523326"/>
     <use style="fill:#0000ff;stroke:#0000ff;" x="926.039106" xlink:href="#me4e1091595" y="496.891854"/>
     <use style="fill:#0000ff;stroke:#0000ff;" x="783.751431" xlink:href="#me4e1091595" y="509.595605"/>
     <use style="fill:#0000ff;stroke:#0000ff;" x="876.23842" xlink:href="#me4e1091595" y="413.693085"/>
     <use style="fill:#0000ff;stroke:#0000ff;" x="869.124036" xlink:href="#me4e1091595" y="493.044278"/>
     <use style="fill:#0000ff;stroke:#0000ff;" x="783.751431" xlink:href="#me4e1091595" y="411.705171"/>
     <use style="fill:#0000ff;stroke:#0000ff;" x="797.980199" xlink:href="#me4e1091595" y="513.466806"/>
     <use style="fill:#0000ff;stroke:#0000ff;" x="783.751431" xlink:href="#me4e1091595" y="508.046449"/>
     <use style="fill:#0000ff;stroke:#0000ff;" x="755.293896" xlink:href="#me4e1091595" y="505.906657"/>
     <use style="fill:#0000ff;stroke:#0000ff;" x="655.692524" xlink:href="#me4e1091595" y="297.125033"/>
     <use style="fill:#0000ff;stroke:#0000ff;" x="826.437734" xlink:href="#me4e1091595" y="317.135803"/>
     <use style="fill:#0000ff;stroke:#0000ff;" x="741.065129" xlink:href="#me4e1091595" y="472.800628"/>
     <use style="fill:#0000ff;stroke:#0000ff;" x="691.264442" xlink:href="#me4e1091595" y="290.580778"/>
     <use style="fill:#0000ff;stroke:#0000ff;" x="968.725409" xlink:href="#me4e1091595" y="497.414989"/>
     <use style="fill:#0000ff;stroke:#0000ff;" x="819.32335" xlink:href="#me4e1091595" y="160.141202"/>
     <use style="fill:#0000ff;stroke:#0000ff;" x="918.924723" xlink:href="#me4e1091595" y="495.605953"/>
     <use style="fill:#0000ff;stroke:#0000ff;" x="748.179512" xlink:href="#me4e1091595" y="489.416081"/>
     <use style="fill:#0000ff;stroke:#0000ff;" x="712.607594" xlink:href="#me4e1091595" y="462.479674"/>
     <use style="fill:#0000ff;stroke:#0000ff;" x="954.496641" xlink:href="#me4e1091595" y="491.464746"/>
     <use style="fill:#0000ff;stroke:#0000ff;" x="655.692524" xlink:href="#me4e1091595" y="475.294802"/>
     <use style="fill:#0000ff;stroke:#0000ff;" x="748.179512" xlink:href="#me4e1091595" y="321.104881"/>
     <use style="fill:#0000ff;stroke:#0000ff;" x="684.150059" xlink:href="#me4e1091595" y="148.946106"/>
     <use style="fill:#0000ff;stroke:#0000ff;" x="783.751431" xlink:href="#me4e1091595" y="367.211667"/>
     <use style="fill:#0000ff;stroke:#0000ff;" x="805.094582" xlink:href="#me4e1091595" y="506.203663"/>
     <use style="fill:#0000ff;stroke:#0000ff;" x="733.950745" xlink:href="#me4e1091595" y="509.139971"/>
     <use style="fill:#0000ff;stroke:#0000ff;" x="691.264442" xlink:href="#me4e1091595" y="503.955868"/>
     <use style="fill:#0000ff;stroke:#0000ff;" x="869.124036" xlink:href="#me4e1091595" y="497.782871"/>
     <use style="fill:#0000ff;stroke:#0000ff;" x="940.267874" xlink:href="#me4e1091595" y="501.589946"/>
     <use style="fill:#0000ff;stroke:#0000ff;" x="677.035675" xlink:href="#me4e1091595" y="344.126211"/>
     <use style="fill:#0000ff;stroke:#0000ff;" x="690.822018" xlink:href="#me4e1091595" y="-1"/>
     <use style="fill:#0000ff;stroke:#0000ff;" x="816.192513" xlink:href="#me4e1091595" y="-1"/>
     <use style="fill:#0000ff;stroke:#0000ff;" x="904.695955" xlink:href="#me4e1091595" y="464.973848"/>
     <use style="fill:#0000ff;stroke:#0000ff;" x="726.836361" xlink:href="#me4e1091595" y="330.40319"/>
     <use style="fill:#0000ff;stroke:#0000ff;" x="748.179512" xlink:href="#me4e1091595" y="503.409107"/>
     <use style="fill:#0000ff;stroke:#0000ff;" x="1018.526095" xlink:href="#me4e1091595" y="487.124411"/>
     <use style="fill:#0000ff;stroke:#0000ff;" x="954.496641" xlink:href="#me4e1091595" y="508.215202"/>
     <use style="fill:#0000ff;stroke:#0000ff;" x="748.179512" xlink:href="#me4e1091595" y="501.151188"/>
     <use style="fill:#0000ff;stroke:#0000ff;" x="755.293896" xlink:href="#me4e1091595" y="293.530587"/>
     <use style="fill:#0000ff;stroke:#0000ff;" x="769.522664" xlink:href="#me4e1091595" y="501.154563"/>
     <use style="fill:#0000ff;stroke:#0000ff;" x="982.954176" xlink:href="#me4e1091595" y="457.724205"/>
     <use style="fill:#0000ff;stroke:#0000ff;" x="705.49321" xlink:href="#me4e1091595" y="490.691856"/>
     <use style="fill:#0000ff;stroke:#0000ff;" x="933.15349" xlink:href="#me4e1091595" y="510.942256"/>
     <use style="fill:#0000ff;stroke:#0000ff;" x="805.094582" xlink:href="#me4e1091595" y="380.813186"/>
     <use style="fill:#0000ff;stroke:#0000ff;" x="741.065129" xlink:href="#me4e1091595" y="469.38506"/>
     <use style="fill:#0000ff;stroke:#0000ff;" x="918.924723" xlink:href="#me4e1091595" y="498.599637"/>
     <use style="fill:#0000ff;stroke:#0000ff;" x="975.839793" xlink:href="#me4e1091595" y="476.995836"/>
     <use style="fill:#0000ff;stroke:#0000ff;" x="968.725409" xlink:href="#me4e1091595" y="496.750101"/>
     <use style="fill:#0000ff;stroke:#0000ff;" x="940.267874" xlink:href="#me4e1091595" y="503.901867"/>
     <use style="fill:#0000ff;stroke:#0000ff;" x="854.895269" xlink:href="#me4e1091595" y="497.354238"/>
     <use style="fill:#0000ff;stroke:#0000ff;" x="797.980199" xlink:href="#me4e1091595" y="391.205016"/>
     <use style="fill:#0000ff;stroke:#0000ff;" x="862.009652" xlink:href="#me4e1091595" y="486.641776"/>
     <use style="fill:#0000ff;stroke:#0000ff;" x="869.124036" xlink:href="#me4e1091595" y="445.756219"/>
    </g>
   </g>
   <g id="matplotlib.axis_3">
    <g id="xtick_9">
     <g id="line2d_18">
      <g>
       <use style="stroke:#000000;stroke-width:0.8;" x="641.463756" xlink:href="#ma0fb760b51" y="516.96"/>
      </g>
     </g>
     <g id="text_19">
      <!-- 0 -->
      <g transform="translate(638.282506 531.558438)scale(0.1 -0.1)">
       <use xlink:href="#DejaVuSans-48"/>
      </g>
     </g>
    </g>
    <g id="xtick_10">
     <g id="line2d_19">
      <g>
       <use style="stroke:#000000;stroke-width:0.8;" x="712.607594" xlink:href="#ma0fb760b51" y="516.96"/>
      </g>
     </g>
     <g id="text_20">
      <!-- 10 -->
      <g transform="translate(706.245094 531.558438)scale(0.1 -0.1)">
       <use xlink:href="#DejaVuSans-49"/>
       <use x="63.623047" xlink:href="#DejaVuSans-48"/>
      </g>
     </g>
    </g>
    <g id="xtick_11">
     <g id="line2d_20">
      <g>
       <use style="stroke:#000000;stroke-width:0.8;" x="783.751431" xlink:href="#ma0fb760b51" y="516.96"/>
      </g>
     </g>
     <g id="text_21">
      <!-- 20 -->
      <g transform="translate(777.388931 531.558438)scale(0.1 -0.1)">
       <use xlink:href="#DejaVuSans-50"/>
       <use x="63.623047" xlink:href="#DejaVuSans-48"/>
      </g>
     </g>
    </g>
    <g id="xtick_12">
     <g id="line2d_21">
      <g>
       <use style="stroke:#000000;stroke-width:0.8;" x="854.895269" xlink:href="#ma0fb760b51" y="516.96"/>
      </g>
     </g>
     <g id="text_22">
      <!-- 30 -->
      <g transform="translate(848.532769 531.558438)scale(0.1 -0.1)">
       <use xlink:href="#DejaVuSans-51"/>
       <use x="63.623047" xlink:href="#DejaVuSans-48"/>
      </g>
     </g>
    </g>
    <g id="xtick_13">
     <g id="line2d_22">
      <g>
       <use style="stroke:#000000;stroke-width:0.8;" x="926.039106" xlink:href="#ma0fb760b51" y="516.96"/>
      </g>
     </g>
     <g id="text_23">
      <!-- 40 -->
      <g transform="translate(919.676606 531.558438)scale(0.1 -0.1)">
       <use xlink:href="#DejaVuSans-52"/>
       <use x="63.623047" xlink:href="#DejaVuSans-48"/>
      </g>
     </g>
    </g>
    <g id="xtick_14">
     <g id="line2d_23">
      <g>
       <use style="stroke:#000000;stroke-width:0.8;" x="997.182944" xlink:href="#ma0fb760b51" y="516.96"/>
      </g>
     </g>
     <g id="text_24">
      <!-- 50 -->
      <g transform="translate(990.820444 531.558438)scale(0.1 -0.1)">
       <use xlink:href="#DejaVuSans-53"/>
       <use x="63.623047" xlink:href="#DejaVuSans-48"/>
      </g>
     </g>
    </g>
    <g id="xtick_15">
     <g id="line2d_24">
      <g>
       <use style="stroke:#000000;stroke-width:0.8;" x="1068.326781" xlink:href="#ma0fb760b51" y="516.96"/>
      </g>
     </g>
     <g id="text_25">
      <!-- 60 -->
      <g transform="translate(1061.964281 531.558438)scale(0.1 -0.1)">
       <use xlink:href="#DejaVuSans-54"/>
       <use x="63.623047" xlink:href="#DejaVuSans-48"/>
      </g>
     </g>
    </g>
    <g id="xtick_16">
     <g id="line2d_25">
      <g>
       <use style="stroke:#000000;stroke-width:0.8;" x="1139.470619" xlink:href="#ma0fb760b51" y="516.96"/>
      </g>
     </g>
     <g id="text_26">
      <!-- 70 -->
      <g transform="translate(1133.108119 531.558438)scale(0.1 -0.1)">
       <use xlink:href="#DejaVuSans-55"/>
       <use x="63.623047" xlink:href="#DejaVuSans-48"/>
      </g>
     </g>
    </g>
    <g id="text_27">
     <!-- Number of Words -->
     <defs>
      <path d="M 9.8125 72.90625 
L 23.09375 72.90625 
L 55.421875 11.921875 
L 55.421875 72.90625 
L 64.984375 72.90625 
L 64.984375 0 
L 51.703125 0 
L 19.390625 60.984375 
L 19.390625 0 
L 9.8125 0 
z
" id="DejaVuSans-78"/>
      <path d="M 48.6875 27.296875 
Q 48.6875 37.203125 44.609375 42.84375 
Q 40.53125 48.484375 33.40625 48.484375 
Q 26.265625 48.484375 22.1875 42.84375 
Q 18.109375 37.203125 18.109375 27.296875 
Q 18.109375 17.390625 22.1875 11.75 
Q 26.265625 6.109375 33.40625 6.109375 
Q 40.53125 6.109375 44.609375 11.75 
Q 48.6875 17.390625 48.6875 27.296875 
z
M 18.109375 46.390625 
Q 20.953125 51.265625 25.265625 53.625 
Q 29.59375 56 35.59375 56 
Q 45.5625 56 51.78125 48.09375 
Q 58.015625 40.1875 58.015625 27.296875 
Q 58.015625 14.40625 51.78125 6.484375 
Q 45.5625 -1.421875 35.59375 -1.421875 
Q 29.59375 -1.421875 25.265625 0.953125 
Q 20.953125 3.328125 18.109375 8.203125 
L 18.109375 0 
L 9.078125 0 
L 9.078125 75.984375 
L 18.109375 75.984375 
z
" id="DejaVuSans-98"/>
      <path d="M 30.609375 48.390625 
Q 23.390625 48.390625 19.1875 42.75 
Q 14.984375 37.109375 14.984375 27.296875 
Q 14.984375 17.484375 19.15625 11.84375 
Q 23.34375 6.203125 30.609375 6.203125 
Q 37.796875 6.203125 41.984375 11.859375 
Q 46.1875 17.53125 46.1875 27.296875 
Q 46.1875 37.015625 41.984375 42.703125 
Q 37.796875 48.390625 30.609375 48.390625 
z
M 30.609375 56 
Q 42.328125 56 49.015625 48.375 
Q 55.71875 40.765625 55.71875 27.296875 
Q 55.71875 13.875 49.015625 6.21875 
Q 42.328125 -1.421875 30.609375 -1.421875 
Q 18.84375 -1.421875 12.171875 6.21875 
Q 5.515625 13.875 5.515625 27.296875 
Q 5.515625 40.765625 12.171875 48.375 
Q 18.84375 56 30.609375 56 
z
" id="DejaVuSans-111"/>
      <path d="M 37.109375 75.984375 
L 37.109375 68.5 
L 28.515625 68.5 
Q 23.6875 68.5 21.796875 66.546875 
Q 19.921875 64.59375 19.921875 59.515625 
L 19.921875 54.6875 
L 34.71875 54.6875 
L 34.71875 47.703125 
L 19.921875 47.703125 
L 19.921875 0 
L 10.890625 0 
L 10.890625 47.703125 
L 2.296875 47.703125 
L 2.296875 54.6875 
L 10.890625 54.6875 
L 10.890625 58.5 
Q 10.890625 67.625 15.140625 71.796875 
Q 19.390625 75.984375 28.609375 75.984375 
z
" id="DejaVuSans-102"/>
      <path d="M 3.328125 72.90625 
L 13.28125 72.90625 
L 28.609375 11.28125 
L 43.890625 72.90625 
L 54.984375 72.90625 
L 70.3125 11.28125 
L 85.59375 72.90625 
L 95.609375 72.90625 
L 77.296875 0 
L 64.890625 0 
L 49.515625 63.28125 
L 33.984375 0 
L 21.578125 0 
z
" id="DejaVuSans-87"/>
      <path d="M 45.40625 46.390625 
L 45.40625 75.984375 
L 54.390625 75.984375 
L 54.390625 0 
L 45.40625 0 
L 45.40625 8.203125 
Q 42.578125 3.328125 38.25 0.953125 
Q 33.9375 -1.421875 27.875 -1.421875 
Q 17.96875 -1.421875 11.734375 6.484375 
Q 5.515625 14.40625 5.515625 27.296875 
Q 5.515625 40.1875 11.734375 48.09375 
Q 17.96875 56 27.875 56 
Q 33.9375 56 38.25 53.625 
Q 42.578125 51.265625 45.40625 46.390625 
z
M 14.796875 27.296875 
Q 14.796875 17.390625 18.875 11.75 
Q 22.953125 6.109375 30.078125 6.109375 
Q 37.203125 6.109375 41.296875 11.75 
Q 45.40625 17.390625 45.40625 27.296875 
Q 45.40625 37.203125 41.296875 42.84375 
Q 37.203125 48.484375 30.078125 48.484375 
Q 22.953125 48.484375 18.875 42.84375 
Q 14.796875 37.203125 14.796875 27.296875 
z
" id="DejaVuSans-100"/>
      <path d="M 44.28125 53.078125 
L 44.28125 44.578125 
Q 40.484375 46.53125 36.375 47.5 
Q 32.28125 48.484375 27.875 48.484375 
Q 21.1875 48.484375 17.84375 46.4375 
Q 14.5 44.390625 14.5 40.28125 
Q 14.5 37.15625 16.890625 35.375 
Q 19.28125 33.59375 26.515625 31.984375 
L 29.59375 31.296875 
Q 39.15625 29.25 43.1875 25.515625 
Q 47.21875 21.78125 47.21875 15.09375 
Q 47.21875 7.46875 41.1875 3.015625 
Q 35.15625 -1.421875 24.609375 -1.421875 
Q 20.21875 -1.421875 15.453125 -0.5625 
Q 10.6875 0.296875 5.421875 2 
L 5.421875 11.28125 
Q 10.40625 8.6875 15.234375 7.390625 
Q 20.0625 6.109375 24.8125 6.109375 
Q 31.15625 6.109375 34.5625 8.28125 
Q 37.984375 10.453125 37.984375 14.40625 
Q 37.984375 18.0625 35.515625 20.015625 
Q 33.0625 21.96875 24.703125 23.78125 
L 21.578125 24.515625 
Q 13.234375 26.265625 9.515625 29.90625 
Q 5.8125 33.546875 5.8125 39.890625 
Q 5.8125 47.609375 11.28125 51.796875 
Q 16.75 56 26.8125 56 
Q 31.78125 56 36.171875 55.265625 
Q 40.578125 54.546875 44.28125 53.078125 
z
" id="DejaVuSans-115"/>
     </defs>
     <g transform="translate(824.592578 549.035781)scale(0.15 -0.15)">
      <use xlink:href="#DejaVuSans-78"/>
      <use x="74.804688" xlink:href="#DejaVuSans-117"/>
      <use x="138.183594" xlink:href="#DejaVuSans-109"/>
      <use x="235.595703" xlink:href="#DejaVuSans-98"/>
      <use x="299.072266" xlink:href="#DejaVuSans-101"/>
      <use x="360.595703" xlink:href="#DejaVuSans-114"/>
      <use x="401.708984" xlink:href="#DejaVuSans-32"/>
      <use x="433.496094" xlink:href="#DejaVuSans-111"/>
      <use x="494.677734" xlink:href="#DejaVuSans-102"/>
      <use x="529.882812" xlink:href="#DejaVuSans-32"/>
      <use x="561.669922" xlink:href="#DejaVuSans-87"/>
      <use x="660.46875" xlink:href="#DejaVuSans-111"/>
      <use x="721.650391" xlink:href="#DejaVuSans-114"/>
      <use x="762.748047" xlink:href="#DejaVuSans-100"/>
      <use x="826.224609" xlink:href="#DejaVuSans-115"/>
     </g>
    </g>
   </g>
   <g id="matplotlib.axis_4">
    <g id="ytick_9">
     <g id="line2d_26">
      <g>
       <use style="stroke:#000000;stroke-width:0.8;" x="641.463756" xlink:href="#m941eced87b" y="516.96"/>
      </g>
     </g>
     <g id="text_28">
      <!-- 0 -->
      <g transform="translate(628.101256 520.759219)scale(0.1 -0.1)">
       <use xlink:href="#DejaVuSans-48"/>
      </g>
     </g>
    </g>
    <g id="ytick_10">
     <g id="line2d_27">
      <g>
       <use style="stroke:#000000;stroke-width:0.8;" x="641.463756" xlink:href="#m941eced87b" y="449.458667"/>
      </g>
     </g>
     <g id="text_29">
      <!-- 20000 -->
      <g transform="translate(602.651256 453.257885)scale(0.1 -0.1)">
       <use xlink:href="#DejaVuSans-50"/>
       <use x="63.623047" xlink:href="#DejaVuSans-48"/>
       <use x="127.246094" xlink:href="#DejaVuSans-48"/>
       <use x="190.869141" xlink:href="#DejaVuSans-48"/>
       <use x="254.492188" xlink:href="#DejaVuSans-48"/>
      </g>
     </g>
    </g>
    <g id="ytick_11">
     <g id="line2d_28">
      <g>
       <use style="stroke:#000000;stroke-width:0.8;" x="641.463756" xlink:href="#m941eced87b" y="381.957333"/>
      </g>
     </g>
     <g id="text_30">
      <!-- 40000 -->
      <g transform="translate(602.651256 385.756552)scale(0.1 -0.1)">
       <use xlink:href="#DejaVuSans-52"/>
       <use x="63.623047" xlink:href="#DejaVuSans-48"/>
       <use x="127.246094" xlink:href="#DejaVuSans-48"/>
       <use x="190.869141" xlink:href="#DejaVuSans-48"/>
       <use x="254.492188" xlink:href="#DejaVuSans-48"/>
      </g>
     </g>
    </g>
    <g id="ytick_12">
     <g id="line2d_29">
      <g>
       <use style="stroke:#000000;stroke-width:0.8;" x="641.463756" xlink:href="#m941eced87b" y="314.456"/>
      </g>
     </g>
     <g id="text_31">
      <!-- 60000 -->
      <g transform="translate(602.651256 318.255219)scale(0.1 -0.1)">
       <use xlink:href="#DejaVuSans-54"/>
       <use x="63.623047" xlink:href="#DejaVuSans-48"/>
       <use x="127.246094" xlink:href="#DejaVuSans-48"/>
       <use x="190.869141" xlink:href="#DejaVuSans-48"/>
       <use x="254.492188" xlink:href="#DejaVuSans-48"/>
      </g>
     </g>
    </g>
    <g id="ytick_13">
     <g id="line2d_30">
      <g>
       <use style="stroke:#000000;stroke-width:0.8;" x="641.463756" xlink:href="#m941eced87b" y="246.954667"/>
      </g>
     </g>
     <g id="text_32">
      <!-- 80000 -->
      <g transform="translate(602.651256 250.753885)scale(0.1 -0.1)">
       <use xlink:href="#DejaVuSans-56"/>
       <use x="63.623047" xlink:href="#DejaVuSans-48"/>
       <use x="127.246094" xlink:href="#DejaVuSans-48"/>
       <use x="190.869141" xlink:href="#DejaVuSans-48"/>
       <use x="254.492188" xlink:href="#DejaVuSans-48"/>
      </g>
     </g>
    </g>
    <g id="ytick_14">
     <g id="line2d_31">
      <g>
       <use style="stroke:#000000;stroke-width:0.8;" x="641.463756" xlink:href="#m941eced87b" y="179.453333"/>
      </g>
     </g>
     <g id="text_33">
      <!-- 100000 -->
      <g transform="translate(596.288756 183.252552)scale(0.1 -0.1)">
       <use xlink:href="#DejaVuSans-49"/>
       <use x="63.623047" xlink:href="#DejaVuSans-48"/>
       <use x="127.246094" xlink:href="#DejaVuSans-48"/>
       <use x="190.869141" xlink:href="#DejaVuSans-48"/>
       <use x="254.492188" xlink:href="#DejaVuSans-48"/>
       <use x="318.115234" xlink:href="#DejaVuSans-48"/>
      </g>
     </g>
    </g>
    <g id="ytick_15">
     <g id="line2d_32">
      <g>
       <use style="stroke:#000000;stroke-width:0.8;" x="641.463756" xlink:href="#m941eced87b" y="111.952"/>
      </g>
     </g>
     <g id="text_34">
      <!-- 120000 -->
      <g transform="translate(596.288756 115.751219)scale(0.1 -0.1)">
       <use xlink:href="#DejaVuSans-49"/>
       <use x="63.623047" xlink:href="#DejaVuSans-50"/>
       <use x="127.246094" xlink:href="#DejaVuSans-48"/>
       <use x="190.869141" xlink:href="#DejaVuSans-48"/>
       <use x="254.492188" xlink:href="#DejaVuSans-48"/>
       <use x="318.115234" xlink:href="#DejaVuSans-48"/>
      </g>
     </g>
    </g>
    <g id="ytick_16">
     <g id="line2d_33">
      <g>
       <use style="stroke:#000000;stroke-width:0.8;" x="641.463756" xlink:href="#m941eced87b" y="44.450667"/>
      </g>
     </g>
     <g id="text_35">
      <!-- 140000 -->
      <g transform="translate(596.288756 48.249885)scale(0.1 -0.1)">
       <use xlink:href="#DejaVuSans-49"/>
       <use x="63.623047" xlink:href="#DejaVuSans-52"/>
       <use x="127.246094" xlink:href="#DejaVuSans-48"/>
       <use x="190.869141" xlink:href="#DejaVuSans-48"/>
       <use x="254.492188" xlink:href="#DejaVuSans-48"/>
       <use x="318.115234" xlink:href="#DejaVuSans-48"/>
      </g>
     </g>
    </g>
   </g>
   <g id="line2d_34">
    <path clip-path="url(#p0570fcc51f)" d="M 641.463756 375.281795 
L 651.627161 376.660842 
L 661.790567 378.415527 
L 671.953972 380.518794 
L 682.117378 382.943586 
L 692.280783 385.662845 
L 702.444188 388.649517 
L 712.607594 391.876543 
L 722.770999 395.316867 
L 732.934404 398.943433 
L 743.09781 402.729183 
L 753.261215 406.647062 
L 763.42462 410.670013 
L 773.588026 414.770978 
L 783.751431 418.922902 
L 793.914837 423.098727 
L 804.078242 427.271397 
L 814.241647 431.413855 
L 824.405053 435.499046 
L 834.568458 439.499911 
L 844.731863 443.389394 
L 854.895269 447.140439 
L 865.058674 450.725989 
L 875.222079 454.118987 
L 885.385485 457.292377 
L 895.54889 460.219102 
L 905.712296 462.872105 
L 915.875701 465.22433 
L 926.039106 467.24872 
L 936.202512 468.918219 
L 946.365917 470.205769 
L 956.529322 471.084314 
L 966.692728 471.526798 
L 976.856133 471.506163 
L 987.019538 470.995353 
L 997.182944 469.967312 
L 1007.346349 468.394983 
L 1017.509755 466.251309 
L 1027.67316 463.509233 
L 1037.836565 460.141699 
L 1047.999971 456.121651 
L 1058.163376 451.42203 
L 1068.326781 446.015782 
L 1078.490187 439.875849 
L 1088.653592 432.975174 
L 1098.816997 425.286701 
L 1108.980403 416.783374 
L 1119.143808 407.438135 
L 1129.307214 397.223928 
L 1139.470619 386.113696 
" style="fill:none;stroke:#1f77b4;stroke-linecap:square;stroke-width:1.5;"/>
   </g>
   <g id="patch_9">
    <path d="M 641.463756 516.96 
L 641.463756 10.7 
" style="fill:none;stroke:#000000;stroke-linecap:square;stroke-linejoin:miter;stroke-width:0.8;"/>
   </g>
   <g id="patch_10">
    <path d="M 1139.470619 516.96 
L 1139.470619 10.7 
" style="fill:none;stroke:#000000;stroke-linecap:square;stroke-linejoin:miter;stroke-width:0.8;"/>
   </g>
   <g id="patch_11">
    <path d="M 641.463756 516.96 
L 1139.470619 516.96 
" style="fill:none;stroke:#000000;stroke-linecap:square;stroke-linejoin:miter;stroke-width:0.8;"/>
   </g>
   <g id="patch_12">
    <path d="M 641.463756 10.7 
L 1139.470619 10.7 
" style="fill:none;stroke:#000000;stroke-linecap:square;stroke-linejoin:miter;stroke-width:0.8;"/>
   </g>
   <g id="legend_2">
    <g id="patch_13">
     <path d="M 1071.992494 33.378125 
L 1132.470619 33.378125 
Q 1134.470619 33.378125 1134.470619 31.378125 
L 1134.470619 17.7 
Q 1134.470619 15.7 1132.470619 15.7 
L 1071.992494 15.7 
Q 1069.992494 15.7 1069.992494 17.7 
L 1069.992494 31.378125 
Q 1069.992494 33.378125 1071.992494 33.378125 
z
" style="fill:#ffffff;opacity:0.8;stroke:#cccccc;stroke-linejoin:miter;"/>
    </g>
    <g id="PathCollection_4">
     <g>
      <use style="fill:#0000ff;stroke:#0000ff;" x="1083.992494" xlink:href="#me4e1091595" y="24.673438"/>
     </g>
    </g>
    <g id="text_36">
     <!-- Biden -->
     <defs>
      <path d="M 19.671875 34.8125 
L 19.671875 8.109375 
L 35.5 8.109375 
Q 43.453125 8.109375 47.28125 11.40625 
Q 51.125 14.703125 51.125 21.484375 
Q 51.125 28.328125 47.28125 31.5625 
Q 43.453125 34.8125 35.5 34.8125 
z
M 19.671875 64.796875 
L 19.671875 42.828125 
L 34.28125 42.828125 
Q 41.5 42.828125 45.03125 45.53125 
Q 48.578125 48.25 48.578125 53.8125 
Q 48.578125 59.328125 45.03125 62.0625 
Q 41.5 64.796875 34.28125 64.796875 
z
M 9.8125 72.90625 
L 35.015625 72.90625 
Q 46.296875 72.90625 52.390625 68.21875 
Q 58.5 63.53125 58.5 54.890625 
Q 58.5 48.1875 55.375 44.234375 
Q 52.25 40.28125 46.1875 39.3125 
Q 53.46875 37.75 57.5 32.78125 
Q 61.53125 27.828125 61.53125 20.40625 
Q 61.53125 10.640625 54.890625 5.3125 
Q 48.25 0 35.984375 0 
L 9.8125 0 
z
" id="DejaVuSans-66"/>
      <path d="M 9.421875 54.6875 
L 18.40625 54.6875 
L 18.40625 0 
L 9.421875 0 
z
M 9.421875 75.984375 
L 18.40625 75.984375 
L 18.40625 64.59375 
L 9.421875 64.59375 
z
" id="DejaVuSans-105"/>
      <path d="M 54.890625 33.015625 
L 54.890625 0 
L 45.90625 0 
L 45.90625 32.71875 
Q 45.90625 40.484375 42.875 44.328125 
Q 39.84375 48.1875 33.796875 48.1875 
Q 26.515625 48.1875 22.3125 43.546875 
Q 18.109375 38.921875 18.109375 30.90625 
L 18.109375 0 
L 9.078125 0 
L 9.078125 54.6875 
L 18.109375 54.6875 
L 18.109375 46.1875 
Q 21.34375 51.125 25.703125 53.5625 
Q 30.078125 56 35.796875 56 
Q 45.21875 56 50.046875 50.171875 
Q 54.890625 44.34375 54.890625 33.015625 
z
" id="DejaVuSans-110"/>
     </defs>
     <g transform="translate(1101.992494 27.298438)scale(0.1 -0.1)">
      <use xlink:href="#DejaVuSans-66"/>
      <use x="68.603516" xlink:href="#DejaVuSans-105"/>
      <use x="96.386719" xlink:href="#DejaVuSans-100"/>
      <use x="159.863281" xlink:href="#DejaVuSans-101"/>
      <use x="221.386719" xlink:href="#DejaVuSans-110"/>
     </g>
    </g>
   </g>
  </g>
  <g id="axes_3">
   <g id="patch_14">
    <path d="M 1212.035325 516.96 
L 1710.042187 516.96 
L 1710.042187 10.7 
L 1212.035325 10.7 
z
" style="fill:#ffffff;"/>
   </g>
   <g id="PathCollection_5">
    <defs>
     <path d="M 0 3 
C 0.795609 3 1.55874 2.683901 2.12132 2.12132 
C 2.683901 1.55874 3 0.795609 3 0 
C 3 -0.795609 2.683901 -1.55874 2.12132 -2.12132 
C 1.55874 -2.683901 0.795609 -3 0 -3 
C -0.795609 -3 -1.55874 -2.683901 -2.12132 -2.12132 
C -2.683901 -1.55874 -3 -0.795609 -3 0 
C -3 0.795609 -2.683901 1.55874 -2.12132 2.12132 
C -1.55874 2.683901 -0.795609 3 0 3 
z
" id="ma3d40a6207" style="stroke:#008000;"/>
    </defs>
    <g clip-path="url(#p35e8c6cc67)">
     <use style="fill:#008000;stroke:#008000;" x="1361.437384" xlink:href="#ma3d40a6207" y="512.660165"/>
     <use style="fill:#008000;stroke:#008000;" x="1404.123686" xlink:href="#ma3d40a6207" y="516.585368"/>
     <use style="fill:#008000;stroke:#008000;" x="1347.208616" xlink:href="#ma3d40a6207" y="516.949875"/>
     <use style="fill:#008000;stroke:#008000;" x="1354.323" xlink:href="#ma3d40a6207" y="516.895874"/>
     <use style="fill:#008000;stroke:#008000;" x="1361.437384" xlink:href="#ma3d40a6207" y="516.848623"/>
     <use style="fill:#008000;stroke:#008000;" x="1276.064779" xlink:href="#ma3d40a6207" y="516.96"/>
     <use style="fill:#008000;stroke:#008000;" x="1361.437384" xlink:href="#ma3d40a6207" y="511.090759"/>
     <use style="fill:#008000;stroke:#008000;" x="1268.950395" xlink:href="#ma3d40a6207" y="516.95325"/>
     <use style="fill:#008000;stroke:#008000;" x="1325.865465" xlink:href="#ma3d40a6207" y="510.405621"/>
     <use style="fill:#008000;stroke:#008000;" x="1332.979849" xlink:href="#ma3d40a6207" y="516.902624"/>
     <use style="fill:#008000;stroke:#008000;" x="1461.038756" xlink:href="#ma3d40a6207" y="516.96"/>
     <use style="fill:#008000;stroke:#008000;" x="1375.666151" xlink:href="#ma3d40a6207" y="512.494787"/>
     <use style="fill:#008000;stroke:#008000;" x="1354.323" xlink:href="#ma3d40a6207" y="516.865498"/>
     <use style="fill:#008000;stroke:#008000;" x="1418.352454" xlink:href="#ma3d40a6207" y="516.96"/>
     <use style="fill:#008000;stroke:#008000;" x="1347.208616" xlink:href="#ma3d40a6207" y="515.157714"/>
     <use style="fill:#008000;stroke:#008000;" x="1304.522314" xlink:href="#ma3d40a6207" y="516.902624"/>
     <use style="fill:#008000;stroke:#008000;" x="1361.437384" xlink:href="#ma3d40a6207" y="512.950421"/>
     <use style="fill:#008000;stroke:#008000;" x="1361.437384" xlink:href="#ma3d40a6207" y="514.533327"/>
     <use style="fill:#008000;stroke:#008000;" x="1311.636697" xlink:href="#ma3d40a6207" y="516.565117"/>
     <use style="fill:#008000;stroke:#008000;" x="1354.323" xlink:href="#ma3d40a6207" y="466.279999"/>
     <use style="fill:#008000;stroke:#008000;" x="1347.208616" xlink:href="#ma3d40a6207" y="516.949875"/>
     <use style="fill:#008000;stroke:#008000;" x="1368.551767" xlink:href="#ma3d40a6207" y="516.136484"/>
     <use style="fill:#008000;stroke:#008000;" x="1382.780535" xlink:href="#ma3d40a6207" y="512.481287"/>
     <use style="fill:#008000;stroke:#008000;" x="1368.551767" xlink:href="#ma3d40a6207" y="516.96"/>
     <use style="fill:#008000;stroke:#008000;" x="1375.666151" xlink:href="#ma3d40a6207" y="513.041548"/>
     <use style="fill:#008000;stroke:#008000;" x="1368.551767" xlink:href="#ma3d40a6207" y="511.634145"/>
     <use style="fill:#008000;stroke:#008000;" x="1368.551767" xlink:href="#ma3d40a6207" y="511.634145"/>
     <use style="fill:#008000;stroke:#008000;" x="1340.094232" xlink:href="#ma3d40a6207" y="509.004968"/>
     <use style="fill:#008000;stroke:#008000;" x="1354.323" xlink:href="#ma3d40a6207" y="504.161747"/>
     <use style="fill:#008000;stroke:#008000;" x="1461.038756" xlink:href="#ma3d40a6207" y="516.96"/>
     <use style="fill:#008000;stroke:#008000;" x="1567.754512" xlink:href="#ma3d40a6207" y="516.96"/>
     <use style="fill:#008000;stroke:#008000;" x="1347.208616" xlink:href="#ma3d40a6207" y="516.96"/>
     <use style="fill:#008000;stroke:#008000;" x="1361.437384" xlink:href="#ma3d40a6207" y="516.956625"/>
     <use style="fill:#008000;stroke:#008000;" x="1361.437384" xlink:href="#ma3d40a6207" y="512.950421"/>
     <use style="fill:#008000;stroke:#008000;" x="1375.666151" xlink:href="#ma3d40a6207" y="516.9465"/>
     <use style="fill:#008000;stroke:#008000;" x="1361.437384" xlink:href="#ma3d40a6207" y="511.090759"/>
     <use style="fill:#008000;stroke:#008000;" x="1368.551767" xlink:href="#ma3d40a6207" y="511.640895"/>
     <use style="fill:#008000;stroke:#008000;" x="1354.323" xlink:href="#ma3d40a6207" y="516.912749"/>
     <use style="fill:#008000;stroke:#008000;" x="1247.607244" xlink:href="#ma3d40a6207" y="516.96"/>
     <use style="fill:#008000;stroke:#008000;" x="1361.437384" xlink:href="#ma3d40a6207" y="516.328863"/>
     <use style="fill:#008000;stroke:#008000;" x="1347.208616" xlink:href="#ma3d40a6207" y="516.949875"/>
     <use style="fill:#008000;stroke:#008000;" x="1325.865465" xlink:href="#ma3d40a6207" y="516.96"/>
     <use style="fill:#008000;stroke:#008000;" x="1268.950395" xlink:href="#ma3d40a6207" y="516.95325"/>
     <use style="fill:#008000;stroke:#008000;" x="1325.865465" xlink:href="#ma3d40a6207" y="516.868873"/>
     <use style="fill:#008000;stroke:#008000;" x="1361.437384" xlink:href="#ma3d40a6207" y="512.660165"/>
     <use style="fill:#008000;stroke:#008000;" x="1368.551767" xlink:href="#ma3d40a6207" y="516.96"/>
     <use style="fill:#008000;stroke:#008000;" x="1290.293546" xlink:href="#ma3d40a6207" y="516.480741"/>
     <use style="fill:#008000;stroke:#008000;" x="1340.094232" xlink:href="#ma3d40a6207" y="516.912749"/>
     <use style="fill:#008000;stroke:#008000;" x="1311.636697" xlink:href="#ma3d40a6207" y="516.565117"/>
     <use style="fill:#008000;stroke:#008000;" x="1318.751081" xlink:href="#ma3d40a6207" y="516.96"/>
     <use style="fill:#008000;stroke:#008000;" x="1361.437384" xlink:href="#ma3d40a6207" y="511.090759"/>
     <use style="fill:#008000;stroke:#008000;" x="1361.437384" xlink:href="#ma3d40a6207" y="507.060929"/>
     <use style="fill:#008000;stroke:#008000;" x="1525.06821" xlink:href="#ma3d40a6207" y="516.96"/>
     <use style="fill:#008000;stroke:#008000;" x="1332.979849" xlink:href="#ma3d40a6207" y="516.95325"/>
     <use style="fill:#008000;stroke:#008000;" x="1354.323" xlink:href="#ma3d40a6207" y="504.161747"/>
     <use style="fill:#008000;stroke:#008000;" x="1361.437384" xlink:href="#ma3d40a6207" y="512.950421"/>
     <use style="fill:#008000;stroke:#008000;" x="1375.666151" xlink:href="#ma3d40a6207" y="516.95325"/>
     <use style="fill:#008000;stroke:#008000;" x="1361.437384" xlink:href="#ma3d40a6207" y="516.72037"/>
     <use style="fill:#008000;stroke:#008000;" x="1361.437384" xlink:href="#ma3d40a6207" y="512.950421"/>
     <use style="fill:#008000;stroke:#008000;" x="1539.296977" xlink:href="#ma3d40a6207" y="516.96"/>
     <use style="fill:#008000;stroke:#008000;" x="1375.666151" xlink:href="#ma3d40a6207" y="512.494787"/>
     <use style="fill:#008000;stroke:#008000;" x="1368.551767" xlink:href="#ma3d40a6207" y="516.791247"/>
     <use style="fill:#008000;stroke:#008000;" x="1404.123686" xlink:href="#ma3d40a6207" y="516.9465"/>
     <use style="fill:#008000;stroke:#008000;" x="1297.40793" xlink:href="#ma3d40a6207" y="516.922874"/>
     <use style="fill:#008000;stroke:#008000;" x="1361.437384" xlink:href="#ma3d40a6207" y="511.090759"/>
     <use style="fill:#008000;stroke:#008000;" x="1354.323" xlink:href="#ma3d40a6207" y="516.416614"/>
     <use style="fill:#008000;stroke:#008000;" x="1325.865465" xlink:href="#ma3d40a6207" y="516.872248"/>
     <use style="fill:#008000;stroke:#008000;" x="1375.666151" xlink:href="#ma3d40a6207" y="516.750746"/>
     <use style="fill:#008000;stroke:#008000;" x="1347.208616" xlink:href="#ma3d40a6207" y="516.9465"/>
     <use style="fill:#008000;stroke:#008000;" x="1368.551767" xlink:href="#ma3d40a6207" y="511.64427"/>
     <use style="fill:#008000;stroke:#008000;" x="1525.06821" xlink:href="#ma3d40a6207" y="516.96"/>
     <use style="fill:#008000;stroke:#008000;" x="1361.437384" xlink:href="#ma3d40a6207" y="516.328863"/>
     <use style="fill:#008000;stroke:#008000;" x="1368.551767" xlink:href="#ma3d40a6207" y="511.64427"/>
     <use style="fill:#008000;stroke:#008000;" x="1325.865465" xlink:href="#ma3d40a6207" y="516.615743"/>
     <use style="fill:#008000;stroke:#008000;" x="1468.15314" xlink:href="#ma3d40a6207" y="516.96"/>
     <use style="fill:#008000;stroke:#008000;" x="1482.381907" xlink:href="#ma3d40a6207" y="516.96"/>
     <use style="fill:#008000;stroke:#008000;" x="1233.378476" xlink:href="#ma3d40a6207" y="516.956625"/>
     <use style="fill:#008000;stroke:#008000;" x="1510.839442" xlink:href="#ma3d40a6207" y="516.96"/>
     <use style="fill:#008000;stroke:#008000;" x="1368.551767" xlink:href="#ma3d40a6207" y="515.957605"/>
     <use style="fill:#008000;stroke:#008000;" x="1332.979849" xlink:href="#ma3d40a6207" y="450.066179"/>
     <use style="fill:#008000;stroke:#008000;" x="1382.780535" xlink:href="#ma3d40a6207" y="512.484662"/>
     <use style="fill:#008000;stroke:#008000;" x="1368.551767" xlink:href="#ma3d40a6207" y="510.945631"/>
     <use style="fill:#008000;stroke:#008000;" x="1332.979849" xlink:href="#ma3d40a6207" y="450.066179"/>
     <use style="fill:#008000;stroke:#008000;" x="1268.950395" xlink:href="#ma3d40a6207" y="516.96"/>
     <use style="fill:#008000;stroke:#008000;" x="1368.551767" xlink:href="#ma3d40a6207" y="509.973612"/>
     <use style="fill:#008000;stroke:#008000;" x="1347.208616" xlink:href="#ma3d40a6207" y="516.956625"/>
     <use style="fill:#008000;stroke:#008000;" x="1539.296977" xlink:href="#ma3d40a6207" y="516.96"/>
     <use style="fill:#008000;stroke:#008000;" x="1368.551767" xlink:href="#ma3d40a6207" y="511.634145"/>
     <use style="fill:#008000;stroke:#008000;" x="1311.636697" xlink:href="#ma3d40a6207" y="516.96"/>
     <use style="fill:#008000;stroke:#008000;" x="1482.381907" xlink:href="#ma3d40a6207" y="516.96"/>
     <use style="fill:#008000;stroke:#008000;" x="1368.551767" xlink:href="#ma3d40a6207" y="516.96"/>
     <use style="fill:#008000;stroke:#008000;" x="1340.094232" xlink:href="#ma3d40a6207" y="516.723745"/>
     <use style="fill:#008000;stroke:#008000;" x="1596.212047" xlink:href="#ma3d40a6207" y="516.96"/>
     <use style="fill:#008000;stroke:#008000;" x="1368.551767" xlink:href="#ma3d40a6207" y="509.973612"/>
     <use style="fill:#008000;stroke:#008000;" x="1347.208616" xlink:href="#ma3d40a6207" y="516.96"/>
     <use style="fill:#008000;stroke:#008000;" x="1261.836011" xlink:href="#ma3d40a6207" y="516.824997"/>
     <use style="fill:#008000;stroke:#008000;" x="1297.40793" xlink:href="#ma3d40a6207" y="516.96"/>
     <use style="fill:#008000;stroke:#008000;" x="1304.522314" xlink:href="#ma3d40a6207" y="516.96"/>
     <use style="fill:#008000;stroke:#008000;" x="1212.035325" xlink:href="#ma3d40a6207" y="516.96"/>
     <use style="fill:#008000;stroke:#008000;" x="1347.208616" xlink:href="#ma3d40a6207" y="516.426739"/>
    </g>
   </g>
   <g id="matplotlib.axis_5">
    <g id="xtick_17">
     <g id="line2d_35">
      <g>
       <use style="stroke:#000000;stroke-width:0.8;" x="1212.035325" xlink:href="#ma0fb760b51" y="516.96"/>
      </g>
     </g>
     <g id="text_37">
      <!-- 0 -->
      <g transform="translate(1208.854075 531.558438)scale(0.1 -0.1)">
       <use xlink:href="#DejaVuSans-48"/>
      </g>
     </g>
    </g>
    <g id="xtick_18">
     <g id="line2d_36">
      <g>
       <use style="stroke:#000000;stroke-width:0.8;" x="1283.179162" xlink:href="#ma0fb760b51" y="516.96"/>
      </g>
     </g>
     <g id="text_38">
      <!-- 10 -->
      <g transform="translate(1276.816662 531.558438)scale(0.1 -0.1)">
       <use xlink:href="#DejaVuSans-49"/>
       <use x="63.623047" xlink:href="#DejaVuSans-48"/>
      </g>
     </g>
    </g>
    <g id="xtick_19">
     <g id="line2d_37">
      <g>
       <use style="stroke:#000000;stroke-width:0.8;" x="1354.323" xlink:href="#ma0fb760b51" y="516.96"/>
      </g>
     </g>
     <g id="text_39">
      <!-- 20 -->
      <g transform="translate(1347.9605 531.558438)scale(0.1 -0.1)">
       <use xlink:href="#DejaVuSans-50"/>
       <use x="63.623047" xlink:href="#DejaVuSans-48"/>
      </g>
     </g>
    </g>
    <g id="xtick_20">
     <g id="line2d_38">
      <g>
       <use style="stroke:#000000;stroke-width:0.8;" x="1425.466837" xlink:href="#ma0fb760b51" y="516.96"/>
      </g>
     </g>
     <g id="text_40">
      <!-- 30 -->
      <g transform="translate(1419.104337 531.558438)scale(0.1 -0.1)">
       <use xlink:href="#DejaVuSans-51"/>
       <use x="63.623047" xlink:href="#DejaVuSans-48"/>
      </g>
     </g>
    </g>
    <g id="xtick_21">
     <g id="line2d_39">
      <g>
       <use style="stroke:#000000;stroke-width:0.8;" x="1496.610675" xlink:href="#ma0fb760b51" y="516.96"/>
      </g>
     </g>
     <g id="text_41">
      <!-- 40 -->
      <g transform="translate(1490.248175 531.558438)scale(0.1 -0.1)">
       <use xlink:href="#DejaVuSans-52"/>
       <use x="63.623047" xlink:href="#DejaVuSans-48"/>
      </g>
     </g>
    </g>
    <g id="xtick_22">
     <g id="line2d_40">
      <g>
       <use style="stroke:#000000;stroke-width:0.8;" x="1567.754512" xlink:href="#ma0fb760b51" y="516.96"/>
      </g>
     </g>
     <g id="text_42">
      <!-- 50 -->
      <g transform="translate(1561.392012 531.558438)scale(0.1 -0.1)">
       <use xlink:href="#DejaVuSans-53"/>
       <use x="63.623047" xlink:href="#DejaVuSans-48"/>
      </g>
     </g>
    </g>
    <g id="xtick_23">
     <g id="line2d_41">
      <g>
       <use style="stroke:#000000;stroke-width:0.8;" x="1638.89835" xlink:href="#ma0fb760b51" y="516.96"/>
      </g>
     </g>
     <g id="text_43">
      <!-- 60 -->
      <g transform="translate(1632.53585 531.558438)scale(0.1 -0.1)">
       <use xlink:href="#DejaVuSans-54"/>
       <use x="63.623047" xlink:href="#DejaVuSans-48"/>
      </g>
     </g>
    </g>
    <g id="xtick_24">
     <g id="line2d_42">
      <g>
       <use style="stroke:#000000;stroke-width:0.8;" x="1710.042187" xlink:href="#ma0fb760b51" y="516.96"/>
      </g>
     </g>
     <g id="text_44">
      <!-- 70 -->
      <g transform="translate(1703.679688 531.558438)scale(0.1 -0.1)">
       <use xlink:href="#DejaVuSans-55"/>
       <use x="63.623047" xlink:href="#DejaVuSans-48"/>
      </g>
     </g>
    </g>
   </g>
   <g id="matplotlib.axis_6">
    <g id="ytick_17">
     <g id="line2d_43">
      <g>
       <use style="stroke:#000000;stroke-width:0.8;" x="1212.035325" xlink:href="#m941eced87b" y="516.96"/>
      </g>
     </g>
     <g id="text_45">
      <!-- 0 -->
      <g transform="translate(1198.672825 520.759219)scale(0.1 -0.1)">
       <use xlink:href="#DejaVuSans-48"/>
      </g>
     </g>
    </g>
    <g id="ytick_18">
     <g id="line2d_44">
      <g>
       <use style="stroke:#000000;stroke-width:0.8;" x="1212.035325" xlink:href="#m941eced87b" y="449.458667"/>
      </g>
     </g>
     <g id="text_46">
      <!-- 20000 -->
      <g transform="translate(1173.222825 453.257885)scale(0.1 -0.1)">
       <use xlink:href="#DejaVuSans-50"/>
       <use x="63.623047" xlink:href="#DejaVuSans-48"/>
       <use x="127.246094" xlink:href="#DejaVuSans-48"/>
       <use x="190.869141" xlink:href="#DejaVuSans-48"/>
       <use x="254.492188" xlink:href="#DejaVuSans-48"/>
      </g>
     </g>
    </g>
    <g id="ytick_19">
     <g id="line2d_45">
      <g>
       <use style="stroke:#000000;stroke-width:0.8;" x="1212.035325" xlink:href="#m941eced87b" y="381.957333"/>
      </g>
     </g>
     <g id="text_47">
      <!-- 40000 -->
      <g transform="translate(1173.222825 385.756552)scale(0.1 -0.1)">
       <use xlink:href="#DejaVuSans-52"/>
       <use x="63.623047" xlink:href="#DejaVuSans-48"/>
       <use x="127.246094" xlink:href="#DejaVuSans-48"/>
       <use x="190.869141" xlink:href="#DejaVuSans-48"/>
       <use x="254.492188" xlink:href="#DejaVuSans-48"/>
      </g>
     </g>
    </g>
    <g id="ytick_20">
     <g id="line2d_46">
      <g>
       <use style="stroke:#000000;stroke-width:0.8;" x="1212.035325" xlink:href="#m941eced87b" y="314.456"/>
      </g>
     </g>
     <g id="text_48">
      <!-- 60000 -->
      <g transform="translate(1173.222825 318.255219)scale(0.1 -0.1)">
       <use xlink:href="#DejaVuSans-54"/>
       <use x="63.623047" xlink:href="#DejaVuSans-48"/>
       <use x="127.246094" xlink:href="#DejaVuSans-48"/>
       <use x="190.869141" xlink:href="#DejaVuSans-48"/>
       <use x="254.492188" xlink:href="#DejaVuSans-48"/>
      </g>
     </g>
    </g>
    <g id="ytick_21">
     <g id="line2d_47">
      <g>
       <use style="stroke:#000000;stroke-width:0.8;" x="1212.035325" xlink:href="#m941eced87b" y="246.954667"/>
      </g>
     </g>
     <g id="text_49">
      <!-- 80000 -->
      <g transform="translate(1173.222825 250.753885)scale(0.1 -0.1)">
       <use xlink:href="#DejaVuSans-56"/>
       <use x="63.623047" xlink:href="#DejaVuSans-48"/>
       <use x="127.246094" xlink:href="#DejaVuSans-48"/>
       <use x="190.869141" xlink:href="#DejaVuSans-48"/>
       <use x="254.492188" xlink:href="#DejaVuSans-48"/>
      </g>
     </g>
    </g>
    <g id="ytick_22">
     <g id="line2d_48">
      <g>
       <use style="stroke:#000000;stroke-width:0.8;" x="1212.035325" xlink:href="#m941eced87b" y="179.453333"/>
      </g>
     </g>
     <g id="text_50">
      <!-- 100000 -->
      <g transform="translate(1166.860325 183.252552)scale(0.1 -0.1)">
       <use xlink:href="#DejaVuSans-49"/>
       <use x="63.623047" xlink:href="#DejaVuSans-48"/>
       <use x="127.246094" xlink:href="#DejaVuSans-48"/>
       <use x="190.869141" xlink:href="#DejaVuSans-48"/>
       <use x="254.492188" xlink:href="#DejaVuSans-48"/>
       <use x="318.115234" xlink:href="#DejaVuSans-48"/>
      </g>
     </g>
    </g>
    <g id="ytick_23">
     <g id="line2d_49">
      <g>
       <use style="stroke:#000000;stroke-width:0.8;" x="1212.035325" xlink:href="#m941eced87b" y="111.952"/>
      </g>
     </g>
     <g id="text_51">
      <!-- 120000 -->
      <g transform="translate(1166.860325 115.751219)scale(0.1 -0.1)">
       <use xlink:href="#DejaVuSans-49"/>
       <use x="63.623047" xlink:href="#DejaVuSans-50"/>
       <use x="127.246094" xlink:href="#DejaVuSans-48"/>
       <use x="190.869141" xlink:href="#DejaVuSans-48"/>
       <use x="254.492188" xlink:href="#DejaVuSans-48"/>
       <use x="318.115234" xlink:href="#DejaVuSans-48"/>
      </g>
     </g>
    </g>
    <g id="ytick_24">
     <g id="line2d_50">
      <g>
       <use style="stroke:#000000;stroke-width:0.8;" x="1212.035325" xlink:href="#m941eced87b" y="44.450667"/>
      </g>
     </g>
     <g id="text_52">
      <!-- 140000 -->
      <g transform="translate(1166.860325 48.249885)scale(0.1 -0.1)">
       <use xlink:href="#DejaVuSans-49"/>
       <use x="63.623047" xlink:href="#DejaVuSans-52"/>
       <use x="127.246094" xlink:href="#DejaVuSans-48"/>
       <use x="190.869141" xlink:href="#DejaVuSans-48"/>
       <use x="254.492188" xlink:href="#DejaVuSans-48"/>
       <use x="318.115234" xlink:href="#DejaVuSans-48"/>
      </g>
     </g>
    </g>
   </g>
   <g id="line2d_51">
    <path clip-path="url(#p35e8c6cc67)" d="M 1212.035325 521.966157 
L 1222.19873 520.166363 
L 1232.362135 518.57692 
L 1242.525541 517.187605 
L 1252.688946 515.988196 
L 1262.852352 514.968468 
L 1273.015757 514.1182 
L 1283.179162 513.427167 
L 1293.342568 512.885147 
L 1303.505973 512.481918 
L 1313.669378 512.207255 
L 1323.832784 512.050936 
L 1333.996189 512.002738 
L 1344.159594 512.052437 
L 1354.323 512.189812 
L 1364.486405 512.404638 
L 1374.649811 512.686692 
L 1384.813216 513.025753 
L 1394.976621 513.411596 
L 1405.140027 513.833998 
L 1415.303432 514.282737 
L 1425.466837 514.74759 
L 1435.630243 515.218333 
L 1445.793648 515.684743 
L 1455.957053 516.136598 
L 1466.120459 516.563674 
L 1476.283864 516.955749 
L 1486.44727 517.302599 
L 1496.610675 517.594001 
L 1506.77408 517.819732 
L 1516.937486 517.96957 
L 1527.100891 518.03329 
L 1537.264296 518.000671 
L 1547.427702 517.861489 
L 1557.591107 517.605521 
L 1567.754512 517.222544 
L 1577.917918 516.702335 
L 1588.081323 516.034671 
L 1598.244729 515.209329 
L 1608.408134 514.216086 
L 1618.571539 513.044718 
L 1628.734945 511.685004 
L 1638.89835 510.126719 
L 1649.061755 508.359641 
L 1659.225161 506.373547 
L 1669.388566 504.158213 
L 1679.551971 501.703417 
L 1689.715377 498.998936 
L 1699.878782 496.034546 
L 1710.042187 492.800025 
" style="fill:none;stroke:#1f77b4;stroke-linecap:square;stroke-width:1.5;"/>
   </g>
   <g id="patch_15">
    <path d="M 1212.035325 516.96 
L 1212.035325 10.7 
" style="fill:none;stroke:#000000;stroke-linecap:square;stroke-linejoin:miter;stroke-width:0.8;"/>
   </g>
   <g id="patch_16">
    <path d="M 1710.042187 516.96 
L 1710.042187 10.7 
" style="fill:none;stroke:#000000;stroke-linecap:square;stroke-linejoin:miter;stroke-width:0.8;"/>
   </g>
   <g id="patch_17">
    <path d="M 1212.035325 516.96 
L 1710.042187 516.96 
" style="fill:none;stroke:#000000;stroke-linecap:square;stroke-linejoin:miter;stroke-width:0.8;"/>
   </g>
   <g id="patch_18">
    <path d="M 1212.035325 10.7 
L 1710.042187 10.7 
" style="fill:none;stroke:#000000;stroke-linecap:square;stroke-linejoin:miter;stroke-width:0.8;"/>
   </g>
   <g id="legend_3">
    <g id="patch_19">
     <path d="M 1629.396875 33.378125 
L 1703.042187 33.378125 
Q 1705.042187 33.378125 1705.042187 31.378125 
L 1705.042187 17.7 
Q 1705.042187 15.7 1703.042187 15.7 
L 1629.396875 15.7 
Q 1627.396875 15.7 1627.396875 17.7 
L 1627.396875 31.378125 
Q 1627.396875 33.378125 1629.396875 33.378125 
z
" style="fill:#ffffff;opacity:0.8;stroke:#cccccc;stroke-linejoin:miter;"/>
    </g>
    <g id="PathCollection_6">
     <g>
      <use style="fill:#008000;stroke:#008000;" x="1641.396875" xlink:href="#ma3d40a6207" y="24.673438"/>
     </g>
    </g>
    <g id="text_53">
     <!-- Average -->
     <defs>
      <path d="M 34.1875 63.1875 
L 20.796875 26.90625 
L 47.609375 26.90625 
z
M 28.609375 72.90625 
L 39.796875 72.90625 
L 67.578125 0 
L 57.328125 0 
L 50.6875 18.703125 
L 17.828125 18.703125 
L 11.1875 0 
L 0.78125 0 
z
" id="DejaVuSans-65"/>
      <path d="M 2.984375 54.6875 
L 12.5 54.6875 
L 29.59375 8.796875 
L 46.6875 54.6875 
L 56.203125 54.6875 
L 35.6875 0 
L 23.484375 0 
z
" id="DejaVuSans-118"/>
      <path d="M 45.40625 27.984375 
Q 45.40625 37.75 41.375 43.109375 
Q 37.359375 48.484375 30.078125 48.484375 
Q 22.859375 48.484375 18.828125 43.109375 
Q 14.796875 37.75 14.796875 27.984375 
Q 14.796875 18.265625 18.828125 12.890625 
Q 22.859375 7.515625 30.078125 7.515625 
Q 37.359375 7.515625 41.375 12.890625 
Q 45.40625 18.265625 45.40625 27.984375 
z
M 54.390625 6.78125 
Q 54.390625 -7.171875 48.1875 -13.984375 
Q 42 -20.796875 29.203125 -20.796875 
Q 24.46875 -20.796875 20.265625 -20.09375 
Q 16.0625 -19.390625 12.109375 -17.921875 
L 12.109375 -9.1875 
Q 16.0625 -11.328125 19.921875 -12.34375 
Q 23.78125 -13.375 27.78125 -13.375 
Q 36.625 -13.375 41.015625 -8.765625 
Q 45.40625 -4.15625 45.40625 5.171875 
L 45.40625 9.625 
Q 42.625 4.78125 38.28125 2.390625 
Q 33.9375 0 27.875 0 
Q 17.828125 0 11.671875 7.65625 
Q 5.515625 15.328125 5.515625 27.984375 
Q 5.515625 40.671875 11.671875 48.328125 
Q 17.828125 56 27.875 56 
Q 33.9375 56 38.28125 53.609375 
Q 42.625 51.21875 45.40625 46.390625 
L 45.40625 54.6875 
L 54.390625 54.6875 
z
" id="DejaVuSans-103"/>
     </defs>
     <g transform="translate(1659.396875 27.298438)scale(0.1 -0.1)">
      <use xlink:href="#DejaVuSans-65"/>
      <use x="68.330078" xlink:href="#DejaVuSans-118"/>
      <use x="127.509766" xlink:href="#DejaVuSans-101"/>
      <use x="189.033203" xlink:href="#DejaVuSans-114"/>
      <use x="230.146484" xlink:href="#DejaVuSans-97"/>
      <use x="291.425781" xlink:href="#DejaVuSans-103"/>
      <use x="354.902344" xlink:href="#DejaVuSans-101"/>
     </g>
    </g>
   </g>
  </g>
 </g>
 <defs>
  <clipPath id="p38039e0390">
   <rect height="506.26" width="498.006863" x="70.892188" y="10.7"/>
  </clipPath>
  <clipPath id="p0570fcc51f">
   <rect height="506.26" width="498.006863" x="641.463756" y="10.7"/>
  </clipPath>
  <clipPath id="p35e8c6cc67">
   <rect height="506.26" width="498.006863" x="1212.035325" y="10.7"/>
  </clipPath>
 </defs>
</svg>
