<svg width="1653" height="1000" xmlns="http://www.w3.org/2000/svg" xmlns:xlink="http://www.w3.org/1999/xlink" overflow="hidden"><defs><clipPath id="clip0"><rect x="4394" y="1518" width="1653" height="1000"/></clipPath><clipPath id="clip1"><rect x="4395" y="1519" width="1650" height="997"/></clipPath><clipPath id="clip2"><rect x="4395" y="1519" width="1650" height="997"/></clipPath><clipPath id="clip3"><rect x="4395" y="1519" width="1650" height="997"/></clipPath><clipPath id="clip4"><rect x="4395" y="1519" width="1650" height="997"/></clipPath><clipPath id="clip5"><rect x="4395" y="1519" width="1650" height="997"/></clipPath><clipPath id="clip6"><rect x="4395" y="1519" width="1650" height="997"/></clipPath><clipPath id="clip7"><rect x="4395" y="1519" width="1650" height="997"/></clipPath><clipPath id="clip8"><rect x="4395" y="1519" width="1650" height="997"/></clipPath><clipPath id="clip9"><rect x="4395" y="1519" width="1650" height="997"/></clipPath><clipPath id="clip10"><rect x="4395" y="1519" width="1650" height="997"/></clipPath><clipPath id="clip11"><rect x="4395" y="1519" width="1650" height="997"/></clipPath><clipPath id="clip12"><rect x="4395" y="1519" width="1650" height="997"/></clipPath><clipPath id="clip13"><rect x="4395" y="1519" width="1650" height="997"/></clipPath><clipPath id="clip14"><rect x="4395" y="1519" width="1650" height="997"/></clipPath><clipPath id="clip15"><rect x="4395" y="1519" width="1650" height="997"/></clipPath><clipPath id="clip16"><rect x="4395" y="1519" width="1650" height="997"/></clipPath><clipPath id="clip17"><rect x="4395" y="1519" width="1650" height="997"/></clipPath><clipPath id="clip18"><rect x="4395" y="1519" width="1650" height="997"/></clipPath><clipPath id="clip19"><rect x="4395" y="1519" width="1650" height="997"/></clipPath><clipPath id="clip20"><rect x="4395" y="1519" width="1650" height="997"/></clipPath><clipPath id="clip21"><rect x="4395" y="1519" width="1650" height="997"/></clipPath><clipPath id="clip22"><rect x="4395" y="1519" width="1650" height="997"/></clipPath><clipPath id="clip23"><rect x="4395" y="1519" width="1650" height="997"/></clipPath><clipPath id="clip24"><rect x="4395" y="1519" width="1650" height="997"/></clipPath><clipPath id="clip25"><rect x="4395" y="1519" width="1650" height="997"/></clipPath><clipPath id="clip26"><rect x="4395" y="1519" width="1650" height="997"/></clipPath><clipPath id="clip27"><rect x="4395" y="1519" width="1650" height="997"/></clipPath></defs><g clip-path="url(#clip0)" transform="translate(-4394 -1518)"><rect x="4395" y="1519" width="1650" height="997" fill="#FFFFFF"/><g clip-path="url(#clip1)"><path d="M4623.5 2248.57 5911.5 2248.57M4623.5 2184.57 5911.5 2184.57M4623.5 2120.57 5911.5 2120.57M4623.5 2056.57 5911.5 2056.57M4623.5 1992.57 5911.5 1992.57M4623.5 1928.56 5911.5 1928.56M4623.5 1864.56 5911.5 1864.56M4623.5 1800.56 5911.5 1800.56M4623.5 1736.56 5911.5 1736.56M4623.5 1672.5 5911.5 1672.5" stroke="#D9D9D9" stroke-width="3.4375" stroke-linejoin="round" stroke-miterlimit="10" fill="none"/></g><g clip-path="url(#clip2)"><path d="M4807.66 1672.5 4807.66 2312.5M4991.66 1672.5 4991.66 2312.5M5175.67 1672.5 5175.67 2312.5M5359.68 1672.5 5359.68 2312.5M5543.68 1672.5 5543.68 2312.5M5727.69 1672.5 5727.69 2312.5M5911.5 1672.5 5911.5 2312.5" stroke="#D9D9D9" stroke-width="3.4375" stroke-linejoin="round" stroke-miterlimit="10" fill="none"/></g><g clip-path="url(#clip3)"><path d="M0 0 0.000360892 640" stroke="#BFBFBF" stroke-width="3.4375" stroke-linejoin="round" stroke-miterlimit="10" fill="none" fill-rule="evenodd" transform="matrix(1 0 0 -1 4623.5 2312.5)"/></g><g clip-path="url(#clip4)"><path d="M4623.5 2312.5 5911.5 2312.5" stroke="#BFBFBF" stroke-width="3.4375" stroke-linejoin="round" stroke-miterlimit="10" fill="none" fill-rule="evenodd"/></g><g clip-path="url(#clip5)"><path d="M5014.69 1796.87C5014.69 1802.95 5009.76 1807.87 5003.69 1807.87 4997.61 1807.87 4992.69 1802.95 4992.69 1796.87 4992.69 1790.8 4997.61 1785.88 5003.69 1785.88 5009.76 1785.88 5014.69 1790.8 5014.69 1796.87Z" stroke="#4F81BD" stroke-width="3.4375" stroke-linejoin="round" stroke-miterlimit="10" fill="#4F81BD"/><path d="M5231.69 1791.87C5231.69 1797.95 5226.76 1802.87 5220.69 1802.87 5214.61 1802.87 5209.69 1797.95 5209.69 1791.87 5209.69 1785.8 5214.61 1780.88 5220.69 1780.88 5226.76 1780.88 5231.69 1785.8 5231.69 1791.87Z" stroke="#4F81BD" stroke-width="3.4375" stroke-linejoin="round" stroke-miterlimit="10" fill="#4F81BD"/><path d="M5378.69 1862.87C5378.69 1868.95 5373.76 1873.87 5367.69 1873.87 5361.61 1873.87 5356.69 1868.95 5356.69 1862.87 5356.69 1856.8 5361.61 1851.88 5367.69 1851.88 5373.76 1851.88 5378.69 1856.8 5378.69 1862.87Z" stroke="#4F81BD" stroke-width="3.4375" stroke-linejoin="round" stroke-miterlimit="10" fill="#4F81BD"/><path d="M5031.69 1870.87C5031.69 1876.95 5026.76 1881.87 5020.69 1881.87 5014.61 1881.87 5009.69 1876.95 5009.69 1870.87 5009.69 1864.8 5014.61 1859.88 5020.69 1859.88 5026.76 1859.88 5031.69 1864.8 5031.69 1870.87Z" stroke="#4F81BD" stroke-width="3.4375" stroke-linejoin="round" stroke-miterlimit="10" fill="#4F81BD"/><path d="M5095.69 1761.87C5095.69 1767.95 5090.76 1772.87 5084.69 1772.87 5078.61 1772.87 5073.69 1767.95 5073.69 1761.87 5073.69 1755.8 5078.61 1750.87 5084.69 1750.87 5090.76 1750.87 5095.69 1755.8 5095.69 1761.87Z" stroke="#4F81BD" stroke-width="3.4375" stroke-linejoin="round" stroke-miterlimit="10" fill="#4F81BD"/><path d="M5046.69 1788.87C5046.69 1794.95 5041.76 1799.87 5035.69 1799.87 5029.61 1799.87 5024.69 1794.95 5024.69 1788.87 5024.69 1782.8 5029.61 1777.88 5035.69 1777.88 5041.76 1777.88 5046.69 1782.8 5046.69 1788.87Z" stroke="#4F81BD" stroke-width="3.4375" stroke-linejoin="round" stroke-miterlimit="10" fill="#4F81BD"/><path d="M5087.69 1774.87C5087.69 1780.95 5082.76 1785.87 5076.69 1785.87 5070.61 1785.87 5065.69 1780.95 5065.69 1774.87 5065.69 1768.8 5070.61 1763.88 5076.69 1763.88 5082.76 1763.88 5087.69 1768.8 5087.69 1774.87Z" stroke="#4F81BD" stroke-width="3.4375" stroke-linejoin="round" stroke-miterlimit="10" fill="#4F81BD"/><path d="M5507.69 1753.87C5507.69 1759.95 5502.76 1764.87 5496.69 1764.87 5490.61 1764.87 5485.69 1759.95 5485.69 1753.87 5485.69 1747.8 5490.61 1742.88 5496.69 1742.88 5502.76 1742.88 5507.69 1747.8 5507.69 1753.87Z" stroke="#4F81BD" stroke-width="3.4375" stroke-linejoin="round" stroke-miterlimit="10" fill="#4F81BD"/><path d="M5100.69 1776.87C5100.69 1782.95 5095.76 1787.87 5089.69 1787.87 5083.61 1787.87 5078.69 1782.95 5078.69 1776.87 5078.69 1770.8 5083.61 1765.88 5089.69 1765.88 5095.76 1765.88 5100.69 1770.8 5100.69 1776.87Z" stroke="#4F81BD" stroke-width="3.4375" stroke-linejoin="round" stroke-miterlimit="10" fill="#4F81BD"/><path d="M5099.69 1753.87C5099.69 1759.95 5094.76 1764.87 5088.69 1764.87 5082.61 1764.87 5077.69 1759.95 5077.69 1753.87 5077.69 1747.8 5082.61 1742.88 5088.69 1742.88 5094.76 1742.88 5099.69 1747.8 5099.69 1753.87Z" stroke="#4F81BD" stroke-width="3.4375" stroke-linejoin="round" stroke-miterlimit="10" fill="#4F81BD"/><path d="M5132.69 1780.87C5132.69 1786.95 5127.76 1791.87 5121.69 1791.87 5115.61 1791.87 5110.69 1786.95 5110.69 1780.87 5110.69 1774.8 5115.61 1769.88 5121.69 1769.88 5127.76 1769.88 5132.69 1774.8 5132.69 1780.87Z" stroke="#4F81BD" stroke-width="3.4375" stroke-linejoin="round" stroke-miterlimit="10" fill="#4F81BD"/><path d="M5016.69 1755.87C5016.69 1761.95 5011.76 1766.87 5005.69 1766.87 4999.61 1766.87 4994.69 1761.95 4994.69 1755.87 4994.69 1749.8 4999.61 1744.88 5005.69 1744.88 5011.76 1744.88 5016.69 1749.8 5016.69 1755.87Z" stroke="#4F81BD" stroke-width="3.4375" stroke-linejoin="round" stroke-miterlimit="10" fill="#4F81BD"/><path d="M5229.69 1739.87C5229.69 1745.95 5224.76 1750.87 5218.69 1750.87 5212.61 1750.87 5207.69 1745.95 5207.69 1739.87 5207.69 1733.8 5212.61 1728.87 5218.69 1728.87 5224.76 1728.87 5229.69 1733.8 5229.69 1739.87Z" stroke="#4F81BD" stroke-width="3.4375" stroke-linejoin="round" stroke-miterlimit="10" fill="#4F81BD"/><path d="M4929.69 1795.87C4929.69 1801.95 4924.76 1806.87 4918.69 1806.87 4912.61 1806.87 4907.69 1801.95 4907.69 1795.87 4907.69 1789.8 4912.61 1784.87 4918.69 1784.87 4924.76 1784.87 4929.69 1789.8 4929.69 1795.87Z" stroke="#4F81BD" stroke-width="3.4375" stroke-linejoin="round" stroke-miterlimit="10" fill="#4F81BD"/><path d="M4957.69 1881.87C4957.69 1887.95 4952.76 1892.87 4946.69 1892.87 4940.61 1892.87 4935.69 1887.95 4935.69 1881.87 4935.69 1875.8 4940.61 1870.88 4946.69 1870.88 4952.76 1870.88 4957.69 1875.8 4957.69 1881.87Z" stroke="#4F81BD" stroke-width="3.4375" stroke-linejoin="round" stroke-miterlimit="10" fill="#4F81BD"/><path d="M4902.69 1805.87C4902.69 1811.95 4897.76 1816.87 4891.69 1816.87 4885.61 1816.87 4880.69 1811.95 4880.69 1805.87 4880.69 1799.8 4885.61 1794.87 4891.69 1794.87 4897.76 1794.87 4902.69 1799.8 4902.69 1805.87Z" stroke="#4F81BD" stroke-width="3.4375" stroke-linejoin="round" stroke-miterlimit="10" fill="#4F81BD"/><path d="M4953.69 1848.87C4953.69 1854.95 4948.76 1859.87 4942.69 1859.87 4936.61 1859.87 4931.69 1854.95 4931.69 1848.87 4931.69 1842.8 4936.61 1837.88 4942.69 1837.88 4948.76 1837.88 4953.69 1842.8 4953.69 1848.87Z" stroke="#4F81BD" stroke-width="3.4375" stroke-linejoin="round" stroke-miterlimit="10" fill="#4F81BD"/><path d="M5001.69 1787.87C5001.69 1793.95 4996.76 1798.87 4990.69 1798.87 4984.61 1798.87 4979.69 1793.95 4979.69 1787.87 4979.69 1781.8 4984.61 1776.88 4990.69 1776.88 4996.76 1776.88 5001.69 1781.8 5001.69 1787.87Z" stroke="#4F81BD" stroke-width="3.4375" stroke-linejoin="round" stroke-miterlimit="10" fill="#4F81BD"/><path d="M5034.69 1775.87C5034.69 1781.95 5029.76 1786.87 5023.69 1786.87 5017.61 1786.87 5012.69 1781.95 5012.69 1775.87 5012.69 1769.8 5017.61 1764.88 5023.69 1764.88 5029.76 1764.88 5034.69 1769.8 5034.69 1775.87Z" stroke="#4F81BD" stroke-width="3.4375" stroke-linejoin="round" stroke-miterlimit="10" fill="#4F81BD"/><path d="M5165.69 1833.87C5165.69 1839.95 5160.76 1844.87 5154.69 1844.87 5148.61 1844.87 5143.69 1839.95 5143.69 1833.87 5143.69 1827.8 5148.61 1822.88 5154.69 1822.88 5160.76 1822.88 5165.69 1827.8 5165.69 1833.87Z" stroke="#4F81BD" stroke-width="3.4375" stroke-linejoin="round" stroke-miterlimit="10" fill="#4F81BD"/><path d="M4966.69 1774.87C4966.69 1780.95 4961.76 1785.87 4955.69 1785.87 4949.61 1785.87 4944.69 1780.95 4944.69 1774.87 4944.69 1768.8 4949.61 1763.88 4955.69 1763.88 4961.76 1763.88 4966.69 1768.8 4966.69 1774.87Z" stroke="#4F81BD" stroke-width="3.4375" stroke-linejoin="round" stroke-miterlimit="10" fill="#4F81BD"/><path d="M5060.69 1881.87C5060.69 1887.95 5055.76 1892.87 5049.69 1892.87 5043.61 1892.87 5038.69 1887.95 5038.69 1881.87 5038.69 1875.8 5043.61 1870.88 5049.69 1870.88 5055.76 1870.88 5060.69 1875.8 5060.69 1881.87Z" stroke="#4F81BD" stroke-width="3.4375" stroke-linejoin="round" stroke-miterlimit="10" fill="#4F81BD"/><path d="M4955.69 1766.87C4955.69 1772.95 4950.76 1777.87 4944.69 1777.87 4938.61 1777.87 4933.69 1772.95 4933.69 1766.87 4933.69 1760.8 4938.61 1755.88 4944.69 1755.88 4950.76 1755.88 4955.69 1760.8 4955.69 1766.87Z" stroke="#4F81BD" stroke-width="3.4375" stroke-linejoin="round" stroke-miterlimit="10" fill="#4F81BD"/><path d="M5022.69 1854.87C5022.69 1860.95 5017.76 1865.87 5011.69 1865.87 5005.61 1865.87 5000.69 1860.95 5000.69 1854.87 5000.69 1848.8 5005.61 1843.88 5011.69 1843.88 5017.76 1843.88 5022.69 1848.8 5022.69 1854.87Z" stroke="#4F81BD" stroke-width="3.4375" stroke-linejoin="round" stroke-miterlimit="10" fill="#4F81BD"/><path d="M5258.69 1757.87C5258.69 1763.95 5253.76 1768.87 5247.69 1768.87 5241.61 1768.87 5236.69 1763.95 5236.69 1757.87 5236.69 1751.8 5241.61 1746.88 5247.69 1746.88 5253.76 1746.88 5258.69 1751.8 5258.69 1757.87Z" stroke="#4F81BD" stroke-width="3.4375" stroke-linejoin="round" stroke-miterlimit="10" fill="#4F81BD"/><path d="M5290.69 1788.87C5290.69 1794.95 5285.76 1799.87 5279.69 1799.87 5273.61 1799.87 5268.69 1794.95 5268.69 1788.87 5268.69 1782.8 5273.61 1777.88 5279.69 1777.88 5285.76 1777.88 5290.69 1782.8 5290.69 1788.87Z" stroke="#4F81BD" stroke-width="3.4375" stroke-linejoin="round" stroke-miterlimit="10" fill="#4F81BD"/><path d="M5308.69 1801.87C5308.69 1807.95 5303.76 1812.87 5297.69 1812.87 5291.61 1812.87 5286.69 1807.95 5286.69 1801.87 5286.69 1795.8 5291.61 1790.88 5297.69 1790.88 5303.76 1790.88 5308.69 1795.8 5308.69 1801.87Z" stroke="#4F81BD" stroke-width="3.4375" stroke-linejoin="round" stroke-miterlimit="10" fill="#4F81BD"/><path d="M5099.69 1783.87C5099.69 1789.95 5094.76 1794.87 5088.69 1794.87 5082.61 1794.87 5077.69 1789.95 5077.69 1783.87 5077.69 1777.8 5082.61 1772.87 5088.69 1772.87 5094.76 1772.87 5099.69 1777.8 5099.69 1783.87Z" stroke="#4F81BD" stroke-width="3.4375" stroke-linejoin="round" stroke-miterlimit="10" fill="#4F81BD"/><path d="M4958.69 1878.87C4958.69 1884.95 4953.76 1889.87 4947.69 1889.87 4941.61 1889.87 4936.69 1884.95 4936.69 1878.87 4936.69 1872.8 4941.61 1867.88 4947.69 1867.88 4953.76 1867.88 4958.69 1872.8 4958.69 1878.87Z" stroke="#4F81BD" stroke-width="3.4375" stroke-linejoin="round" stroke-miterlimit="10" fill="#4F81BD"/><path d="M5106.69 1847.87C5106.69 1853.95 5101.76 1858.87 5095.69 1858.87 5089.61 1858.87 5084.69 1853.95 5084.69 1847.87 5084.69 1841.8 5089.61 1836.88 5095.69 1836.88 5101.76 1836.88 5106.69 1841.8 5106.69 1847.87Z" stroke="#4F81BD" stroke-width="3.4375" stroke-linejoin="round" stroke-miterlimit="10" fill="#4F81BD"/><path d="M5233.69 1784.87C5233.69 1790.95 5228.76 1795.87 5222.69 1795.87 5216.61 1795.87 5211.69 1790.95 5211.69 1784.87 5211.69 1778.8 5216.61 1773.87 5222.69 1773.87 5228.76 1773.87 5233.69 1778.8 5233.69 1784.87Z" stroke="#4F81BD" stroke-width="3.4375" stroke-linejoin="round" stroke-miterlimit="10" fill="#4F81BD"/><path d="M5003.69 1829.87C5003.69 1835.95 4998.76 1840.87 4992.69 1840.87 4986.61 1840.87 4981.69 1835.95 4981.69 1829.87 4981.69 1823.8 4986.61 1818.88 4992.69 1818.88 4998.76 1818.88 5003.69 1823.8 5003.69 1829.87Z" stroke="#4F81BD" stroke-width="3.4375" stroke-linejoin="round" stroke-miterlimit="10" fill="#4F81BD"/><path d="M4909.69 1983.87C4909.69 1989.95 4904.76 1994.87 4898.69 1994.87 4892.61 1994.87 4887.69 1989.95 4887.69 1983.87 4887.69 1977.8 4892.61 1972.88 4898.69 1972.88 4904.76 1972.88 4909.69 1977.8 4909.69 1983.87Z" stroke="#4F81BD" stroke-width="3.4375" stroke-linejoin="round" stroke-miterlimit="10" fill="#4F81BD"/><path d="M4901.69 1740.87C4901.69 1746.95 4896.76 1751.87 4890.69 1751.87 4884.61 1751.87 4879.69 1746.95 4879.69 1740.87 4879.69 1734.8 4884.61 1729.87 4890.69 1729.87 4896.76 1729.87 4901.69 1734.8 4901.69 1740.87Z" stroke="#4F81BD" stroke-width="3.4375" stroke-linejoin="round" stroke-miterlimit="10" fill="#4F81BD"/><path d="M5107.69 1797.87C5107.69 1803.95 5102.76 1808.87 5096.69 1808.87 5090.61 1808.87 5085.69 1803.95 5085.69 1797.87 5085.69 1791.8 5090.61 1786.88 5096.69 1786.88 5102.76 1786.88 5107.69 1791.8 5107.69 1797.87Z" stroke="#4F81BD" stroke-width="3.4375" stroke-linejoin="round" stroke-miterlimit="10" fill="#4F81BD"/><path d="M5059.69 1896.87C5059.69 1902.95 5054.76 1907.87 5048.69 1907.87 5042.61 1907.87 5037.69 1902.95 5037.69 1896.87 5037.69 1890.8 5042.61 1885.88 5048.69 1885.88 5054.76 1885.88 5059.69 1890.8 5059.69 1896.87Z" stroke="#4F81BD" stroke-width="3.4375" stroke-linejoin="round" stroke-miterlimit="10" fill="#4F81BD"/><path d="M5604.69 1764.87C5604.69 1770.95 5599.76 1775.87 5593.69 1775.87 5587.61 1775.87 5582.69 1770.95 5582.69 1764.87 5582.69 1758.8 5587.61 1753.88 5593.69 1753.88 5599.76 1753.88 5604.69 1758.8 5604.69 1764.87Z" stroke="#4F81BD" stroke-width="3.4375" stroke-linejoin="round" stroke-miterlimit="10" fill="#4F81BD"/><path d="M5687.69 1733.87C5687.69 1739.95 5682.76 1744.87 5676.69 1744.87 5670.61 1744.87 5665.69 1739.95 5665.69 1733.87 5665.69 1727.8 5670.61 1722.88 5676.69 1722.88 5682.76 1722.88 5687.69 1727.8 5687.69 1733.87Z" stroke="#4F81BD" stroke-width="3.4375" stroke-linejoin="round" stroke-miterlimit="10" fill="#4F81BD"/><path d="M5406.69 1806.87C5406.69 1812.95 5401.76 1817.87 5395.69 1817.87 5389.61 1817.87 5384.69 1812.95 5384.69 1806.87 5384.69 1800.8 5389.61 1795.87 5395.69 1795.87 5401.76 1795.87 5406.69 1800.8 5406.69 1806.87Z" stroke="#4F81BD" stroke-width="3.4375" stroke-linejoin="round" stroke-miterlimit="10" fill="#4F81BD"/><path d="M5021.69 1793.87C5021.69 1799.95 5016.76 1804.87 5010.69 1804.87 5004.61 1804.87 4999.69 1799.95 4999.69 1793.87 4999.69 1787.8 5004.61 1782.88 5010.69 1782.88 5016.76 1782.88 5021.69 1787.8 5021.69 1793.87Z" stroke="#4F81BD" stroke-width="3.4375" stroke-linejoin="round" stroke-miterlimit="10" fill="#4F81BD"/><path d="M5262.69 1776.87C5262.69 1782.95 5257.76 1787.87 5251.69 1787.87 5245.61 1787.87 5240.69 1782.95 5240.69 1776.87 5240.69 1770.8 5245.61 1765.88 5251.69 1765.88 5257.76 1765.88 5262.69 1770.8 5262.69 1776.87Z" stroke="#4F81BD" stroke-width="3.4375" stroke-linejoin="round" stroke-miterlimit="10" fill="#4F81BD"/><path d="M5053.69 1868.87C5053.69 1874.95 5048.76 1879.87 5042.69 1879.87 5036.61 1879.87 5031.69 1874.95 5031.69 1868.87 5031.69 1862.8 5036.61 1857.88 5042.69 1857.88 5048.76 1857.88 5053.69 1862.8 5053.69 1868.87Z" stroke="#4F81BD" stroke-width="3.4375" stroke-linejoin="round" stroke-miterlimit="10" fill="#4F81BD"/><path d="M4939.69 1765.87C4939.69 1771.95 4934.76 1776.87 4928.69 1776.87 4922.61 1776.87 4917.69 1771.95 4917.69 1765.87 4917.69 1759.8 4922.61 1754.88 4928.69 1754.88 4934.76 1754.88 4939.69 1759.8 4939.69 1765.87Z" stroke="#4F81BD" stroke-width="3.4375" stroke-linejoin="round" stroke-miterlimit="10" fill="#4F81BD"/><path d="M5204.69 1805.87C5204.69 1811.95 5199.76 1816.87 5193.69 1816.87 5187.61 1816.87 5182.69 1811.95 5182.69 1805.87 5182.69 1799.8 5187.61 1794.87 5193.69 1794.87 5199.76 1794.87 5204.69 1799.8 5204.69 1805.87Z" stroke="#4F81BD" stroke-width="3.4375" stroke-linejoin="round" stroke-miterlimit="10" fill="#4F81BD"/><path d="M5035.69 1921.87C5035.69 1927.95 5030.76 1932.87 5024.69 1932.87 5018.61 1932.87 5013.69 1927.95 5013.69 1921.87 5013.69 1915.8 5018.61 1910.88 5024.69 1910.88 5030.76 1910.88 5035.69 1915.8 5035.69 1921.87Z" stroke="#4F81BD" stroke-width="3.4375" stroke-linejoin="round" stroke-miterlimit="10" fill="#4F81BD"/><path d="M4839.69 1746.87C4839.69 1752.95 4834.76 1757.87 4828.69 1757.87 4822.61 1757.87 4817.69 1752.95 4817.69 1746.87 4817.69 1740.8 4822.61 1735.88 4828.69 1735.88 4834.76 1735.88 4839.69 1740.8 4839.69 1746.87Z" stroke="#4F81BD" stroke-width="3.4375" stroke-linejoin="round" stroke-miterlimit="10" fill="#4F81BD"/><path d="M5013.69 1787.87C5013.69 1793.95 5008.76 1798.87 5002.69 1798.87 4996.61 1798.87 4991.69 1793.95 4991.69 1787.87 4991.69 1781.8 4996.61 1776.88 5002.69 1776.88 5008.76 1776.88 5013.69 1781.8 5013.69 1787.87Z" stroke="#4F81BD" stroke-width="3.4375" stroke-linejoin="round" stroke-miterlimit="10" fill="#4F81BD"/><path d="M5180.69 1759.87C5180.69 1765.95 5175.76 1770.87 5169.69 1770.87 5163.61 1770.87 5158.69 1765.95 5158.69 1759.87 5158.69 1753.8 5163.61 1748.88 5169.69 1748.88 5175.76 1748.88 5180.69 1753.8 5180.69 1759.87Z" stroke="#4F81BD" stroke-width="3.4375" stroke-linejoin="round" stroke-miterlimit="10" fill="#4F81BD"/><path d="M5366.69 1778.87C5366.69 1784.95 5361.76 1789.87 5355.69 1789.87 5349.61 1789.87 5344.69 1784.95 5344.69 1778.87 5344.69 1772.8 5349.61 1767.88 5355.69 1767.88 5361.76 1767.88 5366.69 1772.8 5366.69 1778.87Z" stroke="#4F81BD" stroke-width="3.4375" stroke-linejoin="round" stroke-miterlimit="10" fill="#4F81BD"/><path d="M4930.69 1756.87C4930.69 1762.95 4925.76 1767.87 4919.69 1767.87 4913.61 1767.87 4908.69 1762.95 4908.69 1756.87 4908.69 1750.8 4913.61 1745.88 4919.69 1745.88 4925.76 1745.88 4930.69 1750.8 4930.69 1756.87Z" stroke="#4F81BD" stroke-width="3.4375" stroke-linejoin="round" stroke-miterlimit="10" fill="#4F81BD"/><path d="M5134.69 1821.87C5134.69 1827.95 5129.76 1832.87 5123.69 1832.87 5117.61 1832.87 5112.69 1827.95 5112.69 1821.87 5112.69 1815.8 5117.61 1810.88 5123.69 1810.88 5129.76 1810.88 5134.69 1815.8 5134.69 1821.87Z" stroke="#4F81BD" stroke-width="3.4375" stroke-linejoin="round" stroke-miterlimit="10" fill="#4F81BD"/><path d="M4989.69 1876.87C4989.69 1882.95 4984.76 1887.87 4978.69 1887.87 4972.61 1887.87 4967.69 1882.95 4967.69 1876.87 4967.69 1870.8 4972.61 1865.88 4978.69 1865.88 4984.76 1865.88 4989.69 1870.8 4989.69 1876.87Z" stroke="#4F81BD" stroke-width="3.4375" stroke-linejoin="round" stroke-miterlimit="10" fill="#4F81BD"/><path d="M4953.69 1803.87C4953.69 1809.95 4948.76 1814.87 4942.69 1814.87 4936.61 1814.87 4931.69 1809.95 4931.69 1803.87 4931.69 1797.8 4936.61 1792.88 4942.69 1792.88 4948.76 1792.88 4953.69 1797.8 4953.69 1803.87Z" stroke="#4F81BD" stroke-width="3.4375" stroke-linejoin="round" stroke-miterlimit="10" fill="#4F81BD"/><path d="M5092.69 1796.87C5092.69 1802.95 5087.76 1807.87 5081.69 1807.87 5075.61 1807.87 5070.69 1802.95 5070.69 1796.87 5070.69 1790.8 5075.61 1785.88 5081.69 1785.88 5087.76 1785.88 5092.69 1790.8 5092.69 1796.87Z" stroke="#4F81BD" stroke-width="3.4375" stroke-linejoin="round" stroke-miterlimit="10" fill="#4F81BD"/><path d="M5337.69 1741.87C5337.69 1747.95 5332.76 1752.87 5326.69 1752.87 5320.61 1752.87 5315.69 1747.95 5315.69 1741.87 5315.69 1735.8 5320.61 1730.88 5326.69 1730.88 5332.76 1730.88 5337.69 1735.8 5337.69 1741.87Z" stroke="#4F81BD" stroke-width="3.4375" stroke-linejoin="round" stroke-miterlimit="10" fill="#4F81BD"/><path d="M4976.69 1852.87C4976.69 1858.95 4971.76 1863.87 4965.69 1863.87 4959.61 1863.87 4954.69 1858.95 4954.69 1852.87 4954.69 1846.8 4959.61 1841.88 4965.69 1841.88 4971.76 1841.88 4976.69 1846.8 4976.69 1852.87Z" stroke="#4F81BD" stroke-width="3.4375" stroke-linejoin="round" stroke-miterlimit="10" fill="#4F81BD"/><path d="M5187.69 1796.87C5187.69 1802.95 5182.76 1807.87 5176.69 1807.87 5170.61 1807.87 5165.69 1802.95 5165.69 1796.87 5165.69 1790.8 5170.61 1785.88 5176.69 1785.88 5182.76 1785.88 5187.69 1790.8 5187.69 1796.87Z" stroke="#4F81BD" stroke-width="3.4375" stroke-linejoin="round" stroke-miterlimit="10" fill="#4F81BD"/><path d="M4947.69 1786.87C4947.69 1792.95 4942.76 1797.87 4936.69 1797.87 4930.61 1797.87 4925.69 1792.95 4925.69 1786.87 4925.69 1780.8 4930.61 1775.88 4936.69 1775.88 4942.76 1775.88 4947.69 1780.8 4947.69 1786.87Z" stroke="#4F81BD" stroke-width="3.4375" stroke-linejoin="round" stroke-miterlimit="10" fill="#4F81BD"/><path d="M5034.69 1770.87C5034.69 1776.95 5029.76 1781.87 5023.69 1781.87 5017.61 1781.87 5012.69 1776.95 5012.69 1770.87 5012.69 1764.8 5017.61 1759.88 5023.69 1759.88 5029.76 1759.88 5034.69 1764.8 5034.69 1770.87Z" stroke="#4F81BD" stroke-width="3.4375" stroke-linejoin="round" stroke-miterlimit="10" fill="#4F81BD"/><path d="M4981.69 1824.87C4981.69 1830.95 4976.76 1835.87 4970.69 1835.87 4964.61 1835.87 4959.69 1830.95 4959.69 1824.87 4959.69 1818.8 4964.61 1813.88 4970.69 1813.88 4976.76 1813.88 4981.69 1818.8 4981.69 1824.87Z" stroke="#4F81BD" stroke-width="3.4375" stroke-linejoin="round" stroke-miterlimit="10" fill="#4F81BD"/><path d="M5207.69 1784.87C5207.69 1790.95 5202.76 1795.87 5196.69 1795.87 5190.61 1795.87 5185.69 1790.95 5185.69 1784.87 5185.69 1778.8 5190.61 1773.87 5196.69 1773.87 5202.76 1773.87 5207.69 1778.8 5207.69 1784.87Z" stroke="#4F81BD" stroke-width="3.4375" stroke-linejoin="round" stroke-miterlimit="10" fill="#4F81BD"/><path d="M5043.69 1814.87C5043.69 1820.95 5038.76 1825.87 5032.69 1825.87 5026.61 1825.87 5021.69 1820.95 5021.69 1814.87 5021.69 1808.8 5026.61 1803.88 5032.69 1803.88 5038.76 1803.88 5043.69 1808.8 5043.69 1814.87Z" stroke="#4F81BD" stroke-width="3.4375" stroke-linejoin="round" stroke-miterlimit="10" fill="#4F81BD"/><path d="M5335.69 1770.87C5335.69 1776.95 5330.76 1781.87 5324.69 1781.87 5318.61 1781.87 5313.69 1776.95 5313.69 1770.87 5313.69 1764.8 5318.61 1759.88 5324.69 1759.88 5330.76 1759.88 5335.69 1764.8 5335.69 1770.87Z" stroke="#4F81BD" stroke-width="3.4375" stroke-linejoin="round" stroke-miterlimit="10" fill="#4F81BD"/><path d="M5231.69 1820.87C5231.69 1826.95 5226.76 1831.87 5220.69 1831.87 5214.61 1831.87 5209.69 1826.95 5209.69 1820.87 5209.69 1814.8 5214.61 1809.88 5220.69 1809.88 5226.76 1809.88 5231.69 1814.8 5231.69 1820.87Z" stroke="#4F81BD" stroke-width="3.4375" stroke-linejoin="round" stroke-miterlimit="10" fill="#4F81BD"/><path d="M5050.69 1865.87C5050.69 1871.95 5045.76 1876.87 5039.69 1876.87 5033.61 1876.87 5028.69 1871.95 5028.69 1865.87 5028.69 1859.8 5033.61 1854.88 5039.69 1854.88 5045.76 1854.88 5050.69 1859.8 5050.69 1865.87Z" stroke="#4F81BD" stroke-width="3.4375" stroke-linejoin="round" stroke-miterlimit="10" fill="#4F81BD"/><path d="M4922.69 1773.87C4922.69 1779.95 4917.76 1784.87 4911.69 1784.87 4905.61 1784.87 4900.69 1779.95 4900.69 1773.87 4900.69 1767.8 4905.61 1762.87 4911.69 1762.87 4917.76 1762.87 4922.69 1767.8 4922.69 1773.87Z" stroke="#4F81BD" stroke-width="3.4375" stroke-linejoin="round" stroke-miterlimit="10" fill="#4F81BD"/><path d="M4924.69 1739.87C4924.69 1745.95 4919.76 1750.87 4913.69 1750.87 4907.61 1750.87 4902.69 1745.95 4902.69 1739.87 4902.69 1733.8 4907.61 1728.87 4913.69 1728.87 4919.76 1728.87 4924.69 1733.8 4924.69 1739.87Z" stroke="#4F81BD" stroke-width="3.4375" stroke-linejoin="round" stroke-miterlimit="10" fill="#4F81BD"/><path d="M5697.69 1758.87C5697.69 1764.95 5692.76 1769.87 5686.69 1769.87 5680.61 1769.87 5675.69 1764.95 5675.69 1758.87 5675.69 1752.8 5680.61 1747.88 5686.69 1747.88 5692.76 1747.88 5697.69 1752.8 5697.69 1758.87Z" stroke="#4F81BD" stroke-width="3.4375" stroke-linejoin="round" stroke-miterlimit="10" fill="#4F81BD"/><path d="M5133.69 1774.87C5133.69 1780.95 5128.76 1785.87 5122.69 1785.87 5116.61 1785.87 5111.69 1780.95 5111.69 1774.87 5111.69 1768.8 5116.61 1763.88 5122.69 1763.88 5128.76 1763.88 5133.69 1768.8 5133.69 1774.87Z" stroke="#4F81BD" stroke-width="3.4375" stroke-linejoin="round" stroke-miterlimit="10" fill="#4F81BD"/><path d="M4978.69 1841.87C4978.69 1847.95 4973.76 1852.87 4967.69 1852.87 4961.61 1852.87 4956.69 1847.95 4956.69 1841.87 4956.69 1835.8 4961.61 1830.88 4967.69 1830.88 4973.76 1830.88 4978.69 1835.8 4978.69 1841.87Z" stroke="#4F81BD" stroke-width="3.4375" stroke-linejoin="round" stroke-miterlimit="10" fill="#4F81BD"/><path d="M4975.69 1844.87C4975.69 1850.95 4970.76 1855.87 4964.69 1855.87 4958.61 1855.87 4953.69 1850.95 4953.69 1844.87 4953.69 1838.8 4958.61 1833.88 4964.69 1833.88 4970.76 1833.88 4975.69 1838.8 4975.69 1844.87Z" stroke="#4F81BD" stroke-width="3.4375" stroke-linejoin="round" stroke-miterlimit="10" fill="#4F81BD"/><path d="M5155.69 1802.87C5155.69 1808.95 5150.76 1813.87 5144.69 1813.87 5138.61 1813.87 5133.69 1808.95 5133.69 1802.87 5133.69 1796.8 5138.61 1791.88 5144.69 1791.88 5150.76 1791.88 5155.69 1796.8 5155.69 1802.87Z" stroke="#4F81BD" stroke-width="3.4375" stroke-linejoin="round" stroke-miterlimit="10" fill="#4F81BD"/><path d="M5326.69 1858.87C5326.69 1864.95 5321.76 1869.87 5315.69 1869.87 5309.61 1869.87 5304.69 1864.95 5304.69 1858.87 5304.69 1852.8 5309.61 1847.88 5315.69 1847.88 5321.76 1847.88 5326.69 1852.8 5326.69 1858.87Z" stroke="#4F81BD" stroke-width="3.4375" stroke-linejoin="round" stroke-miterlimit="10" fill="#4F81BD"/><path d="M5281.69 1818.87C5281.69 1824.95 5276.76 1829.87 5270.69 1829.87 5264.61 1829.87 5259.69 1824.95 5259.69 1818.87 5259.69 1812.8 5264.61 1807.88 5270.69 1807.88 5276.76 1807.88 5281.69 1812.8 5281.69 1818.87Z" stroke="#4F81BD" stroke-width="3.4375" stroke-linejoin="round" stroke-miterlimit="10" fill="#4F81BD"/><path d="M4932.69 1803.87C4932.69 1809.95 4927.76 1814.87 4921.69 1814.87 4915.61 1814.87 4910.69 1809.95 4910.69 1803.87 4910.69 1797.8 4915.61 1792.88 4921.69 1792.88 4927.76 1792.88 4932.69 1797.8 4932.69 1803.87Z" stroke="#4F81BD" stroke-width="3.4375" stroke-linejoin="round" stroke-miterlimit="10" fill="#4F81BD"/><path d="M5070.69 1847.87C5070.69 1853.95 5065.76 1858.87 5059.69 1858.87 5053.61 1858.87 5048.69 1853.95 5048.69 1847.87 5048.69 1841.8 5053.61 1836.88 5059.69 1836.88 5065.76 1836.88 5070.69 1841.8 5070.69 1847.87Z" stroke="#4F81BD" stroke-width="3.4375" stroke-linejoin="round" stroke-miterlimit="10" fill="#4F81BD"/><path d="M4969.69 1769.87C4969.69 1775.95 4964.76 1780.87 4958.69 1780.87 4952.61 1780.87 4947.69 1775.95 4947.69 1769.87 4947.69 1763.8 4952.61 1758.88 4958.69 1758.88 4964.76 1758.88 4969.69 1763.8 4969.69 1769.87Z" stroke="#4F81BD" stroke-width="3.4375" stroke-linejoin="round" stroke-miterlimit="10" fill="#4F81BD"/><path d="M5096.69 1797.87C5096.69 1803.95 5091.76 1808.87 5085.69 1808.87 5079.61 1808.87 5074.69 1803.95 5074.69 1797.87 5074.69 1791.8 5079.61 1786.88 5085.69 1786.88 5091.76 1786.88 5096.69 1791.8 5096.69 1797.87Z" stroke="#4F81BD" stroke-width="3.4375" stroke-linejoin="round" stroke-miterlimit="10" fill="#4F81BD"/><path d="M5032.69 1761.87C5032.69 1767.95 5027.76 1772.87 5021.69 1772.87 5015.61 1772.87 5010.69 1767.95 5010.69 1761.87 5010.69 1755.8 5015.61 1750.87 5021.69 1750.87 5027.76 1750.87 5032.69 1755.8 5032.69 1761.87Z" stroke="#4F81BD" stroke-width="3.4375" stroke-linejoin="round" stroke-miterlimit="10" fill="#4F81BD"/><path d="M5077.69 1761.87C5077.69 1767.95 5072.76 1772.87 5066.69 1772.87 5060.61 1772.87 5055.69 1767.95 5055.69 1761.87 5055.69 1755.8 5060.61 1750.87 5066.69 1750.87 5072.76 1750.87 5077.69 1755.8 5077.69 1761.87Z" stroke="#4F81BD" stroke-width="3.4375" stroke-linejoin="round" stroke-miterlimit="10" fill="#4F81BD"/><path d="M5283.69 1758.87C5283.69 1764.95 5278.76 1769.87 5272.69 1769.87 5266.61 1769.87 5261.69 1764.95 5261.69 1758.87 5261.69 1752.8 5266.61 1747.88 5272.69 1747.88 5278.76 1747.88 5283.69 1752.8 5283.69 1758.87Z" stroke="#4F81BD" stroke-width="3.4375" stroke-linejoin="round" stroke-miterlimit="10" fill="#4F81BD"/><path d="M5090.69 1858.87C5090.69 1864.95 5085.76 1869.87 5079.69 1869.87 5073.61 1869.87 5068.69 1864.95 5068.69 1858.87 5068.69 1852.8 5073.61 1847.88 5079.69 1847.88 5085.76 1847.88 5090.69 1852.8 5090.69 1858.87Z" stroke="#4F81BD" stroke-width="3.4375" stroke-linejoin="round" stroke-miterlimit="10" fill="#4F81BD"/><path d="M5026.69 1862.87C5026.69 1868.95 5021.76 1873.87 5015.69 1873.87 5009.61 1873.87 5004.69 1868.95 5004.69 1862.87 5004.69 1856.8 5009.61 1851.88 5015.69 1851.88 5021.76 1851.88 5026.69 1856.8 5026.69 1862.87Z" stroke="#4F81BD" stroke-width="3.4375" stroke-linejoin="round" stroke-miterlimit="10" fill="#4F81BD"/><path d="M4963.69 1867.87C4963.69 1873.95 4958.76 1878.87 4952.69 1878.87 4946.61 1878.87 4941.69 1873.95 4941.69 1867.87 4941.69 1861.8 4946.61 1856.88 4952.69 1856.88 4958.76 1856.88 4963.69 1861.8 4963.69 1867.87Z" stroke="#4F81BD" stroke-width="3.4375" stroke-linejoin="round" stroke-miterlimit="10" fill="#4F81BD"/><path d="M5112.69 1764.87C5112.69 1770.95 5107.76 1775.87 5101.69 1775.87 5095.61 1775.87 5090.69 1770.95 5090.69 1764.87 5090.69 1758.8 5095.61 1753.88 5101.69 1753.88 5107.76 1753.88 5112.69 1758.8 5112.69 1764.87Z" stroke="#4F81BD" stroke-width="3.4375" stroke-linejoin="round" stroke-miterlimit="10" fill="#4F81BD"/><path d="M4946.69 1753.87C4946.69 1759.95 4941.76 1764.87 4935.69 1764.87 4929.61 1764.87 4924.69 1759.95 4924.69 1753.87 4924.69 1747.8 4929.61 1742.88 4935.69 1742.88 4941.76 1742.88 4946.69 1747.8 4946.69 1753.87Z" stroke="#4F81BD" stroke-width="3.4375" stroke-linejoin="round" stroke-miterlimit="10" fill="#4F81BD"/><path d="M4977.69 1851.87C4977.69 1857.95 4972.76 1862.87 4966.69 1862.87 4960.61 1862.87 4955.69 1857.95 4955.69 1851.87 4955.69 1845.8 4960.61 1840.88 4966.69 1840.88 4972.76 1840.88 4977.69 1845.8 4977.69 1851.87Z" stroke="#4F81BD" stroke-width="3.4375" stroke-linejoin="round" stroke-miterlimit="10" fill="#4F81BD"/><path d="M5139.69 1792.87C5139.69 1798.95 5134.76 1803.87 5128.69 1803.87 5122.61 1803.87 5117.69 1798.95 5117.69 1792.87 5117.69 1786.8 5122.61 1781.88 5128.69 1781.88 5134.76 1781.88 5139.69 1786.8 5139.69 1792.87Z" stroke="#4F81BD" stroke-width="3.4375" stroke-linejoin="round" stroke-miterlimit="10" fill="#4F81BD"/><path d="M5017.69 1821.87C5017.69 1827.95 5012.76 1832.87 5006.69 1832.87 5000.61 1832.87 4995.69 1827.95 4995.69 1821.87 4995.69 1815.8 5000.61 1810.88 5006.69 1810.88 5012.76 1810.88 5017.69 1815.8 5017.69 1821.87Z" stroke="#4F81BD" stroke-width="3.4375" stroke-linejoin="round" stroke-miterlimit="10" fill="#4F81BD"/><path d="M4963.69 1721.87C4963.69 1727.95 4958.76 1732.87 4952.69 1732.87 4946.61 1732.87 4941.69 1727.95 4941.69 1721.87 4941.69 1715.8 4946.61 1710.88 4952.69 1710.88 4958.76 1710.88 4963.69 1715.8 4963.69 1721.87Z" stroke="#4F81BD" stroke-width="3.4375" stroke-linejoin="round" stroke-miterlimit="10" fill="#4F81BD"/><path d="M4969.69 1977.87C4969.69 1983.95 4964.76 1988.87 4958.69 1988.87 4952.61 1988.87 4947.69 1983.95 4947.69 1977.87 4947.69 1971.8 4952.61 1966.88 4958.69 1966.88 4964.76 1966.88 4969.69 1971.8 4969.69 1977.87Z" stroke="#4F81BD" stroke-width="3.4375" stroke-linejoin="round" stroke-miterlimit="10" fill="#4F81BD"/><path d="M4995.69 1760.87C4995.69 1766.95 4990.76 1771.87 4984.69 1771.87 4978.61 1771.87 4973.69 1766.95 4973.69 1760.87 4973.69 1754.8 4978.61 1749.88 4984.69 1749.88 4990.76 1749.88 4995.69 1754.8 4995.69 1760.87Z" stroke="#4F81BD" stroke-width="3.4375" stroke-linejoin="round" stroke-miterlimit="10" fill="#4F81BD"/><path d="M5410.69 1727.87C5410.69 1733.95 5405.76 1738.87 5399.69 1738.87 5393.61 1738.87 5388.69 1733.95 5388.69 1727.87 5388.69 1721.8 5393.61 1716.88 5399.69 1716.88 5405.76 1716.88 5410.69 1721.8 5410.69 1727.87Z" stroke="#4F81BD" stroke-width="3.4375" stroke-linejoin="round" stroke-miterlimit="10" fill="#4F81BD"/><path d="M5052.69 1838.87C5052.69 1844.95 5047.76 1849.87 5041.69 1849.87 5035.61 1849.87 5030.69 1844.95 5030.69 1838.87 5030.69 1832.8 5035.61 1827.87 5041.69 1827.87 5047.76 1827.87 5052.69 1832.8 5052.69 1838.87Z" stroke="#4F81BD" stroke-width="3.4375" stroke-linejoin="round" stroke-miterlimit="10" fill="#4F81BD"/><path d="M5311.69 1778.87C5311.69 1784.95 5306.76 1789.87 5300.69 1789.87 5294.61 1789.87 5289.69 1784.95 5289.69 1778.87 5289.69 1772.8 5294.61 1767.88 5300.69 1767.88 5306.76 1767.88 5311.69 1772.8 5311.69 1778.87Z" stroke="#4F81BD" stroke-width="3.4375" stroke-linejoin="round" stroke-miterlimit="10" fill="#4F81BD"/><path d="M4967.69 1925.87C4967.69 1931.95 4962.76 1936.87 4956.69 1936.87 4950.61 1936.87 4945.69 1931.95 4945.69 1925.87 4945.69 1919.8 4950.61 1914.88 4956.69 1914.88 4962.76 1914.88 4967.69 1919.8 4967.69 1925.87Z" stroke="#4F81BD" stroke-width="3.4375" stroke-linejoin="round" stroke-miterlimit="10" fill="#4F81BD"/><path d="M5224.69 1775.87C5224.69 1781.95 5219.76 1786.87 5213.69 1786.87 5207.61 1786.87 5202.69 1781.95 5202.69 1775.87 5202.69 1769.8 5207.61 1764.88 5213.69 1764.88 5219.76 1764.88 5224.69 1769.8 5224.69 1775.87Z" stroke="#4F81BD" stroke-width="3.4375" stroke-linejoin="round" stroke-miterlimit="10" fill="#4F81BD"/><path d="M5472.69 1784.87C5472.69 1790.95 5467.76 1795.87 5461.69 1795.87 5455.61 1795.87 5450.69 1790.95 5450.69 1784.87 5450.69 1778.8 5455.61 1773.87 5461.69 1773.87 5467.76 1773.87 5472.69 1778.8 5472.69 1784.87Z" stroke="#4F81BD" stroke-width="3.4375" stroke-linejoin="round" stroke-miterlimit="10" fill="#4F81BD"/><path d="M5013.69 1808.87C5013.69 1814.95 5008.76 1819.87 5002.69 1819.87 4996.61 1819.87 4991.69 1814.95 4991.69 1808.87 4991.69 1802.8 4996.61 1797.88 5002.69 1797.88 5008.76 1797.88 5013.69 1802.8 5013.69 1808.87Z" stroke="#4F81BD" stroke-width="3.4375" stroke-linejoin="round" stroke-miterlimit="10" fill="#4F81BD"/><path d="M4902.69 1753.87C4902.69 1759.95 4897.76 1764.87 4891.69 1764.87 4885.61 1764.87 4880.69 1759.95 4880.69 1753.87 4880.69 1747.8 4885.61 1742.88 4891.69 1742.88 4897.76 1742.88 4902.69 1747.8 4902.69 1753.87Z" stroke="#4F81BD" stroke-width="3.4375" stroke-linejoin="round" stroke-miterlimit="10" fill="#4F81BD"/><path d="M5205.69 1756.87C5205.69 1762.95 5200.76 1767.87 5194.69 1767.87 5188.61 1767.87 5183.69 1762.95 5183.69 1756.87 5183.69 1750.8 5188.61 1745.88 5194.69 1745.88 5200.76 1745.88 5205.69 1750.8 5205.69 1756.87Z" stroke="#4F81BD" stroke-width="3.4375" stroke-linejoin="round" stroke-miterlimit="10" fill="#4F81BD"/><path d="M4986.69 1955.87C4986.69 1961.95 4981.76 1966.87 4975.69 1966.87 4969.61 1966.87 4964.69 1961.95 4964.69 1955.87 4964.69 1949.8 4969.61 1944.88 4975.69 1944.88 4981.76 1944.88 4986.69 1949.8 4986.69 1955.87Z" stroke="#4F81BD" stroke-width="3.4375" stroke-linejoin="round" stroke-miterlimit="10" fill="#4F81BD"/><path d="M5022.69 1770.87C5022.69 1776.95 5017.76 1781.87 5011.69 1781.87 5005.61 1781.87 5000.69 1776.95 5000.69 1770.87 5000.69 1764.8 5005.61 1759.88 5011.69 1759.88 5017.76 1759.88 5022.69 1764.8 5022.69 1770.87Z" stroke="#4F81BD" stroke-width="3.4375" stroke-linejoin="round" stroke-miterlimit="10" fill="#4F81BD"/><path d="M5181.69 1812.87C5181.69 1818.95 5176.76 1823.87 5170.69 1823.87 5164.61 1823.87 5159.69 1818.95 5159.69 1812.87 5159.69 1806.8 5164.61 1801.88 5170.69 1801.88 5176.76 1801.88 5181.69 1806.8 5181.69 1812.87Z" stroke="#4F81BD" stroke-width="3.4375" stroke-linejoin="round" stroke-miterlimit="10" fill="#4F81BD"/><path d="M4969.69 1740.87C4969.69 1746.95 4964.76 1751.87 4958.69 1751.87 4952.61 1751.87 4947.69 1746.95 4947.69 1740.87 4947.69 1734.8 4952.61 1729.87 4958.69 1729.87 4964.76 1729.87 4969.69 1734.8 4969.69 1740.87Z" stroke="#4F81BD" stroke-width="3.4375" stroke-linejoin="round" stroke-miterlimit="10" fill="#4F81BD"/><path d="M5042.69 1783.87C5042.69 1789.95 5037.76 1794.87 5031.69 1794.87 5025.61 1794.87 5020.69 1789.95 5020.69 1783.87 5020.69 1777.8 5025.61 1772.87 5031.69 1772.87 5037.76 1772.87 5042.69 1777.8 5042.69 1783.87Z" stroke="#4F81BD" stroke-width="3.4375" stroke-linejoin="round" stroke-miterlimit="10" fill="#4F81BD"/><path d="M5093.69 1783.87C5093.69 1789.95 5088.76 1794.87 5082.69 1794.87 5076.61 1794.87 5071.69 1789.95 5071.69 1783.87 5071.69 1777.8 5076.61 1772.87 5082.69 1772.87 5088.76 1772.87 5093.69 1777.8 5093.69 1783.87Z" stroke="#4F81BD" stroke-width="3.4375" stroke-linejoin="round" stroke-miterlimit="10" fill="#4F81BD"/><path d="M4935.69 1736.87C4935.69 1742.95 4930.76 1747.87 4924.69 1747.87 4918.61 1747.87 4913.69 1742.95 4913.69 1736.87 4913.69 1730.8 4918.61 1725.88 4924.69 1725.88 4930.76 1725.88 4935.69 1730.8 4935.69 1736.87Z" stroke="#4F81BD" stroke-width="3.4375" stroke-linejoin="round" stroke-miterlimit="10" fill="#4F81BD"/><path d="M5083.69 1787.87C5083.69 1793.95 5078.76 1798.87 5072.69 1798.87 5066.61 1798.87 5061.69 1793.95 5061.69 1787.87 5061.69 1781.8 5066.61 1776.88 5072.69 1776.88 5078.76 1776.88 5083.69 1781.8 5083.69 1787.87Z" stroke="#4F81BD" stroke-width="3.4375" stroke-linejoin="round" stroke-miterlimit="10" fill="#4F81BD"/><path d="M4949.69 1725.87C4949.69 1731.95 4944.76 1736.87 4938.69 1736.87 4932.61 1736.87 4927.69 1731.95 4927.69 1725.87 4927.69 1719.8 4932.61 1714.88 4938.69 1714.88 4944.76 1714.88 4949.69 1719.8 4949.69 1725.87Z" stroke="#4F81BD" stroke-width="3.4375" stroke-linejoin="round" stroke-miterlimit="10" fill="#4F81BD"/><path d="M5095.69 1827.87C5095.69 1833.95 5090.76 1838.87 5084.69 1838.87 5078.61 1838.87 5073.69 1833.95 5073.69 1827.87 5073.69 1821.8 5078.61 1816.87 5084.69 1816.87 5090.76 1816.87 5095.69 1821.8 5095.69 1827.87Z" stroke="#4F81BD" stroke-width="3.4375" stroke-linejoin="round" stroke-miterlimit="10" fill="#4F81BD"/><path d="M4955.69 1774.87C4955.69 1780.95 4950.76 1785.87 4944.69 1785.87 4938.61 1785.87 4933.69 1780.95 4933.69 1774.87 4933.69 1768.8 4938.61 1763.88 4944.69 1763.88 4950.76 1763.88 4955.69 1768.8 4955.69 1774.87Z" stroke="#4F81BD" stroke-width="3.4375" stroke-linejoin="round" stroke-miterlimit="10" fill="#4F81BD"/><path d="M5052.69 1770.87C5052.69 1776.95 5047.76 1781.87 5041.69 1781.87 5035.61 1781.87 5030.69 1776.95 5030.69 1770.87 5030.69 1764.8 5035.61 1759.88 5041.69 1759.88 5047.76 1759.88 5052.69 1764.8 5052.69 1770.87Z" stroke="#4F81BD" stroke-width="3.4375" stroke-linejoin="round" stroke-miterlimit="10" fill="#4F81BD"/><path d="M5338.69 1808.87C5338.69 1814.95 5333.76 1819.87 5327.69 1819.87 5321.61 1819.87 5316.69 1814.95 5316.69 1808.87 5316.69 1802.8 5321.61 1797.88 5327.69 1797.88 5333.76 1797.88 5338.69 1802.8 5338.69 1808.87Z" stroke="#4F81BD" stroke-width="3.4375" stroke-linejoin="round" stroke-miterlimit="10" fill="#4F81BD"/><path d="M5490.69 1776.87C5490.69 1782.95 5485.76 1787.87 5479.69 1787.87 5473.61 1787.87 5468.69 1782.95 5468.69 1776.87 5468.69 1770.8 5473.61 1765.88 5479.69 1765.88 5485.76 1765.88 5490.69 1770.8 5490.69 1776.87Z" stroke="#4F81BD" stroke-width="3.4375" stroke-linejoin="round" stroke-miterlimit="10" fill="#4F81BD"/><path d="M5027.69 1796.87C5027.69 1802.95 5022.76 1807.87 5016.69 1807.87 5010.61 1807.87 5005.69 1802.95 5005.69 1796.87 5005.69 1790.8 5010.61 1785.88 5016.69 1785.88 5022.76 1785.88 5027.69 1790.8 5027.69 1796.87Z" stroke="#4F81BD" stroke-width="3.4375" stroke-linejoin="round" stroke-miterlimit="10" fill="#4F81BD"/><path d="M5233.69 1780.87C5233.69 1786.95 5228.76 1791.87 5222.69 1791.87 5216.61 1791.87 5211.69 1786.95 5211.69 1780.87 5211.69 1774.8 5216.61 1769.88 5222.69 1769.88 5228.76 1769.88 5233.69 1774.8 5233.69 1780.87Z" stroke="#4F81BD" stroke-width="3.4375" stroke-linejoin="round" stroke-miterlimit="10" fill="#4F81BD"/><path d="M5140.69 1793.87C5140.69 1799.95 5135.76 1804.87 5129.69 1804.87 5123.61 1804.87 5118.69 1799.95 5118.69 1793.87 5118.69 1787.8 5123.61 1782.88 5129.69 1782.88 5135.76 1782.88 5140.69 1787.8 5140.69 1793.87Z" stroke="#4F81BD" stroke-width="3.4375" stroke-linejoin="round" stroke-miterlimit="10" fill="#4F81BD"/><path d="M4983.69 1793.87C4983.69 1799.95 4978.76 1804.87 4972.69 1804.87 4966.61 1804.87 4961.69 1799.95 4961.69 1793.87 4961.69 1787.8 4966.61 1782.88 4972.69 1782.88 4978.76 1782.88 4983.69 1787.8 4983.69 1793.87Z" stroke="#4F81BD" stroke-width="3.4375" stroke-linejoin="round" stroke-miterlimit="10" fill="#4F81BD"/><path d="M4958.69 1734.87C4958.69 1740.95 4953.76 1745.87 4947.69 1745.87 4941.61 1745.87 4936.69 1740.95 4936.69 1734.87 4936.69 1728.8 4941.61 1723.88 4947.69 1723.88 4953.76 1723.88 4958.69 1728.8 4958.69 1734.87Z" stroke="#4F81BD" stroke-width="3.4375" stroke-linejoin="round" stroke-miterlimit="10" fill="#4F81BD"/><path d="M5228.69 1751.87C5228.69 1757.95 5223.76 1762.87 5217.69 1762.87 5211.61 1762.87 5206.69 1757.95 5206.69 1751.87 5206.69 1745.8 5211.61 1740.87 5217.69 1740.87 5223.76 1740.87 5228.69 1745.8 5228.69 1751.87Z" stroke="#4F81BD" stroke-width="3.4375" stroke-linejoin="round" stroke-miterlimit="10" fill="#4F81BD"/><path d="M5191.69 1817.87C5191.69 1823.95 5186.76 1828.87 5180.69 1828.87 5174.61 1828.87 5169.69 1823.95 5169.69 1817.87 5169.69 1811.8 5174.61 1806.87 5180.69 1806.87 5186.76 1806.87 5191.69 1811.8 5191.69 1817.87Z" stroke="#4F81BD" stroke-width="3.4375" stroke-linejoin="round" stroke-miterlimit="10" fill="#4F81BD"/><path d="M5006.69 1735.87C5006.69 1741.95 5001.76 1746.87 4995.69 1746.87 4989.61 1746.87 4984.69 1741.95 4984.69 1735.87 4984.69 1729.8 4989.61 1724.88 4995.69 1724.88 5001.76 1724.88 5006.69 1729.8 5006.69 1735.87Z" stroke="#4F81BD" stroke-width="3.4375" stroke-linejoin="round" stroke-miterlimit="10" fill="#4F81BD"/><path d="M5011.69 1863.87C5011.69 1869.95 5006.76 1874.87 5000.69 1874.87 4994.61 1874.87 4989.69 1869.95 4989.69 1863.87 4989.69 1857.8 4994.61 1852.88 5000.69 1852.88 5006.76 1852.88 5011.69 1857.8 5011.69 1863.87Z" stroke="#4F81BD" stroke-width="3.4375" stroke-linejoin="round" stroke-miterlimit="10" fill="#4F81BD"/><path d="M5121.69 1798.87C5121.69 1804.95 5116.76 1809.87 5110.69 1809.87 5104.61 1809.87 5099.69 1804.95 5099.69 1798.87 5099.69 1792.8 5104.61 1787.88 5110.69 1787.88 5116.76 1787.88 5121.69 1792.8 5121.69 1798.87Z" stroke="#4F81BD" stroke-width="3.4375" stroke-linejoin="round" stroke-miterlimit="10" fill="#4F81BD"/><path d="M5101.69 1764.87C5101.69 1770.95 5096.76 1775.87 5090.69 1775.87 5084.61 1775.87 5079.69 1770.95 5079.69 1764.87 5079.69 1758.8 5084.61 1753.88 5090.69 1753.88 5096.76 1753.88 5101.69 1758.8 5101.69 1764.87Z" stroke="#4F81BD" stroke-width="3.4375" stroke-linejoin="round" stroke-miterlimit="10" fill="#4F81BD"/><path d="M5047.69 1819.87C5047.69 1825.95 5042.76 1830.87 5036.69 1830.87 5030.61 1830.87 5025.69 1825.95 5025.69 1819.87 5025.69 1813.8 5030.61 1808.88 5036.69 1808.88 5042.76 1808.88 5047.69 1813.8 5047.69 1819.87Z" stroke="#4F81BD" stroke-width="3.4375" stroke-linejoin="round" stroke-miterlimit="10" fill="#4F81BD"/><path d="M4943.69 1715.87C4943.69 1721.95 4938.76 1726.87 4932.69 1726.87 4926.61 1726.87 4921.69 1721.95 4921.69 1715.87 4921.69 1709.8 4926.61 1704.88 4932.69 1704.88 4938.76 1704.88 4943.69 1709.8 4943.69 1715.87Z" stroke="#4F81BD" stroke-width="3.4375" stroke-linejoin="round" stroke-miterlimit="10" fill="#4F81BD"/><path d="M4992.69 1737.87C4992.69 1743.95 4987.76 1748.87 4981.69 1748.87 4975.61 1748.87 4970.69 1743.95 4970.69 1737.87 4970.69 1731.8 4975.61 1726.88 4981.69 1726.88 4987.76 1726.88 4992.69 1731.8 4992.69 1737.87Z" stroke="#4F81BD" stroke-width="3.4375" stroke-linejoin="round" stroke-miterlimit="10" fill="#4F81BD"/><path d="M5380.69 1723.87C5380.69 1729.95 5375.76 1734.87 5369.69 1734.87 5363.61 1734.87 5358.69 1729.95 5358.69 1723.87 5358.69 1717.8 5363.61 1712.88 5369.69 1712.88 5375.76 1712.88 5380.69 1717.8 5380.69 1723.87Z" stroke="#4F81BD" stroke-width="3.4375" stroke-linejoin="round" stroke-miterlimit="10" fill="#4F81BD"/></g><g clip-path="url(#clip6)"><text fill="#595959" font-family="Calibri,Calibri_MSFontService,sans-serif" font-weight="400" font-size="41" transform="matrix(1 0 0 1 4563.97 2324)">0</text></g><g clip-path="url(#clip7)"><text fill="#595959" font-family="Calibri,Calibri_MSFontService,sans-serif" font-weight="400" font-size="41" transform="matrix(1 0 0 1 4543.07 2260)">10</text></g><g clip-path="url(#clip8)"><text fill="#595959" font-family="Calibri,Calibri_MSFontService,sans-serif" font-weight="400" font-size="41" transform="matrix(1 0 0 1 4543.07 2196)">20</text></g><g clip-path="url(#clip9)"><text fill="#595959" font-family="Calibri,Calibri_MSFontService,sans-serif" font-weight="400" font-size="41" transform="matrix(1 0 0 1 4543.07 2132)">30</text></g><g clip-path="url(#clip10)"><text fill="#595959" font-family="Calibri,Calibri_MSFontService,sans-serif" font-weight="400" font-size="41" transform="matrix(1 0 0 1 4543.07 2068)">40</text></g><g clip-path="url(#clip11)"><text fill="#595959" font-family="Calibri,Calibri_MSFontService,sans-serif" font-weight="400" font-size="41" transform="matrix(1 0 0 1 4543.07 2004)">50</text></g><g clip-path="url(#clip12)"><text fill="#595959" font-family="Calibri,Calibri_MSFontService,sans-serif" font-weight="400" font-size="41" transform="matrix(1 0 0 1 4543.07 1940)">60</text></g><g clip-path="url(#clip13)"><text fill="#595959" font-family="Calibri,Calibri_MSFontService,sans-serif" font-weight="400" font-size="41" transform="matrix(1 0 0 1 4543.07 1876)">70</text></g><g clip-path="url(#clip14)"><text fill="#595959" font-family="Calibri,Calibri_MSFontService,sans-serif" font-weight="400" font-size="41" transform="matrix(1 0 0 1 4543.07 1812)">80</text></g><g clip-path="url(#clip15)"><text fill="#595959" font-family="Calibri,Calibri_MSFontService,sans-serif" font-weight="400" font-size="41" transform="matrix(1 0 0 1 4543.07 1748)">90</text></g><g clip-path="url(#clip16)"><text fill="#595959" font-family="Calibri,Calibri_MSFontService,sans-serif" font-weight="400" font-size="41" transform="matrix(1 0 0 1 4522.17 1684)">100</text></g><g clip-path="url(#clip17)"><text fill="#595959" font-family="Calibri,Calibri_MSFontService,sans-serif" font-weight="400" font-size="41" transform="matrix(1 0 0 1 4597.57 2378)">$0</text></g><g clip-path="url(#clip18)"><text fill="#595959" font-family="Calibri,Calibri_MSFontService,sans-serif" font-weight="400" font-size="41" transform="matrix(1 0 0 1 4734.72 2378)">$20,000</text></g><g clip-path="url(#clip19)"><text fill="#595959" font-family="Calibri,Calibri_MSFontService,sans-serif" font-weight="400" font-size="41" transform="matrix(1 0 0 1 4918.82 2378)">$40,000</text></g><g clip-path="url(#clip20)"><text fill="#595959" font-family="Calibri,Calibri_MSFontService,sans-serif" font-weight="400" font-size="41" transform="matrix(1 0 0 1 5102.92 2378)">$60,000</text></g><g clip-path="url(#clip21)"><text fill="#595959" font-family="Calibri,Calibri_MSFontService,sans-serif" font-weight="400" font-size="41" transform="matrix(1 0 0 1 5287.01 2378)">$80,000</text></g><g clip-path="url(#clip22)"><text fill="#595959" font-family="Calibri,Calibri_MSFontService,sans-serif" font-weight="400" font-size="41" transform="matrix(1 0 0 1 5460.66 2378)">$100,000</text></g><g clip-path="url(#clip23)"><text fill="#595959" font-family="Calibri,Calibri_MSFontService,sans-serif" font-weight="400" font-size="41" transform="matrix(1 0 0 1 5644.76 2378)">$120,000</text></g><g clip-path="url(#clip24)"><text fill="#595959" font-family="Calibri,Calibri_MSFontService,sans-serif" font-weight="400" font-size="41" transform="matrix(1 0 0 1 5828.85 2378)">$140,000</text></g><g clip-path="url(#clip25)"><text fill="#595959" font-family="Calibri,Calibri_MSFontService,sans-serif" font-weight="400" font-size="46" transform="matrix(6.12323e-17 -1 1 6.12323e-17 4496.48 2131)">SOL Pass Rates</text></g><g clip-path="url(#clip26)"><text fill="#595959" font-family="Calibri,Calibri_MSFontService,sans-serif" font-weight="400" font-size="46" transform="matrix(1 0 0 1 5016.28 2447)">Median Household Income</text></g><g clip-path="url(#clip27)"><text fill="#595959" font-family="Calibri,Calibri_MSFontService,sans-serif" font-weight="400" font-size="50" transform="matrix(1 0 0 1 4609.53 1602)">The Effect of County Members' Affluency on SOL Pass Rates</text></g><rect x="4395.5" y="1519.5" width="1650" height="997" stroke="#D9D9D9" stroke-width="3.4375" stroke-linejoin="round" stroke-miterlimit="10" fill="none"/></g></svg>