<svg width="1651" height="988" xmlns="http://www.w3.org/2000/svg" xmlns:xlink="http://www.w3.org/1999/xlink" overflow="hidden"><defs><clipPath id="clip0"><rect x="4682" y="625" width="1651" height="988"/></clipPath><clipPath id="clip1"><rect x="4682" y="625" width="1649" height="986"/></clipPath><clipPath id="clip2"><rect x="4682" y="625" width="1649" height="986"/></clipPath><clipPath id="clip3"><rect x="4682" y="625" width="1649" height="986"/></clipPath><clipPath id="clip4"><rect x="4682" y="625" width="1649" height="986"/></clipPath><clipPath id="clip5"><rect x="4682" y="625" width="1649" height="986"/></clipPath><clipPath id="clip6"><rect x="4682" y="625" width="1649" height="986"/></clipPath><clipPath id="clip7"><rect x="4682" y="625" width="1649" height="986"/></clipPath><clipPath id="clip8"><rect x="4682" y="625" width="1649" height="986"/></clipPath><clipPath id="clip9"><rect x="4682" y="625" width="1649" height="986"/></clipPath><clipPath id="clip10"><rect x="4682" y="625" width="1649" height="986"/></clipPath><clipPath id="clip11"><rect x="4682" y="625" width="1649" height="986"/></clipPath><clipPath id="clip12"><rect x="4682" y="625" width="1649" height="986"/></clipPath><clipPath id="clip13"><rect x="4682" y="625" width="1649" height="986"/></clipPath><clipPath id="clip14"><rect x="4682" y="625" width="1649" height="986"/></clipPath><clipPath id="clip15"><rect x="4682" y="625" width="1649" height="986"/></clipPath><clipPath id="clip16"><rect x="4682" y="625" width="1649" height="986"/></clipPath><clipPath id="clip17"><rect x="4682" y="625" width="1649" height="986"/></clipPath><clipPath id="clip18"><rect x="4682" y="625" width="1649" height="986"/></clipPath><clipPath id="clip19"><rect x="4682" y="625" width="1649" height="986"/></clipPath><clipPath id="clip20"><rect x="4682" y="625" width="1649" height="986"/></clipPath><clipPath id="clip21"><rect x="4682" y="625" width="1649" height="986"/></clipPath><clipPath id="clip22"><rect x="4682" y="625" width="1649" height="986"/></clipPath><clipPath id="clip23"><rect x="4682" y="625" width="1649" height="986"/></clipPath><clipPath id="clip24"><rect x="4682" y="625" width="1649" height="986"/></clipPath><clipPath id="clip25"><rect x="4682" y="625" width="1649" height="986"/></clipPath><clipPath id="clip26"><rect x="4682" y="625" width="1649" height="986"/></clipPath><clipPath id="clip27"><rect x="4682" y="625" width="1649" height="986"/></clipPath></defs><g clip-path="url(#clip0)" transform="translate(-4682 -625)"><rect x="4683" y="626" width="1648" height="985" fill="#FFFFFF"/><g clip-path="url(#clip1)"><path d="M4896.76 1351.06 6200.24 1351.06M4896.76 1289.89 6200.24 1289.89M4896.76 1228.72 6200.24 1228.72M4896.76 1167.55 6200.24 1167.55M4896.76 1106.39 6200.24 1106.39M4896.76 1045.22 6200.24 1045.22M4896.76 984.051 6200.24 984.051M4896.76 922.883 6200.24 922.883M4896.76 861.715 6200.24 861.715M4896.76 800.548 6200.24 800.548" stroke="#D9D9D9" stroke-width="3.4375" stroke-linejoin="round" stroke-miterlimit="10" fill="none"/></g><g clip-path="url(#clip2)"><path d="M5082.97 800.548 5082.97 1412.22M5269.18 800.548 5269.18 1412.22M5455.4 800.548 5455.4 1412.22M5641.61 800.548 5641.61 1412.22M5827.82 800.548 5827.82 1412.22M6014.03 800.548 6014.03 1412.22M6200.24 800.548 6200.24 1412.22" stroke="#D9D9D9" stroke-width="3.4375" stroke-linejoin="round" stroke-miterlimit="10" fill="none"/></g><g clip-path="url(#clip3)"><path d="M0 0 0.000360892 612" stroke="#BFBFBF" stroke-width="3.4375" stroke-linejoin="round" stroke-miterlimit="10" fill="none" fill-rule="evenodd" transform="matrix(1 0 0 -1 4896.5 1412.5)"/></g><g clip-path="url(#clip4)"><path d="M4896.5 1412.5 6200.5 1412.5" stroke="#BFBFBF" stroke-width="3.4375" stroke-linejoin="round" stroke-miterlimit="10" fill="none" fill-rule="evenodd"/></g><g clip-path="url(#clip5)"><path d="M5538.06 931.468C5538.06 937.543 5533.14 942.468 5527.06 942.468 5520.99 942.468 5516.06 937.543 5516.06 931.468 5516.06 925.393 5520.99 920.469 5527.06 920.469 5533.14 920.469 5538.06 925.393 5538.06 931.468Z" stroke="#4F81BD" stroke-width="3.4375" stroke-linejoin="round" stroke-miterlimit="10" fill="#4F81BD"/><path d="M5616.06 902.468C5616.06 908.543 5611.14 913.468 5605.06 913.468 5598.99 913.468 5594.06 908.543 5594.06 902.468 5594.06 896.394 5598.99 891.469 5605.06 891.469 5611.14 891.469 5616.06 896.394 5616.06 902.468Z" stroke="#4F81BD" stroke-width="3.4375" stroke-linejoin="round" stroke-miterlimit="10" fill="#4F81BD"/><path d="M5524.06 866.468C5524.06 872.543 5519.14 877.468 5513.06 877.468 5506.99 877.468 5502.06 872.543 5502.06 866.468 5502.06 860.393 5506.99 855.469 5513.06 855.469 5519.14 855.469 5524.06 860.393 5524.06 866.468Z" stroke="#4F81BD" stroke-width="3.4375" stroke-linejoin="round" stroke-miterlimit="10" fill="#4F81BD"/><path d="M5445.06 853.468C5445.06 859.543 5440.14 864.468 5434.06 864.468 5427.99 864.468 5423.06 859.543 5423.06 853.468 5423.06 847.393 5427.99 842.469 5434.06 842.469 5440.14 842.469 5445.06 847.393 5445.06 853.468Z" stroke="#4F81BD" stroke-width="3.4375" stroke-linejoin="round" stroke-miterlimit="10" fill="#4F81BD"/><path d="M5540.06 952.468C5540.06 958.543 5535.14 963.468 5529.06 963.468 5522.99 963.468 5518.06 958.543 5518.06 952.468 5518.06 946.393 5522.99 941.469 5529.06 941.469 5535.14 941.469 5540.06 946.393 5540.06 952.468Z" stroke="#4F81BD" stroke-width="3.4375" stroke-linejoin="round" stroke-miterlimit="10" fill="#4F81BD"/><path d="M5480.06 986.468C5480.06 992.543 5475.14 997.468 5469.06 997.468 5462.99 997.468 5458.06 992.543 5458.06 986.468 5458.06 980.393 5462.99 975.469 5469.06 975.469 5475.14 975.469 5480.06 980.393 5480.06 986.468Z" stroke="#4F81BD" stroke-width="3.4375" stroke-linejoin="round" stroke-miterlimit="10" fill="#4F81BD"/><path d="M6012.06 885.468C6012.06 891.543 6007.14 896.468 6001.06 896.468 5994.99 896.468 5990.06 891.543 5990.06 885.468 5990.06 879.393 5994.99 874.469 6001.06 874.469 6007.14 874.469 6012.06 879.393 6012.06 885.468Z" stroke="#4F81BD" stroke-width="3.4375" stroke-linejoin="round" stroke-miterlimit="10" fill="#4F81BD"/><path d="M5521.06 916.468C5521.06 922.543 5516.14 927.468 5510.06 927.468 5503.99 927.468 5499.06 922.543 5499.06 916.468 5499.06 910.393 5503.99 905.469 5510.06 905.469 5516.14 905.469 5521.06 910.393 5521.06 916.468Z" stroke="#4F81BD" stroke-width="3.4375" stroke-linejoin="round" stroke-miterlimit="10" fill="#4F81BD"/><path d="M5832.06 906.468C5832.06 912.543 5827.14 917.468 5821.06 917.468 5814.99 917.468 5810.06 912.543 5810.06 906.468 5810.06 900.393 5814.99 895.469 5821.06 895.469 5827.14 895.469 5832.06 900.393 5832.06 906.468Z" stroke="#4F81BD" stroke-width="3.4375" stroke-linejoin="round" stroke-miterlimit="10" fill="#4F81BD"/><path d="M5475.06 896.468C5475.06 902.543 5470.14 907.468 5464.06 907.468 5457.99 907.468 5453.06 902.543 5453.06 896.468 5453.06 890.393 5457.99 885.469 5464.06 885.469 5470.14 885.469 5475.06 890.393 5475.06 896.468Z" stroke="#4F81BD" stroke-width="3.4375" stroke-linejoin="round" stroke-miterlimit="10" fill="#4F81BD"/><path d="M5527.06 994.468C5527.06 1000.54 5522.14 1005.47 5516.06 1005.47 5509.99 1005.47 5505.06 1000.54 5505.06 994.468 5505.06 988.393 5509.99 983.469 5516.06 983.469 5522.14 983.469 5527.06 988.393 5527.06 994.468Z" stroke="#4F81BD" stroke-width="3.4375" stroke-linejoin="round" stroke-miterlimit="10" fill="#4F81BD"/><path d="M5564.06 978.468C5564.06 984.543 5559.14 989.468 5553.06 989.468 5546.99 989.468 5542.06 984.543 5542.06 978.468 5542.06 972.393 5546.99 967.469 5553.06 967.469 5559.14 967.469 5564.06 972.393 5564.06 978.468Z" stroke="#4F81BD" stroke-width="3.4375" stroke-linejoin="round" stroke-miterlimit="10" fill="#4F81BD"/><path d="M5513.06 859.468C5513.06 865.543 5508.14 870.468 5502.06 870.468 5495.99 870.468 5491.06 865.543 5491.06 859.468 5491.06 853.393 5495.99 848.468 5502.06 848.468 5508.14 848.468 5513.06 853.393 5513.06 859.468Z" stroke="#4F81BD" stroke-width="3.4375" stroke-linejoin="round" stroke-miterlimit="10" fill="#4F81BD"/><path d="M5513.06 894.468C5513.06 900.543 5508.14 905.468 5502.06 905.468 5495.99 905.468 5491.06 900.543 5491.06 894.468 5491.06 888.393 5495.99 883.469 5502.06 883.469 5508.14 883.469 5513.06 888.393 5513.06 894.468Z" stroke="#4F81BD" stroke-width="3.4375" stroke-linejoin="round" stroke-miterlimit="10" fill="#4F81BD"/><path d="M5503.06 879.468C5503.06 885.543 5498.14 890.468 5492.06 890.468 5485.99 890.468 5481.06 885.543 5481.06 879.468 5481.06 873.393 5485.99 868.469 5492.06 868.469 5498.14 868.469 5503.06 873.393 5503.06 879.468Z" stroke="#4F81BD" stroke-width="3.4375" stroke-linejoin="round" stroke-miterlimit="10" fill="#4F81BD"/><path d="M5429.06 860.468C5429.06 866.543 5424.14 871.468 5418.06 871.468 5411.99 871.468 5407.06 866.543 5407.06 860.468 5407.06 854.393 5411.99 849.469 5418.06 849.469 5424.14 849.469 5429.06 854.393 5429.06 860.468Z" stroke="#4F81BD" stroke-width="3.4375" stroke-linejoin="round" stroke-miterlimit="10" fill="#4F81BD"/><path d="M5505.06 946.468C5505.06 952.543 5500.14 957.468 5494.06 957.468 5487.99 957.468 5483.06 952.543 5483.06 946.468 5483.06 940.394 5487.99 935.469 5494.06 935.469 5500.14 935.469 5505.06 940.394 5505.06 946.468Z" stroke="#4F81BD" stroke-width="3.4375" stroke-linejoin="round" stroke-miterlimit="10" fill="#4F81BD"/><path d="M5522.06 885.468C5522.06 891.543 5517.14 896.468 5511.06 896.468 5504.99 896.468 5500.06 891.543 5500.06 885.468 5500.06 879.393 5504.99 874.469 5511.06 874.469 5517.14 874.469 5522.06 879.393 5522.06 885.468Z" stroke="#4F81BD" stroke-width="3.4375" stroke-linejoin="round" stroke-miterlimit="10" fill="#4F81BD"/><path d="M5661.06 866.468C5661.06 872.543 5656.14 877.468 5650.06 877.468 5643.99 877.468 5639.06 872.543 5639.06 866.468 5639.06 860.393 5643.99 855.469 5650.06 855.469 5656.14 855.469 5661.06 860.393 5661.06 866.468Z" stroke="#4F81BD" stroke-width="3.4375" stroke-linejoin="round" stroke-miterlimit="10" fill="#4F81BD"/><path d="M5690.06 898.468C5690.06 904.543 5685.14 909.468 5679.06 909.468 5672.99 909.468 5668.06 904.543 5668.06 898.468 5668.06 892.393 5672.99 887.469 5679.06 887.469 5685.14 887.469 5690.06 892.393 5690.06 898.468Z" stroke="#4F81BD" stroke-width="3.4375" stroke-linejoin="round" stroke-miterlimit="10" fill="#4F81BD"/><path d="M5494.06 984.468C5494.06 990.543 5489.14 995.468 5483.06 995.468 5476.99 995.468 5472.06 990.543 5472.06 984.468 5472.06 978.393 5476.99 973.469 5483.06 973.469 5489.14 973.469 5494.06 978.393 5494.06 984.468Z" stroke="#4F81BD" stroke-width="3.4375" stroke-linejoin="round" stroke-miterlimit="10" fill="#4F81BD"/><path d="M5568.06 878.468C5568.06 884.543 5563.14 889.468 5557.06 889.468 5550.99 889.468 5546.06 884.543 5546.06 878.468 5546.06 872.393 5550.99 867.469 5557.06 867.469 5563.14 867.469 5568.06 872.393 5568.06 878.468Z" stroke="#4F81BD" stroke-width="3.4375" stroke-linejoin="round" stroke-miterlimit="10" fill="#4F81BD"/><path d="M5494.06 957.468C5494.06 963.543 5489.14 968.468 5483.06 968.468 5476.99 968.468 5472.06 963.543 5472.06 957.468 5472.06 951.394 5476.99 946.469 5483.06 946.469 5489.14 946.469 5494.06 951.394 5494.06 957.468Z" stroke="#4F81BD" stroke-width="3.4375" stroke-linejoin="round" stroke-miterlimit="10" fill="#4F81BD"/><path d="M5541.06 869.468C5541.06 875.543 5536.14 880.468 5530.06 880.468 5523.99 880.468 5519.06 875.543 5519.06 869.468 5519.06 863.394 5523.99 858.469 5530.06 858.469 5536.14 858.469 5541.06 863.394 5541.06 869.468Z" stroke="#4F81BD" stroke-width="3.4375" stroke-linejoin="round" stroke-miterlimit="10" fill="#4F81BD"/><path d="M5542.06 906.468C5542.06 912.543 5537.14 917.468 5531.06 917.468 5524.99 917.468 5520.06 912.543 5520.06 906.468 5520.06 900.393 5524.99 895.469 5531.06 895.469 5537.14 895.469 5542.06 900.393 5542.06 906.468Z" stroke="#4F81BD" stroke-width="3.4375" stroke-linejoin="round" stroke-miterlimit="10" fill="#4F81BD"/><path d="M5461.06 886.468C5461.06 892.543 5456.14 897.468 5450.06 897.468 5443.99 897.468 5439.06 892.543 5439.06 886.468 5439.06 880.393 5443.99 875.469 5450.06 875.469 5456.14 875.469 5461.06 880.393 5461.06 886.468Z" stroke="#4F81BD" stroke-width="3.4375" stroke-linejoin="round" stroke-miterlimit="10" fill="#4F81BD"/><path d="M5486.06 964.468C5486.06 970.543 5481.14 975.468 5475.06 975.468 5468.99 975.468 5464.06 970.543 5464.06 964.468 5464.06 958.393 5468.99 953.469 5475.06 953.469 5481.14 953.469 5486.06 958.393 5486.06 964.468Z" stroke="#4F81BD" stroke-width="3.4375" stroke-linejoin="round" stroke-miterlimit="10" fill="#4F81BD"/><path d="M5619.06 911.468C5619.06 917.543 5614.14 922.468 5608.06 922.468 5601.99 922.468 5597.06 917.543 5597.06 911.468 5597.06 905.393 5601.99 900.469 5608.06 900.469 5614.14 900.469 5619.06 905.393 5619.06 911.468Z" stroke="#4F81BD" stroke-width="3.4375" stroke-linejoin="round" stroke-miterlimit="10" fill="#4F81BD"/><path d="M5776.06 936.468C5776.06 942.543 5771.14 947.468 5765.06 947.468 5758.99 947.468 5754.06 942.543 5754.06 936.468 5754.06 930.393 5758.99 925.468 5765.06 925.468 5771.14 925.468 5776.06 930.393 5776.06 936.468Z" stroke="#4F81BD" stroke-width="3.4375" stroke-linejoin="round" stroke-miterlimit="10" fill="#4F81BD"/><path d="M5647.06 1111.47C5647.06 1117.54 5642.14 1122.47 5636.06 1122.47 5629.99 1122.47 5625.06 1117.54 5625.06 1111.47 5625.06 1105.39 5629.99 1100.47 5636.06 1100.47 5642.14 1100.47 5647.06 1105.39 5647.06 1111.47Z" stroke="#4F81BD" stroke-width="3.4375" stroke-linejoin="round" stroke-miterlimit="10" fill="#4F81BD"/><path d="M5490.06 997.468C5490.06 1003.54 5485.14 1008.47 5479.06 1008.47 5472.99 1008.47 5468.06 1003.54 5468.06 997.468 5468.06 991.393 5472.99 986.469 5479.06 986.469 5485.14 986.469 5490.06 991.393 5490.06 997.468Z" stroke="#4F81BD" stroke-width="3.4375" stroke-linejoin="round" stroke-miterlimit="10" fill="#4F81BD"/><path d="M5531.06 929.468C5531.06 935.543 5526.14 940.468 5520.06 940.468 5513.99 940.468 5509.06 935.543 5509.06 929.468 5509.06 923.393 5513.99 918.469 5520.06 918.469 5526.14 918.469 5531.06 923.393 5531.06 929.468Z" stroke="#4F81BD" stroke-width="3.4375" stroke-linejoin="round" stroke-miterlimit="10" fill="#4F81BD"/><path d="M5534.06 929.468C5534.06 935.543 5529.14 940.468 5523.06 940.468 5516.99 940.468 5512.06 935.543 5512.06 929.468 5512.06 923.393 5516.99 918.469 5523.06 918.469 5529.14 918.469 5534.06 923.393 5534.06 929.468Z" stroke="#4F81BD" stroke-width="3.4375" stroke-linejoin="round" stroke-miterlimit="10" fill="#4F81BD"/><path d="M5567.06 1051.47C5567.06 1057.54 5562.14 1062.47 5556.06 1062.47 5549.99 1062.47 5545.06 1057.54 5545.06 1051.47 5545.06 1045.39 5549.99 1040.47 5556.06 1040.47 5562.14 1040.47 5567.06 1045.39 5567.06 1051.47Z" stroke="#4F81BD" stroke-width="3.4375" stroke-linejoin="round" stroke-miterlimit="10" fill="#4F81BD"/><path d="M5530.06 969.468C5530.06 975.543 5525.14 980.468 5519.06 980.468 5512.99 980.468 5508.06 975.543 5508.06 969.468 5508.06 963.393 5512.99 958.468 5519.06 958.468 5525.14 958.468 5530.06 963.393 5530.06 969.468Z" stroke="#4F81BD" stroke-width="3.4375" stroke-linejoin="round" stroke-miterlimit="10" fill="#4F81BD"/><path d="M5509.06 1021.47C5509.06 1027.54 5504.14 1032.47 5498.06 1032.47 5491.99 1032.47 5487.06 1027.54 5487.06 1021.47 5487.06 1015.39 5491.99 1010.47 5498.06 1010.47 5504.14 1010.47 5509.06 1015.39 5509.06 1021.47Z" stroke="#4F81BD" stroke-width="3.4375" stroke-linejoin="round" stroke-miterlimit="10" fill="#4F81BD"/><path d="M5583.06 938.468C5583.06 944.543 5578.14 949.468 5572.06 949.468 5565.99 949.468 5561.06 944.543 5561.06 938.468 5561.06 932.393 5565.99 927.469 5572.06 927.469 5578.14 927.469 5583.06 932.393 5583.06 938.468Z" stroke="#4F81BD" stroke-width="3.4375" stroke-linejoin="round" stroke-miterlimit="10" fill="#4F81BD"/><path d="M5580.06 934.468C5580.06 940.543 5575.14 945.468 5569.06 945.468 5562.99 945.468 5558.06 940.543 5558.06 934.468 5558.06 928.393 5562.99 923.469 5569.06 923.469 5575.14 923.469 5580.06 928.393 5580.06 934.468Z" stroke="#4F81BD" stroke-width="3.4375" stroke-linejoin="round" stroke-miterlimit="10" fill="#4F81BD"/><path d="M5563.06 1015.47C5563.06 1021.54 5558.14 1026.47 5552.06 1026.47 5545.99 1026.47 5541.06 1021.54 5541.06 1015.47 5541.06 1009.39 5545.99 1004.47 5552.06 1004.47 5558.14 1004.47 5563.06 1009.39 5563.06 1015.47Z" stroke="#4F81BD" stroke-width="3.4375" stroke-linejoin="round" stroke-miterlimit="10" fill="#4F81BD"/><path d="M5581.06 1069.47C5581.06 1075.54 5576.14 1080.47 5570.06 1080.47 5563.99 1080.47 5559.06 1075.54 5559.06 1069.47 5559.06 1063.39 5563.99 1058.47 5570.06 1058.47 5576.14 1058.47 5581.06 1063.39 5581.06 1069.47Z" stroke="#4F81BD" stroke-width="3.4375" stroke-linejoin="round" stroke-miterlimit="10" fill="#4F81BD"/><path d="M5528.06 1019.47C5528.06 1025.54 5523.14 1030.47 5517.06 1030.47 5510.99 1030.47 5506.06 1025.54 5506.06 1019.47 5506.06 1013.39 5510.99 1008.47 5517.06 1008.47 5523.14 1008.47 5528.06 1013.39 5528.06 1019.47Z" stroke="#4F81BD" stroke-width="3.4375" stroke-linejoin="round" stroke-miterlimit="10" fill="#4F81BD"/><path d="M5562.06 1010.47C5562.06 1016.54 5557.14 1021.47 5551.06 1021.47 5544.99 1021.47 5540.06 1016.54 5540.06 1010.47 5540.06 1004.39 5544.99 999.469 5551.06 999.469 5557.14 999.469 5562.06 1004.39 5562.06 1010.47Z" stroke="#4F81BD" stroke-width="3.4375" stroke-linejoin="round" stroke-miterlimit="10" fill="#4F81BD"/><path d="M5468.06 922.468C5468.06 928.543 5463.14 933.468 5457.06 933.468 5450.99 933.468 5446.06 928.543 5446.06 922.468 5446.06 916.393 5450.99 911.469 5457.06 911.469 5463.14 911.469 5468.06 916.393 5468.06 922.468Z" stroke="#4F81BD" stroke-width="3.4375" stroke-linejoin="round" stroke-miterlimit="10" fill="#4F81BD"/><path d="M5453.06 896.468C5453.06 902.543 5448.14 907.468 5442.06 907.468 5435.99 907.468 5431.06 902.543 5431.06 896.468 5431.06 890.393 5435.99 885.469 5442.06 885.469 5448.14 885.469 5453.06 890.393 5453.06 896.468Z" stroke="#4F81BD" stroke-width="3.4375" stroke-linejoin="round" stroke-miterlimit="10" fill="#4F81BD"/><path d="M5955.06 844.468C5955.06 850.543 5950.14 855.468 5944.06 855.468 5937.99 855.468 5933.06 850.543 5933.06 844.468 5933.06 838.393 5937.99 833.469 5944.06 833.469 5950.14 833.469 5955.06 838.393 5955.06 844.468Z" stroke="#4F81BD" stroke-width="3.4375" stroke-linejoin="round" stroke-miterlimit="10" fill="#4F81BD"/><path d="M5482.06 927.468C5482.06 933.543 5477.14 938.468 5471.06 938.468 5464.99 938.468 5460.06 933.543 5460.06 927.468 5460.06 921.393 5464.99 916.469 5471.06 916.469 5477.14 916.469 5482.06 921.393 5482.06 927.468Z" stroke="#4F81BD" stroke-width="3.4375" stroke-linejoin="round" stroke-miterlimit="10" fill="#4F81BD"/><path d="M5601.06 864.468C5601.06 870.543 5596.14 875.468 5590.06 875.468 5583.99 875.468 5579.06 870.543 5579.06 864.468 5579.06 858.393 5583.99 853.469 5590.06 853.469 5596.14 853.469 5601.06 858.393 5601.06 864.468Z" stroke="#4F81BD" stroke-width="3.4375" stroke-linejoin="round" stroke-miterlimit="10" fill="#4F81BD"/><path d="M5595.06 915.468C5595.06 921.543 5590.14 926.468 5584.06 926.468 5577.99 926.468 5573.06 921.543 5573.06 915.468 5573.06 909.393 5577.99 904.469 5584.06 904.469 5590.14 904.469 5595.06 909.393 5595.06 915.468Z" stroke="#4F81BD" stroke-width="3.4375" stroke-linejoin="round" stroke-miterlimit="10" fill="#4F81BD"/><path d="M5475.06 895.468C5475.06 901.543 5470.14 906.468 5464.06 906.468 5457.99 906.468 5453.06 901.543 5453.06 895.468 5453.06 889.393 5457.99 884.469 5464.06 884.469 5470.14 884.469 5475.06 889.393 5475.06 895.468Z" stroke="#4F81BD" stroke-width="3.4375" stroke-linejoin="round" stroke-miterlimit="10" fill="#4F81BD"/><path d="M5550.06 867.468C5550.06 873.543 5545.14 878.468 5539.06 878.468 5532.99 878.468 5528.06 873.543 5528.06 867.468 5528.06 861.393 5532.99 856.469 5539.06 856.469 5545.14 856.469 5550.06 861.393 5550.06 867.468Z" stroke="#4F81BD" stroke-width="3.4375" stroke-linejoin="round" stroke-miterlimit="10" fill="#4F81BD"/><path d="M5649.06 945.468C5649.06 951.543 5644.14 956.468 5638.06 956.468 5631.99 956.468 5627.06 951.543 5627.06 945.468 5627.06 939.393 5631.99 934.469 5638.06 934.469 5644.14 934.469 5649.06 939.393 5649.06 945.468Z" stroke="#4F81BD" stroke-width="3.4375" stroke-linejoin="round" stroke-miterlimit="10" fill="#4F81BD"/><path d="M5557.06 879.468C5557.06 885.543 5552.14 890.468 5546.06 890.468 5539.99 890.468 5535.06 885.543 5535.06 879.468 5535.06 873.393 5539.99 868.469 5546.06 868.469 5552.14 868.469 5557.06 873.393 5557.06 879.468Z" stroke="#4F81BD" stroke-width="3.4375" stroke-linejoin="round" stroke-miterlimit="10" fill="#4F81BD"/><path d="M5775.06 919.468C5775.06 925.543 5770.14 930.468 5764.06 930.468 5757.99 930.468 5753.06 925.543 5753.06 919.468 5753.06 913.393 5757.99 908.469 5764.06 908.469 5770.14 908.469 5775.06 913.393 5775.06 919.468Z" stroke="#4F81BD" stroke-width="3.4375" stroke-linejoin="round" stroke-miterlimit="10" fill="#4F81BD"/><path d="M5561.06 832.468C5561.06 838.543 5556.14 843.468 5550.06 843.468 5543.99 843.468 5539.06 838.543 5539.06 832.468 5539.06 826.393 5543.99 821.469 5550.06 821.469 5556.14 821.469 5561.06 826.393 5561.06 832.468Z" stroke="#4F81BD" stroke-width="3.4375" stroke-linejoin="round" stroke-miterlimit="10" fill="#4F81BD"/><path d="M5490.06 879.468C5490.06 885.543 5485.14 890.468 5479.06 890.468 5472.99 890.468 5468.06 885.543 5468.06 879.468 5468.06 873.393 5472.99 868.469 5479.06 868.469 5485.14 868.469 5490.06 873.393 5490.06 879.468Z" stroke="#4F81BD" stroke-width="3.4375" stroke-linejoin="round" stroke-miterlimit="10" fill="#4F81BD"/><path d="M5604.06 893.468C5604.06 899.543 5599.14 904.468 5593.06 904.468 5586.99 904.468 5582.06 899.543 5582.06 893.468 5582.06 887.393 5586.99 882.469 5593.06 882.469 5599.14 882.469 5604.06 887.393 5604.06 893.468Z" stroke="#4F81BD" stroke-width="3.4375" stroke-linejoin="round" stroke-miterlimit="10" fill="#4F81BD"/><path d="M5561.06 811.468C5561.06 817.543 5556.14 822.468 5550.06 822.468 5543.99 822.468 5539.06 817.543 5539.06 811.468 5539.06 805.393 5543.99 800.469 5550.06 800.469 5556.14 800.469 5561.06 805.393 5561.06 811.468Z" stroke="#4F81BD" stroke-width="3.4375" stroke-linejoin="round" stroke-miterlimit="10" fill="#4F81BD"/><path d="M5528.06 867.468C5528.06 873.543 5523.14 878.468 5517.06 878.468 5510.99 878.468 5506.06 873.543 5506.06 867.468 5506.06 861.393 5510.99 856.469 5517.06 856.469 5523.14 856.469 5528.06 861.393 5528.06 867.468Z" stroke="#4F81BD" stroke-width="3.4375" stroke-linejoin="round" stroke-miterlimit="10" fill="#4F81BD"/><path d="M5475.06 948.468C5475.06 954.543 5470.14 959.468 5464.06 959.468 5457.99 959.468 5453.06 954.543 5453.06 948.468 5453.06 942.393 5457.99 937.469 5464.06 937.469 5470.14 937.469 5475.06 942.393 5475.06 948.468Z" stroke="#4F81BD" stroke-width="3.4375" stroke-linejoin="round" stroke-miterlimit="10" fill="#4F81BD"/><path d="M5513.06 969.468C5513.06 975.543 5508.14 980.468 5502.06 980.468 5495.99 980.468 5491.06 975.543 5491.06 969.468 5491.06 963.393 5495.99 958.468 5502.06 958.468 5508.14 958.468 5513.06 963.393 5513.06 969.468Z" stroke="#4F81BD" stroke-width="3.4375" stroke-linejoin="round" stroke-miterlimit="10" fill="#4F81BD"/><path d="M5635.06 887.468C5635.06 893.543 5630.14 898.468 5624.06 898.468 5617.99 898.468 5613.06 893.543 5613.06 887.468 5613.06 881.393 5617.99 876.469 5624.06 876.469 5630.14 876.469 5635.06 881.393 5635.06 887.468Z" stroke="#4F81BD" stroke-width="3.4375" stroke-linejoin="round" stroke-miterlimit="10" fill="#4F81BD"/><path d="M5461.06 1032.47C5461.06 1038.54 5456.14 1043.47 5450.06 1043.47 5443.99 1043.47 5439.06 1038.54 5439.06 1032.47 5439.06 1026.39 5443.99 1021.47 5450.06 1021.47 5456.14 1021.47 5461.06 1026.39 5461.06 1032.47Z" stroke="#4F81BD" stroke-width="3.4375" stroke-linejoin="round" stroke-miterlimit="10" fill="#4F81BD"/><path d="M5501.06 952.468C5501.06 958.543 5496.14 963.468 5490.06 963.468 5483.99 963.468 5479.06 958.543 5479.06 952.468 5479.06 946.393 5483.99 941.469 5490.06 941.469 5496.14 941.469 5501.06 946.393 5501.06 952.468Z" stroke="#4F81BD" stroke-width="3.4375" stroke-linejoin="round" stroke-miterlimit="10" fill="#4F81BD"/><path d="M5659.06 901.468C5659.06 907.543 5654.14 912.468 5648.06 912.468 5641.99 912.468 5637.06 907.543 5637.06 901.468 5637.06 895.393 5641.99 890.469 5648.06 890.469 5654.14 890.469 5659.06 895.393 5659.06 901.468Z" stroke="#4F81BD" stroke-width="3.4375" stroke-linejoin="round" stroke-miterlimit="10" fill="#4F81BD"/><path d="M5509.06 906.468C5509.06 912.543 5504.14 917.468 5498.06 917.468 5491.99 917.468 5487.06 912.543 5487.06 906.468 5487.06 900.393 5491.99 895.469 5498.06 895.469 5504.14 895.469 5509.06 900.393 5509.06 906.468Z" stroke="#4F81BD" stroke-width="3.4375" stroke-linejoin="round" stroke-miterlimit="10" fill="#4F81BD"/><path d="M5512.06 874.468C5512.06 880.543 5507.14 885.468 5501.06 885.468 5494.99 885.468 5490.06 880.543 5490.06 874.468 5490.06 868.393 5494.99 863.469 5501.06 863.469 5507.14 863.469 5512.06 868.393 5512.06 874.468Z" stroke="#4F81BD" stroke-width="3.4375" stroke-linejoin="round" stroke-miterlimit="10" fill="#4F81BD"/><path d="M5527.06 882.468C5527.06 888.543 5522.14 893.468 5516.06 893.468 5509.99 893.468 5505.06 888.543 5505.06 882.468 5505.06 876.393 5509.99 871.469 5516.06 871.469 5522.14 871.469 5527.06 876.393 5527.06 882.468Z" stroke="#4F81BD" stroke-width="3.4375" stroke-linejoin="round" stroke-miterlimit="10" fill="#4F81BD"/><path d="M5494.06 829.468C5494.06 835.543 5489.14 840.468 5483.06 840.468 5476.99 840.468 5472.06 835.543 5472.06 829.468 5472.06 823.393 5476.99 818.469 5483.06 818.469 5489.14 818.469 5494.06 823.393 5494.06 829.468Z" stroke="#4F81BD" stroke-width="3.4375" stroke-linejoin="round" stroke-miterlimit="10" fill="#4F81BD"/><path d="M5467.06 906.468C5467.06 912.543 5462.14 917.468 5456.06 917.468 5449.99 917.468 5445.06 912.543 5445.06 906.468 5445.06 900.393 5449.99 895.469 5456.06 895.469 5462.14 895.469 5467.06 900.393 5467.06 906.468Z" stroke="#4F81BD" stroke-width="3.4375" stroke-linejoin="round" stroke-miterlimit="10" fill="#4F81BD"/><path d="M5507.06 832.468C5507.06 838.543 5502.14 843.468 5496.06 843.468 5489.99 843.468 5485.06 838.543 5485.06 832.468 5485.06 826.393 5489.99 821.469 5496.06 821.469 5502.14 821.469 5507.06 826.393 5507.06 832.468Z" stroke="#4F81BD" stroke-width="3.4375" stroke-linejoin="round" stroke-miterlimit="10" fill="#4F81BD"/><path d="M5576.06 878.468C5576.06 884.543 5571.14 889.468 5565.06 889.468 5558.99 889.468 5554.06 884.543 5554.06 878.468 5554.06 872.393 5558.99 867.469 5565.06 867.469 5571.14 867.469 5576.06 872.393 5576.06 878.468Z" stroke="#4F81BD" stroke-width="3.4375" stroke-linejoin="round" stroke-miterlimit="10" fill="#4F81BD"/><path d="M5492.06 916.468C5492.06 922.543 5487.14 927.468 5481.06 927.468 5474.99 927.468 5470.06 922.543 5470.06 916.468 5470.06 910.393 5474.99 905.469 5481.06 905.469 5487.14 905.469 5492.06 910.393 5492.06 916.468Z" stroke="#4F81BD" stroke-width="3.4375" stroke-linejoin="round" stroke-miterlimit="10" fill="#4F81BD"/><path d="M5528.06 843.468C5528.06 849.543 5523.14 854.468 5517.06 854.468 5510.99 854.468 5506.06 849.543 5506.06 843.468 5506.06 837.393 5510.99 832.469 5517.06 832.469 5523.14 832.469 5528.06 837.393 5528.06 843.468Z" stroke="#4F81BD" stroke-width="3.4375" stroke-linejoin="round" stroke-miterlimit="10" fill="#4F81BD"/><path d="M5505.06 822.468C5505.06 828.543 5500.14 833.468 5494.06 833.468 5487.99 833.468 5483.06 828.543 5483.06 822.468 5483.06 816.393 5487.99 811.469 5494.06 811.469 5500.14 811.469 5505.06 816.393 5505.06 822.468Z" stroke="#4F81BD" stroke-width="3.4375" stroke-linejoin="round" stroke-miterlimit="10" fill="#4F81BD"/><path d="M5685.06 897.468C5685.06 903.543 5680.14 908.468 5674.06 908.468 5667.99 908.468 5663.06 903.543 5663.06 897.468 5663.06 891.393 5667.99 886.469 5674.06 886.469 5680.14 886.469 5685.06 891.393 5685.06 897.468Z" stroke="#4F81BD" stroke-width="3.4375" stroke-linejoin="round" stroke-miterlimit="10" fill="#4F81BD"/><path d="M5558.06 833.468C5558.06 839.543 5553.14 844.468 5547.06 844.468 5540.99 844.468 5536.06 839.543 5536.06 833.468 5536.06 827.393 5540.99 822.469 5547.06 822.469 5553.14 822.469 5558.06 827.393 5558.06 833.468Z" stroke="#4F81BD" stroke-width="3.4375" stroke-linejoin="round" stroke-miterlimit="10" fill="#4F81BD"/><path d="M5551.06 941.468C5551.06 947.543 5546.14 952.468 5540.06 952.468 5533.99 952.468 5529.06 947.543 5529.06 941.468 5529.06 935.393 5533.99 930.469 5540.06 930.469 5546.14 930.469 5551.06 935.393 5551.06 941.468Z" stroke="#4F81BD" stroke-width="3.4375" stroke-linejoin="round" stroke-miterlimit="10" fill="#4F81BD"/><path d="M5570.06 839.468C5570.06 845.543 5565.14 850.468 5559.06 850.468 5552.99 850.468 5548.06 845.543 5548.06 839.468 5548.06 833.393 5552.99 828.469 5559.06 828.469 5565.14 828.469 5570.06 833.393 5570.06 839.468Z" stroke="#4F81BD" stroke-width="3.4375" stroke-linejoin="round" stroke-miterlimit="10" fill="#4F81BD"/><path d="M5580.06 883.468C5580.06 889.543 5575.14 894.468 5569.06 894.468 5562.99 894.468 5558.06 889.543 5558.06 883.468 5558.06 877.393 5562.99 872.469 5569.06 872.469 5575.14 872.469 5580.06 877.393 5580.06 883.468Z" stroke="#4F81BD" stroke-width="3.4375" stroke-linejoin="round" stroke-miterlimit="10" fill="#4F81BD"/><path d="M5516.06 900.468C5516.06 906.543 5511.14 911.468 5505.06 911.468 5498.99 911.468 5494.06 906.543 5494.06 900.468 5494.06 894.393 5498.99 889.469 5505.06 889.469 5511.14 889.469 5516.06 894.393 5516.06 900.468Z" stroke="#4F81BD" stroke-width="3.4375" stroke-linejoin="round" stroke-miterlimit="10" fill="#4F81BD"/><path d="M5505.06 890.468C5505.06 896.543 5500.14 901.468 5494.06 901.468 5487.99 901.468 5483.06 896.543 5483.06 890.468 5483.06 884.393 5487.99 879.469 5494.06 879.469 5500.14 879.469 5505.06 884.393 5505.06 890.468Z" stroke="#4F81BD" stroke-width="3.4375" stroke-linejoin="round" stroke-miterlimit="10" fill="#4F81BD"/><path d="M5544.06 869.468C5544.06 875.543 5539.14 880.468 5533.06 880.468 5526.99 880.468 5522.06 875.543 5522.06 869.468 5522.06 863.394 5526.99 858.469 5533.06 858.469 5539.14 858.469 5544.06 863.394 5544.06 869.468Z" stroke="#4F81BD" stroke-width="3.4375" stroke-linejoin="round" stroke-miterlimit="10" fill="#4F81BD"/><path d="M5530.06 905.468C5530.06 911.543 5525.14 916.468 5519.06 916.468 5512.99 916.468 5508.06 911.543 5508.06 905.468 5508.06 899.393 5512.99 894.469 5519.06 894.469 5525.14 894.469 5530.06 899.393 5530.06 905.468Z" stroke="#4F81BD" stroke-width="3.4375" stroke-linejoin="round" stroke-miterlimit="10" fill="#4F81BD"/><path d="M5513.06 913.468C5513.06 919.543 5508.14 924.468 5502.06 924.468 5495.99 924.468 5491.06 919.543 5491.06 913.468 5491.06 907.394 5495.99 902.469 5502.06 902.469 5508.14 902.469 5513.06 907.394 5513.06 913.468Z" stroke="#4F81BD" stroke-width="3.4375" stroke-linejoin="round" stroke-miterlimit="10" fill="#4F81BD"/><path d="M5500.06 883.468C5500.06 889.543 5495.14 894.468 5489.06 894.468 5482.99 894.468 5478.06 889.543 5478.06 883.468 5478.06 877.393 5482.99 872.469 5489.06 872.469 5495.14 872.469 5500.06 877.393 5500.06 883.468Z" stroke="#4F81BD" stroke-width="3.4375" stroke-linejoin="round" stroke-miterlimit="10" fill="#4F81BD"/><path d="M5509.06 838.468C5509.06 844.543 5504.14 849.468 5498.06 849.468 5491.99 849.468 5487.06 844.543 5487.06 838.468 5487.06 832.393 5491.99 827.469 5498.06 827.469 5504.14 827.469 5509.06 832.393 5509.06 838.468Z" stroke="#4F81BD" stroke-width="3.4375" stroke-linejoin="round" stroke-miterlimit="10" fill="#4F81BD"/><path d="M5950.06 841.468C5950.06 847.543 5945.14 852.468 5939.06 852.468 5932.99 852.468 5928.06 847.543 5928.06 841.468 5928.06 835.393 5932.99 830.469 5939.06 830.469 5945.14 830.469 5950.06 835.393 5950.06 841.468Z" stroke="#4F81BD" stroke-width="3.4375" stroke-linejoin="round" stroke-miterlimit="10" fill="#4F81BD"/><path d="M5697.06 906.468C5697.06 912.543 5692.14 917.468 5686.06 917.468 5679.99 917.468 5675.06 912.543 5675.06 906.468 5675.06 900.393 5679.99 895.469 5686.06 895.469 5692.14 895.469 5697.06 900.393 5697.06 906.468Z" stroke="#4F81BD" stroke-width="3.4375" stroke-linejoin="round" stroke-miterlimit="10" fill="#4F81BD"/><path d="M5454.06 916.468C5454.06 922.543 5449.14 927.468 5443.06 927.468 5436.99 927.468 5432.06 922.543 5432.06 916.468 5432.06 910.393 5436.99 905.469 5443.06 905.469 5449.14 905.469 5454.06 910.393 5454.06 916.468Z" stroke="#4F81BD" stroke-width="3.4375" stroke-linejoin="round" stroke-miterlimit="10" fill="#4F81BD"/><path d="M5485.06 916.468C5485.06 922.543 5480.14 927.468 5474.06 927.468 5467.99 927.468 5463.06 922.543 5463.06 916.468 5463.06 910.393 5467.99 905.469 5474.06 905.469 5480.14 905.469 5485.06 910.393 5485.06 916.468Z" stroke="#4F81BD" stroke-width="3.4375" stroke-linejoin="round" stroke-miterlimit="10" fill="#4F81BD"/><path d="M5515.06 889.468C5515.06 895.543 5510.14 900.468 5504.06 900.468 5497.99 900.468 5493.06 895.543 5493.06 889.468 5493.06 883.393 5497.99 878.469 5504.06 878.469 5510.14 878.469 5515.06 883.393 5515.06 889.468Z" stroke="#4F81BD" stroke-width="3.4375" stroke-linejoin="round" stroke-miterlimit="10" fill="#4F81BD"/><path d="M5683.06 957.468C5683.06 963.543 5678.14 968.468 5672.06 968.468 5665.99 968.468 5661.06 963.543 5661.06 957.468 5661.06 951.394 5665.99 946.469 5672.06 946.469 5678.14 946.469 5683.06 951.394 5683.06 957.468Z" stroke="#4F81BD" stroke-width="3.4375" stroke-linejoin="round" stroke-miterlimit="10" fill="#4F81BD"/><path d="M5444.06 859.468C5444.06 865.543 5439.14 870.468 5433.06 870.468 5426.99 870.468 5422.06 865.543 5422.06 859.468 5422.06 853.393 5426.99 848.468 5433.06 848.468 5439.14 848.468 5444.06 853.393 5444.06 859.468Z" stroke="#4F81BD" stroke-width="3.4375" stroke-linejoin="round" stroke-miterlimit="10" fill="#4F81BD"/><path d="M5511.06 867.468C5511.06 873.543 5506.14 878.468 5500.06 878.468 5493.99 878.468 5489.06 873.543 5489.06 867.468 5489.06 861.393 5493.99 856.469 5500.06 856.469 5506.14 856.469 5511.06 861.393 5511.06 867.468Z" stroke="#4F81BD" stroke-width="3.4375" stroke-linejoin="round" stroke-miterlimit="10" fill="#4F81BD"/><path d="M5508.06 954.468C5508.06 960.543 5503.14 965.468 5497.06 965.468 5490.99 965.468 5486.06 960.543 5486.06 954.468 5486.06 948.393 5490.99 943.469 5497.06 943.469 5503.14 943.469 5508.06 948.393 5508.06 954.468Z" stroke="#4F81BD" stroke-width="3.4375" stroke-linejoin="round" stroke-miterlimit="10" fill="#4F81BD"/><path d="M5621.06 895.468C5621.06 901.543 5616.14 906.468 5610.06 906.468 5603.99 906.468 5599.06 901.543 5599.06 895.468 5599.06 889.393 5603.99 884.469 5610.06 884.469 5616.14 884.469 5621.06 889.393 5621.06 895.468Z" stroke="#4F81BD" stroke-width="3.4375" stroke-linejoin="round" stroke-miterlimit="10" fill="#4F81BD"/><path d="M5465.06 904.468C5465.06 910.543 5460.14 915.468 5454.06 915.468 5447.99 915.468 5443.06 910.543 5443.06 904.468 5443.06 898.393 5447.99 893.469 5454.06 893.469 5460.14 893.469 5465.06 898.393 5465.06 904.468Z" stroke="#4F81BD" stroke-width="3.4375" stroke-linejoin="round" stroke-miterlimit="10" fill="#4F81BD"/><path d="M5833.06 927.468C5833.06 933.543 5828.14 938.468 5822.06 938.468 5815.99 938.468 5811.06 933.543 5811.06 927.468 5811.06 921.393 5815.99 916.469 5822.06 916.469 5828.14 916.469 5833.06 921.393 5833.06 927.468Z" stroke="#4F81BD" stroke-width="3.4375" stroke-linejoin="round" stroke-miterlimit="10" fill="#4F81BD"/><path d="M5599.06 946.468C5599.06 952.543 5594.14 957.468 5588.06 957.468 5581.99 957.468 5577.06 952.543 5577.06 946.468 5577.06 940.394 5581.99 935.469 5588.06 935.469 5594.14 935.469 5599.06 940.394 5599.06 946.468Z" stroke="#4F81BD" stroke-width="3.4375" stroke-linejoin="round" stroke-miterlimit="10" fill="#4F81BD"/><path d="M5447.06 909.468C5447.06 915.543 5442.14 920.468 5436.06 920.468 5429.99 920.468 5425.06 915.543 5425.06 909.468 5425.06 903.393 5429.99 898.469 5436.06 898.469 5442.14 898.469 5447.06 903.393 5447.06 909.468Z" stroke="#4F81BD" stroke-width="3.4375" stroke-linejoin="round" stroke-miterlimit="10" fill="#4F81BD"/><path d="M5899.06 1020.47C5899.06 1026.54 5894.14 1031.47 5888.06 1031.47 5881.99 1031.47 5877.06 1026.54 5877.06 1020.47 5877.06 1014.39 5881.99 1009.47 5888.06 1009.47 5894.14 1009.47 5899.06 1014.39 5899.06 1020.47Z" stroke="#4F81BD" stroke-width="3.4375" stroke-linejoin="round" stroke-miterlimit="10" fill="#4F81BD"/><path d="M5583.06 836.468C5583.06 842.543 5578.14 847.468 5572.06 847.468 5565.99 847.468 5561.06 842.543 5561.06 836.468 5561.06 830.394 5565.99 825.469 5572.06 825.469 5578.14 825.469 5583.06 830.394 5583.06 836.468Z" stroke="#4F81BD" stroke-width="3.4375" stroke-linejoin="round" stroke-miterlimit="10" fill="#4F81BD"/><path d="M5664.06 980.468C5664.06 986.543 5659.14 991.468 5653.06 991.468 5646.99 991.468 5642.06 986.543 5642.06 980.468 5642.06 974.393 5646.99 969.468 5653.06 969.468 5659.14 969.468 5664.06 974.393 5664.06 980.468Z" stroke="#4F81BD" stroke-width="3.4375" stroke-linejoin="round" stroke-miterlimit="10" fill="#4F81BD"/><path d="M5553.06 970.468C5553.06 976.543 5548.14 981.468 5542.06 981.468 5535.99 981.468 5531.06 976.543 5531.06 970.468 5531.06 964.393 5535.99 959.469 5542.06 959.469 5548.14 959.469 5553.06 964.393 5553.06 970.468Z" stroke="#4F81BD" stroke-width="3.4375" stroke-linejoin="round" stroke-miterlimit="10" fill="#4F81BD"/><path d="M5549.06 828.468C5549.06 834.543 5544.14 839.468 5538.06 839.468 5531.99 839.468 5527.06 834.543 5527.06 828.468 5527.06 822.393 5531.99 817.469 5538.06 817.469 5544.14 817.469 5549.06 822.393 5549.06 828.468Z" stroke="#4F81BD" stroke-width="3.4375" stroke-linejoin="round" stroke-miterlimit="10" fill="#4F81BD"/><path d="M5886.06 946.468C5886.06 952.543 5881.14 957.468 5875.06 957.468 5868.99 957.468 5864.06 952.543 5864.06 946.468 5864.06 940.394 5868.99 935.469 5875.06 935.469 5881.14 935.469 5886.06 940.394 5886.06 946.468Z" stroke="#4F81BD" stroke-width="3.4375" stroke-linejoin="round" stroke-miterlimit="10" fill="#4F81BD"/><path d="M5633.06 952.468C5633.06 958.543 5628.14 963.468 5622.06 963.468 5615.99 963.468 5611.06 958.543 5611.06 952.468 5611.06 946.393 5615.99 941.469 5622.06 941.469 5628.14 941.469 5633.06 946.393 5633.06 952.468Z" stroke="#4F81BD" stroke-width="3.4375" stroke-linejoin="round" stroke-miterlimit="10" fill="#4F81BD"/><path d="M5676.06 941.468C5676.06 947.543 5671.14 952.468 5665.06 952.468 5658.99 952.468 5654.06 947.543 5654.06 941.468 5654.06 935.393 5658.99 930.469 5665.06 930.469 5671.14 930.469 5676.06 935.393 5676.06 941.468Z" stroke="#4F81BD" stroke-width="3.4375" stroke-linejoin="round" stroke-miterlimit="10" fill="#4F81BD"/><path d="M5548.06 866.468C5548.06 872.543 5543.14 877.468 5537.06 877.468 5530.99 877.468 5526.06 872.543 5526.06 866.468 5526.06 860.393 5530.99 855.469 5537.06 855.469 5543.14 855.469 5548.06 860.393 5548.06 866.468Z" stroke="#4F81BD" stroke-width="3.4375" stroke-linejoin="round" stroke-miterlimit="10" fill="#4F81BD"/><path d="M5509.06 903.468C5509.06 909.543 5504.14 914.468 5498.06 914.468 5491.99 914.468 5487.06 909.543 5487.06 903.468 5487.06 897.393 5491.99 892.468 5498.06 892.468 5504.14 892.468 5509.06 897.393 5509.06 903.468Z" stroke="#4F81BD" stroke-width="3.4375" stroke-linejoin="round" stroke-miterlimit="10" fill="#4F81BD"/><path d="M5632.06 949.468C5632.06 955.543 5627.14 960.468 5621.06 960.468 5614.99 960.468 5610.06 955.543 5610.06 949.468 5610.06 943.393 5614.99 938.469 5621.06 938.469 5627.14 938.469 5632.06 943.393 5632.06 949.468Z" stroke="#4F81BD" stroke-width="3.4375" stroke-linejoin="round" stroke-miterlimit="10" fill="#4F81BD"/><path d="M5598.06 897.468C5598.06 903.543 5593.14 908.468 5587.06 908.468 5580.99 908.468 5576.06 903.543 5576.06 897.468 5576.06 891.393 5580.99 886.469 5587.06 886.469 5593.14 886.469 5598.06 891.393 5598.06 897.468Z" stroke="#4F81BD" stroke-width="3.4375" stroke-linejoin="round" stroke-miterlimit="10" fill="#4F81BD"/><path d="M5509.06 940.468C5509.06 946.543 5504.14 951.468 5498.06 951.468 5491.99 951.468 5487.06 946.543 5487.06 940.468 5487.06 934.393 5491.99 929.469 5498.06 929.469 5504.14 929.469 5509.06 934.393 5509.06 940.468Z" stroke="#4F81BD" stroke-width="3.4375" stroke-linejoin="round" stroke-miterlimit="10" fill="#4F81BD"/><path d="M5590.06 908.468C5590.06 914.543 5585.14 919.468 5579.06 919.468 5572.99 919.468 5568.06 914.543 5568.06 908.468 5568.06 902.393 5572.99 897.469 5579.06 897.469 5585.14 897.469 5590.06 902.393 5590.06 908.468Z" stroke="#4F81BD" stroke-width="3.4375" stroke-linejoin="round" stroke-miterlimit="10" fill="#4F81BD"/><path d="M5579.06 819.468C5579.06 825.543 5574.14 830.468 5568.06 830.468 5561.99 830.468 5557.06 825.543 5557.06 819.468 5557.06 813.393 5561.99 808.469 5568.06 808.469 5574.14 808.469 5579.06 813.393 5579.06 819.468Z" stroke="#4F81BD" stroke-width="3.4375" stroke-linejoin="round" stroke-miterlimit="10" fill="#4F81BD"/><path d="M5500.06 890.468C5500.06 896.543 5495.14 901.468 5489.06 901.468 5482.99 901.468 5478.06 896.543 5478.06 890.468 5478.06 884.393 5482.99 879.469 5489.06 879.469 5495.14 879.469 5500.06 884.393 5500.06 890.468Z" stroke="#4F81BD" stroke-width="3.4375" stroke-linejoin="round" stroke-miterlimit="10" fill="#4F81BD"/><path d="M5551.06 828.468C5551.06 834.543 5546.14 839.468 5540.06 839.468 5533.99 839.468 5529.06 834.543 5529.06 828.468 5529.06 822.393 5533.99 817.469 5540.06 817.469 5546.14 817.469 5551.06 822.393 5551.06 828.468Z" stroke="#4F81BD" stroke-width="3.4375" stroke-linejoin="round" stroke-miterlimit="10" fill="#4F81BD"/><path d="M5435.06 823.468C5435.06 829.543 5430.14 834.468 5424.06 834.468 5417.99 834.468 5413.06 829.543 5413.06 823.468 5413.06 817.393 5417.99 812.469 5424.06 812.469 5430.14 812.469 5435.06 817.393 5435.06 823.468Z" stroke="#4F81BD" stroke-width="3.4375" stroke-linejoin="round" stroke-miterlimit="10" fill="#4F81BD"/><path d="M5520.06 917.468C5520.06 923.543 5515.14 928.468 5509.06 928.468 5502.99 928.468 5498.06 923.543 5498.06 917.468 5498.06 911.393 5502.99 906.469 5509.06 906.469 5515.14 906.469 5520.06 911.393 5520.06 917.468Z" stroke="#4F81BD" stroke-width="3.4375" stroke-linejoin="round" stroke-miterlimit="10" fill="#4F81BD"/><path d="M5531.06 839.468C5531.06 845.543 5526.14 850.468 5520.06 850.468 5513.99 850.468 5509.06 845.543 5509.06 839.468 5509.06 833.393 5513.99 828.469 5520.06 828.469 5526.14 828.469 5531.06 833.393 5531.06 839.468Z" stroke="#4F81BD" stroke-width="3.4375" stroke-linejoin="round" stroke-miterlimit="10" fill="#4F81BD"/><path d="M5521.06 829.468C5521.06 835.543 5516.14 840.468 5510.06 840.468 5503.99 840.468 5499.06 835.543 5499.06 829.468 5499.06 823.393 5503.99 818.469 5510.06 818.469 5516.14 818.469 5521.06 823.393 5521.06 829.468Z" stroke="#4F81BD" stroke-width="3.4375" stroke-linejoin="round" stroke-miterlimit="10" fill="#4F81BD"/><path d="M5660.06 884.468C5660.06 890.543 5655.14 895.468 5649.06 895.468 5642.99 895.468 5638.06 890.543 5638.06 884.468 5638.06 878.393 5642.99 873.469 5649.06 873.469 5655.14 873.469 5660.06 878.393 5660.06 884.468Z" stroke="#4F81BD" stroke-width="3.4375" stroke-linejoin="round" stroke-miterlimit="10" fill="#4F81BD"/><path d="M5623.06 847.468C5623.06 853.543 5618.14 858.468 5612.06 858.468 5605.99 858.468 5601.06 853.543 5601.06 847.468 5601.06 841.394 5605.99 836.469 5612.06 836.469 5618.14 836.469 5623.06 841.394 5623.06 847.468Z" stroke="#4F81BD" stroke-width="3.4375" stroke-linejoin="round" stroke-miterlimit="10" fill="#4F81BD"/><path d="M5662.06 903.468C5662.06 909.543 5657.14 914.468 5651.06 914.468 5644.99 914.468 5640.06 909.543 5640.06 903.468 5640.06 897.393 5644.99 892.468 5651.06 892.468 5657.14 892.468 5662.06 897.393 5662.06 903.468Z" stroke="#4F81BD" stroke-width="3.4375" stroke-linejoin="round" stroke-miterlimit="10" fill="#4F81BD"/><path d="M5543.06 956.468C5543.06 962.543 5538.14 967.468 5532.06 967.468 5525.99 967.468 5521.06 962.543 5521.06 956.468 5521.06 950.393 5525.99 945.469 5532.06 945.469 5538.14 945.469 5543.06 950.393 5543.06 956.468Z" stroke="#4F81BD" stroke-width="3.4375" stroke-linejoin="round" stroke-miterlimit="10" fill="#4F81BD"/><path d="M5533.06 864.468C5533.06 870.543 5528.14 875.468 5522.06 875.468 5515.99 875.468 5511.06 870.543 5511.06 864.468 5511.06 858.393 5515.99 853.469 5522.06 853.469 5528.14 853.469 5533.06 858.393 5533.06 864.468Z" stroke="#4F81BD" stroke-width="3.4375" stroke-linejoin="round" stroke-miterlimit="10" fill="#4F81BD"/><path d="M5582.06 845.468C5582.06 851.543 5577.14 856.468 5571.06 856.468 5564.99 856.468 5560.06 851.543 5560.06 845.468 5560.06 839.393 5564.99 834.469 5571.06 834.469 5577.14 834.469 5582.06 839.393 5582.06 845.468Z" stroke="#4F81BD" stroke-width="3.4375" stroke-linejoin="round" stroke-miterlimit="10" fill="#4F81BD"/><path d="M5666.06 876.468C5666.06 882.543 5661.14 887.468 5655.06 887.468 5648.99 887.468 5644.06 882.543 5644.06 876.468 5644.06 870.393 5648.99 865.469 5655.06 865.469 5661.14 865.469 5666.06 870.393 5666.06 876.468Z" stroke="#4F81BD" stroke-width="3.4375" stroke-linejoin="round" stroke-miterlimit="10" fill="#4F81BD"/><path d="M5564.06 994.468C5564.06 1000.54 5559.14 1005.47 5553.06 1005.47 5546.99 1005.47 5542.06 1000.54 5542.06 994.468 5542.06 988.393 5546.99 983.469 5553.06 983.469 5559.14 983.469 5564.06 988.393 5564.06 994.468Z" stroke="#4F81BD" stroke-width="3.4375" stroke-linejoin="round" stroke-miterlimit="10" fill="#4F81BD"/><path d="M5626.06 969.468C5626.06 975.543 5621.14 980.468 5615.06 980.468 5608.99 980.468 5604.06 975.543 5604.06 969.468 5604.06 963.393 5608.99 958.468 5615.06 958.468 5621.14 958.468 5626.06 963.393 5626.06 969.468Z" stroke="#4F81BD" stroke-width="3.4375" stroke-linejoin="round" stroke-miterlimit="10" fill="#4F81BD"/><path d="M5520.06 922.468C5520.06 928.543 5515.14 933.468 5509.06 933.468 5502.99 933.468 5498.06 928.543 5498.06 922.468 5498.06 916.393 5502.99 911.469 5509.06 911.469 5515.14 911.469 5520.06 916.393 5520.06 922.468Z" stroke="#4F81BD" stroke-width="3.4375" stroke-linejoin="round" stroke-miterlimit="10" fill="#4F81BD"/><path d="M5519.06 864.468C5519.06 870.543 5514.14 875.468 5508.06 875.468 5501.99 875.468 5497.06 870.543 5497.06 864.468 5497.06 858.393 5501.99 853.469 5508.06 853.469 5514.14 853.469 5519.06 858.393 5519.06 864.468Z" stroke="#4F81BD" stroke-width="3.4375" stroke-linejoin="round" stroke-miterlimit="10" fill="#4F81BD"/></g><g clip-path="url(#clip6)"><text fill="#595959" font-family="Calibri,Calibri_MSFontService,sans-serif" font-weight="400" font-size="41" transform="matrix(1 0 0 1 4837.59 1424)">0</text></g><g clip-path="url(#clip7)"><text fill="#595959" font-family="Calibri,Calibri_MSFontService,sans-serif" font-weight="400" font-size="41" transform="matrix(1 0 0 1 4816.69 1363)">10</text></g><g clip-path="url(#clip8)"><text fill="#595959" font-family="Calibri,Calibri_MSFontService,sans-serif" font-weight="400" font-size="41" transform="matrix(1 0 0 1 4816.69 1301)">20</text></g><g clip-path="url(#clip9)"><text fill="#595959" font-family="Calibri,Calibri_MSFontService,sans-serif" font-weight="400" font-size="41" transform="matrix(1 0 0 1 4816.69 1240)">30</text></g><g clip-path="url(#clip10)"><text fill="#595959" font-family="Calibri,Calibri_MSFontService,sans-serif" font-weight="400" font-size="41" transform="matrix(1 0 0 1 4816.69 1179)">40</text></g><g clip-path="url(#clip11)"><text fill="#595959" font-family="Calibri,Calibri_MSFontService,sans-serif" font-weight="400" font-size="41" transform="matrix(1 0 0 1 4816.69 1118)">50</text></g><g clip-path="url(#clip12)"><text fill="#595959" font-family="Calibri,Calibri_MSFontService,sans-serif" font-weight="400" font-size="41" transform="matrix(1 0 0 1 4816.69 1057)">60</text></g><g clip-path="url(#clip13)"><text fill="#595959" font-family="Calibri,Calibri_MSFontService,sans-serif" font-weight="400" font-size="41" transform="matrix(1 0 0 1 4816.69 996)">70</text></g><g clip-path="url(#clip14)"><text fill="#595959" font-family="Calibri,Calibri_MSFontService,sans-serif" font-weight="400" font-size="41" transform="matrix(1 0 0 1 4816.69 934)">80</text></g><g clip-path="url(#clip15)"><text fill="#595959" font-family="Calibri,Calibri_MSFontService,sans-serif" font-weight="400" font-size="41" transform="matrix(1 0 0 1 4816.69 873)">90</text></g><g clip-path="url(#clip16)"><text fill="#595959" font-family="Calibri,Calibri_MSFontService,sans-serif" font-weight="400" font-size="41" transform="matrix(1 0 0 1 4795.79 812)">100</text></g><g clip-path="url(#clip17)"><text fill="#595959" font-family="Calibri,Calibri_MSFontService,sans-serif" font-weight="400" font-size="41" transform="matrix(1 0 0 1 4861.34 1477)"> $-</text></g><g clip-path="url(#clip18)"><text fill="#595959" font-family="Calibri,Calibri_MSFontService,sans-serif" font-weight="400" font-size="41" transform="matrix(1 0 0 1 5026.64 1477)"> $2.00</text></g><g clip-path="url(#clip19)"><text fill="#595959" font-family="Calibri,Calibri_MSFontService,sans-serif" font-weight="400" font-size="41" transform="matrix(1 0 0 1 5212.85 1477)"> $4.00</text></g><g clip-path="url(#clip20)"><text fill="#595959" font-family="Calibri,Calibri_MSFontService,sans-serif" font-weight="400" font-size="41" transform="matrix(1 0 0 1 5399.07 1477)"> $6.00</text></g><g clip-path="url(#clip21)"><text fill="#595959" font-family="Calibri,Calibri_MSFontService,sans-serif" font-weight="400" font-size="41" transform="matrix(1 0 0 1 5585.28 1477)"> $8.00</text></g><g clip-path="url(#clip22)"><text fill="#595959" font-family="Calibri,Calibri_MSFontService,sans-serif" font-weight="400" font-size="41" transform="matrix(1 0 0 1 5761.04 1477)"> $10.00</text></g><g clip-path="url(#clip23)"><text fill="#595959" font-family="Calibri,Calibri_MSFontService,sans-serif" font-weight="400" font-size="41" transform="matrix(1 0 0 1 5947.25 1477)"> $12.00</text></g><g clip-path="url(#clip24)"><text fill="#595959" font-family="Calibri,Calibri_MSFontService,sans-serif" font-weight="400" font-size="41" transform="matrix(1 0 0 1 6133.46 1477)"> $14.00</text></g><g clip-path="url(#clip25)"><text fill="#595959" font-family="Calibri,Calibri_MSFontService,sans-serif" font-weight="400" font-size="46" transform="matrix(6.12323e-17 -1 1 6.12323e-17 4770.1 1271)">SOL Pass Rate (%)</text></g><g clip-path="url(#clip26)"><text fill="#595959" font-family="Calibri,Calibri_MSFontService,sans-serif" font-weight="400" font-size="46" transform="matrix(1 0 0 1 5343.65 1547)">Spending Per Pupil ($)</text></g><g clip-path="url(#clip27)"><text fill="#595959" font-family="Calibri,Calibri_MSFontService,sans-serif" font-weight="400" font-size="64" transform="matrix(1 0 0 1 4904.12 721)">The Effect of Per Pupil Spending on SOL Scores</text></g><rect x="4683.5" y="626.5" width="1648" height="985" stroke="#D9D9D9" stroke-width="3.4375" stroke-linejoin="round" stroke-miterlimit="10" fill="none"/></g></svg>